<?xml version="1.0" encoding="iso-8859-1"?>
<!-- Generator: Adobe Illustrator 19.0.0, SVG Export Plug-In . SVG Version: 6.00 Build 0)  -->
<svg version="1.1" id="Capa_1" xmlns="http://www.w3.org/2000/svg" xmlns:xlink="http://www.w3.org/1999/xlink" x="0px" y="0px"
	 viewBox="0 0 512 512" style="enable-background:new 0 0 512 512;" xml:space="preserve">
<g>
	<g>
		<g>
			<path d="M348.745,161.057c12.562-2.218,24.588,6.205,26.803,18.769c0.72,4.079,4.608,6.814,8.69,6.084
				c4.079-0.719,6.804-4.609,6.085-8.689c-3.652-20.709-23.474-34.596-44.181-30.936c-20.71,3.651-34.586,23.472-30.936,44.181
				c0.642,3.639,3.806,6.199,7.379,6.199c0.432,0,0.871-0.037,1.311-0.115c4.079-0.719,6.804-4.609,6.085-8.69
				C327.762,175.298,336.182,163.274,348.745,161.057z"/>
			<path d="M506.555,204.605c-13.636-65.383-51.849-122.08-107.597-159.651C343.226,7.393,276.322-6.768,210.574,5.077
				C148.866,16.194,93.552,49.438,54.819,98.686c-2.561,3.256-1.998,7.973,1.258,10.533c3.257,2.561,7.972,1.996,10.533-1.259
				c36.461-46.359,88.533-77.654,146.624-88.12c61.886-11.146,124.864,2.188,177.342,37.554
				c52.486,35.373,88.461,88.741,101.295,150.274c3.378,16.195,5.101,32.732,5.127,49.16c-0.004,0.098-0.016,0.194-0.016,0.292
				c-0.008,1.841-0.767,3.518-2.254,4.982c-2.331,2.297-6.019,3.709-9.723,3.659c-0.25,0.003-0.504,0.009-0.754,0.03
				c-12.65,0.346-25.348,1.629-37.746,3.814c-11.367,2.004-22.486,4.743-33.317,8.173c0.197-3.817,0.239-7.641,0.12-11.444
				c-0.212-6.776-3.691-13.076-9.309-16.855c-5.672-3.813-12.599-4.637-19.008-2.259c-20.563,7.633-64.139,22.037-124.955,32.761
				c-60.822,10.724-106.703,12.088-128.626,11.951h-0.139c-6.78,0-12.952,3.139-16.951,8.627c-3.985,5.471-5.1,12.581-2.981,19.02
				c4.594,13.963,11.452,27.116,20.202,39.007c0.267,0.458,0.584,0.883,0.94,1.273c10.509,13.958,23.655,26.128,38.846,35.752
				c24.922,15.789,54.543,24.203,84.59,24.202c0.042,0,0.083-0.001,0.125-0.001c-8.998,20.736-15.24,42.701-18.509,65.484
				c-1.738,8.599-13.832,10.494-16.312,10.241c-49.668-7.228-95.211-29.446-131.727-64.276
				c-37.352-35.628-61.847-81.413-70.839-132.408c-9.81-55.63,0.292-113.177,28.446-162.042c2.068-3.589,0.835-8.176-2.754-10.244
				c-3.588-2.068-8.175-0.834-10.244,2.755C4.193,181.235-6.54,242.368,3.88,301.461c9.551,54.167,35.576,102.807,75.258,140.659
				c38.887,37.092,87.421,60.72,140.353,68.332c1.937,0.278,3.877,0.449,5.814,0.515c0.636,0.023,1.273,0.034,1.908,0.034
				c12.258-0.001,24.241-4.225,33.997-12.071c0.048-0.039,0.098-0.074,0.146-0.113c0.653-0.529,1.297-1.075,1.929-1.636
				l182.108-161.674c3.097-2.75,3.379-7.491,0.629-10.589c-2.75-3.097-7.491-3.381-10.589-0.629l-182.102,161.67
				c-0.003,0.003-0.007,0.005-0.01,0.008c-0.271,0.241-0.553,0.465-0.829,0.697c3.63-24.745,10.982-48.463,21.761-70.548
				c0.414-0.593,0.742-1.247,0.972-1.944c10.669-21.362,24.554-41.172,41.406-58.862c4.548-4.774,9.265-9.337,14.135-13.686
				c0.091-0.073,0.174-0.153,0.262-0.23c22.281-19.842,47.806-35.184,75.592-45.501c0.404-0.111,0.794-0.259,1.17-0.434
				c13.296-4.857,27.103-8.572,41.317-11.078c11.599-2.044,23.477-3.25,35.316-3.585l-22.565,20.033
				c-3.097,2.75-3.379,7.491-0.629,10.589c2.75,3.096,7.491,3.38,10.589,0.629l25.897-22.99c8.512-7.558,13.614-18.219,14.206-29.53
				c0.049-0.839,0.078-1.681,0.078-2.527C511.986,239.488,510.154,221.86,506.555,204.605z M263.239,404.624
				c-29.703,1.501-59.337-6.131-83.886-21.683c-8.881-5.627-16.98-12.217-24.151-19.581c7.494,0.322,15.072,0.499,22.716,0.499
				c31.885,0,64.716-2.784,95.458-8.206c9.179-1.618,18.456-3.519,27.761-5.682C286.046,366.658,273.349,385.003,263.239,404.624z
				 M397.717,283.222c-27.557,10.716-52.948,26.139-75.318,45.787c-17.258,4.874-34.617,8.872-51.627,11.871
				c-41.626,7.34-87.165,9.693-128.676,6.705c-7.089-10.057-12.682-21.062-16.509-32.691c-0.623-1.892-0.31-3.896,0.857-5.498
				c1.139-1.564,2.898-2.458,4.829-2.458h0.04c22.439,0.134,69.338-1.249,131.326-12.18c61.982-10.929,106.532-25.661,127.572-33.47
				c1.826-0.678,3.799-0.442,5.417,0.643c1.645,1.107,2.623,2.883,2.685,4.874C398.483,272.262,398.274,277.765,397.717,283.222z"/>
			<path d="M135.998,198.571c6.085-1.073,12.225,0.287,17.288,3.832s8.441,8.849,9.514,14.935c0.719,4.08,4.611,6.808,8.689,6.085
				c4.079-0.719,6.804-4.608,6.085-8.689c-1.768-10.032-7.339-18.775-15.684-24.618c-8.346-5.844-18.466-8.088-28.498-6.317
				c-10.032,1.768-18.775,7.339-24.618,15.684c-5.843,8.345-8.087,18.465-6.318,28.498c0.642,3.639,3.806,6.199,7.378,6.199
				c0.432,0,0.871-0.037,1.311-0.115c4.079-0.719,6.804-4.609,6.085-8.689c-1.073-6.086,0.288-12.226,3.832-17.288
				C124.608,203.024,129.911,199.644,135.998,198.571z"/>
		</g>
	</g>
</g>
<g>
</g>
<g>
</g>
<g>
</g>
<g>
</g>
<g>
</g>
<g>
</g>
<g>
</g>
<g>
</g>
<g>
</g>
<g>
</g>
<g>
</g>
<g>
</g>
<g>
</g>
<g>
</g>
<g>
</g>
</svg>
