<?xml version="1.0" encoding="iso-8859-1"?>
<!-- Generator: Adobe Illustrator 19.0.0, SVG Export Plug-In . SVG Version: 6.00 Build 0)  -->
<svg version="1.1" id="Capa_1" xmlns="http://www.w3.org/2000/svg" xmlns:xlink="http://www.w3.org/1999/xlink" x="0px" y="0px"
	 viewBox="0 0 512 512" style="enable-background:new 0 0 512 512;" xml:space="preserve">
    <style>
        .fill-white{
            fill:#fff;
        }
    </style>
    <g class="fill-white">
<g>
	<g>
		<path d="M401.36,96.755c-8.536-25.613-24.44-48.589-45.656-65.64C330.739,11.051,299.319,0,267.231,0
			c-47.437,0-91.483,23.847-117.573,62.919c-6.879-1.318-13.892-1.99-20.96-1.99c-61.126,0-110.855,49.729-110.855,110.855
			c0.001,59.051,46.413,107.462,104.673,110.681c0.713,0.104,1.436,0.175,2.177,0.175h272.516c0.681,0,1.346-0.061,2.002-0.149
			c0.657,0.088,1.322,0.149,2.002,0.149c51.249,0,92.943-41.694,92.943-92.943C494.157,138.497,452.542,96.835,401.36,96.755z"/>
	</g>
</g>
<g>
	<g>
		<path d="M370.189,410.676c-22.716,0-41.982,15.041-48.369,35.687h-16.426l0.689-137.814c0.013-2.651-2.133-4.808-4.784-4.808
			h-20.47c-2.632,0-4.771,2.128-4.784,4.76l-0.764,152.804c0,0.013,0.002,0.026,0.002,0.04c0,0.012-0.002,0.024-0.002,0.036
			c0,0.232,0.024,0.458,0.035,0.687c0.012,0.271,0.014,0.546,0.041,0.813c0.024,0.239,0.069,0.472,0.104,0.707
			c0.039,0.261,0.067,0.527,0.119,0.783c0.048,0.239,0.118,0.471,0.177,0.706c0.062,0.244,0.114,0.494,0.188,0.733
			c0.073,0.236,0.166,0.463,0.25,0.694c0.083,0.229,0.157,0.463,0.251,0.686c0.096,0.229,0.212,0.448,0.319,0.672
			c0.103,0.214,0.197,0.434,0.309,0.642c0.117,0.218,0.253,0.424,0.381,0.635c0.122,0.202,0.236,0.409,0.367,0.606
			c0.136,0.203,0.289,0.392,0.436,0.589c0.142,0.19,0.276,0.386,0.427,0.57c0.152,0.185,0.32,0.356,0.481,0.535
			c0.161,0.179,0.316,0.364,0.487,0.535c0.165,0.166,0.344,0.316,0.518,0.475c0.182,0.166,0.357,0.339,0.547,0.498
			c0.178,0.147,0.368,0.278,0.553,0.418c0.2,0.151,0.393,0.308,0.601,0.45c0.188,0.128,0.388,0.238,0.582,0.357
			c0.217,0.134,0.43,0.275,0.655,0.398c0.2,0.109,0.411,0.2,0.617,0.3c0.231,0.113,0.457,0.233,0.694,0.334
			c0.213,0.091,0.437,0.162,0.655,0.243c0.241,0.089,0.478,0.187,0.724,0.265c0.225,0.071,0.46,0.121,0.689,0.181
			c0.249,0.065,0.495,0.14,0.748,0.192c0.237,0.049,0.483,0.076,0.724,0.114c0.255,0.04,0.507,0.09,0.767,0.117
			c0.243,0.025,0.494,0.028,0.741,0.041c0.252,0.014,0.501,0.041,0.756,0.042c0.025,0,0.05,0,0.075,0h0.001h31.571
			c6.44,20.557,25.663,35.515,48.316,35.515c27.911,0,50.619-22.708,50.619-50.619C420.808,433.384,398.1,410.676,370.189,410.676z"
			/>
	</g>
</g>
<g>
	<g>
		<path d="M425.975,298.448c-22.685,0-41.931,14.999-48.344,35.601h-15.927v-25.525c0-2.642-2.142-4.784-4.784-4.784h-20.47
			c-2.642,0-4.784,2.142-4.784,4.784v40.119c0,0.073,0.009,0.145,0.01,0.218c-0.001,0.069-0.01,0.136-0.01,0.206
			c0,6.961,4.743,12.799,11.169,14.502c0.127,0.035,0.255,0.067,0.383,0.099c0.298,0.071,0.6,0.131,0.905,0.184
			c0.221,0.039,0.444,0.073,0.668,0.102c0.252,0.032,0.506,0.056,0.761,0.075c0.136,0.01,0.269,0.034,0.406,0.04
			c0.119,0.006,0.234-0.005,0.353-0.002c0.125,0.003,0.247,0.019,0.372,0.019h30.945c6.413,20.601,25.66,35.601,48.344,35.601
			c27.911,0,50.619-22.708,50.619-50.619S453.887,298.448,425.975,298.448z"/>
	</g>
</g>
<g>
	<g>
		<path d="M188.634,303.74h-20.47c-2.642,0-4.784,2.142-4.784,4.784v25.525h-15.674c-6.413-20.601-25.66-35.601-48.344-35.601
			c-27.911,0-50.619,22.708-50.619,50.619s22.708,50.619,50.619,50.619c22.684,0.001,41.93-14.998,48.343-35.6h30.693
			c0.152,0,0.3-0.018,0.453-0.023c0.25-0.007,0.499-0.018,0.745-0.038c0.269-0.021,0.536-0.052,0.8-0.088
			c0.242-0.032,0.484-0.066,0.722-0.11c0.261-0.048,0.519-0.106,0.775-0.167c0.234-0.056,0.467-0.112,0.697-0.179
			c0.252-0.073,0.499-0.157,0.745-0.242c0.224-0.078,0.448-0.155,0.666-0.244c0.241-0.097,0.477-0.205,0.712-0.314
			c0.212-0.099,0.426-0.196,0.632-0.304c0.23-0.12,0.452-0.251,0.675-0.383c0.199-0.118,0.4-0.233,0.594-0.36
			c0.217-0.142,0.424-0.295,0.634-0.449c0.185-0.136,0.372-0.268,0.552-0.413c0.202-0.163,0.395-0.336,0.589-0.51
			c0.17-0.152,0.342-0.3,0.506-0.46c0.187-0.182,0.361-0.376,0.539-0.569c0.153-0.166,0.31-0.328,0.457-0.502
			c0.17-0.201,0.325-0.414,0.485-0.625c0.135-0.179,0.275-0.354,0.404-0.54c0.151-0.22,0.287-0.451,0.427-0.679
			c0.116-0.19,0.239-0.375,0.346-0.571c0.132-0.238,0.246-0.488,0.365-0.734c0.095-0.197,0.198-0.39,0.285-0.593
			c0.111-0.259,0.203-0.529,0.3-0.795c0.073-0.2,0.155-0.396,0.22-0.601c0.09-0.285,0.157-0.579,0.231-0.871
			c0.049-0.196,0.109-0.387,0.151-0.587c0.068-0.328,0.111-0.667,0.157-1.002c0.023-0.17,0.06-0.336,0.078-0.51
			c0.053-0.513,0.081-1.031,0.081-1.558v-40.544C193.418,305.882,191.277,303.74,188.634,303.74z"/>
	</g>
</g>
<g>
	<g>
		<path d="M244.846,303.741h-20.47c-2.632,0-4.771,2.128-4.784,4.76l-0.689,137.862h-16.909
			c-6.413-20.601-25.66-35.601-48.344-35.601c-27.911,0-50.619,22.708-50.619,50.619S125.74,512,153.651,512
			c22.685,0,41.931-14.999,48.344-35.601h31.777h0.075h0.001c0.518,0,1.028-0.026,1.532-0.077c0.113-0.011,0.221-0.037,0.333-0.051
			c0.388-0.048,0.776-0.099,1.154-0.176c0.185-0.038,0.363-0.095,0.547-0.14c0.297-0.073,0.599-0.138,0.889-0.228
			c0.216-0.067,0.423-0.155,0.634-0.231c0.248-0.09,0.502-0.17,0.743-0.272c0.223-0.094,0.435-0.208,0.652-0.312
			c0.219-0.105,0.445-0.201,0.659-0.317c0.216-0.117,0.42-0.254,0.631-0.381c0.202-0.123,0.411-0.236,0.607-0.368
			c0.201-0.135,0.388-0.288,0.583-0.434c0.191-0.143,0.388-0.277,0.573-0.429c0.182-0.15,0.349-0.316,0.525-0.475
			c0.181-0.164,0.368-0.32,0.542-0.493c0.163-0.163,0.311-0.34,0.467-0.511c0.168-0.184,0.343-0.36,0.503-0.553
			c0.143-0.173,0.27-0.36,0.407-0.54c0.154-0.204,0.315-0.402,0.46-0.614c0.123-0.182,0.229-0.376,0.345-0.564
			c0.137-0.223,0.282-0.441,0.408-0.671c0.106-0.194,0.193-0.399,0.291-0.599c0.115-0.236,0.239-0.468,0.342-0.711
			c0.089-0.208,0.157-0.427,0.237-0.64c0.091-0.245,0.191-0.486,0.269-0.737c0.07-0.222,0.118-0.454,0.178-0.681
			c0.066-0.251,0.141-0.5,0.194-0.756c0.048-0.231,0.074-0.471,0.111-0.706c0.041-0.26,0.092-0.518,0.119-0.783
			c0.024-0.235,0.026-0.477,0.04-0.715c0.015-0.259,0.042-0.517,0.043-0.779l0.764-152.907
			C249.643,305.898,247.498,303.741,244.846,303.741z"/>
	</g>
</g>
<g>
</g>
<g>
</g>
<g>
</g>
<g>
</g>
<g>
</g>
<g>
</g>
<g>
</g>
<g>
</g>
<g>
</g>
<g>
</g>
<g>
</g>
<g>
</g>
<g>
</g>
<g>
</g>
<g>
</g>
        </g>
</svg>
