<?xml version="1.0" encoding="iso-8859-1"?>
<!-- Generator: Adobe Illustrator 19.0.0, SVG Export Plug-In . SVG Version: 6.00 Build 0)  -->
<svg version="1.1" id="Capa_1" xmlns="http://www.w3.org/2000/svg" xmlns:xlink="http://www.w3.org/1999/xlink" x="0px" y="0px"
	 viewBox="0 0 512.411 512.411" style="enable-background:new 0 0 512.411 512.411;" xml:space="preserve">
<g style="fill:#e7eaf3;">
	<g>
		<g>
			<path d="M128.146,96c-17.673,0-32,14.327-32,32s14.327,32,32,32s32-14.327,32-32S145.82,96,128.146,96z M128.146,138.667
				c-5.891,0-10.667-4.776-10.667-10.667s4.776-10.667,10.667-10.667c5.891,0,10.667,4.776,10.667,10.667
				S134.038,138.667,128.146,138.667z"/>
			<path d="M511.856,374.141c-2.36-29.346-14.765-56.981-35.123-78.248l3.413-3.52l13.76,13.76l15.04-15.04l-42.667-42.667
				l-15.04,15.04l13.867,13.867l-4.373,4.373c-19.158-14.443-42.012-23.17-65.92-25.173v-107.2c0-17.673-14.327-32-32-32H309.48
				V74.667h97.067c5.891,28.86,34.062,47.48,62.922,41.589s47.48-34.062,41.589-62.922c-5.891-28.86-34.062-47.48-62.922-41.589
				c-20.945,4.275-37.314,20.644-41.589,41.589H309.48c-11.782,0-21.333,9.551-21.333,21.333v42.667h-32v-10.667
				c0-5.891-4.776-10.667-10.667-10.667h-25.92l18.987-17.6c4.318-3.982,4.604-10.706,0.64-15.04l-37.12-40.32
				c-3.982-4.318-10.706-4.604-15.04-0.64l-26.88,24.747v-36.48C160.146,4.776,155.371,0,149.48,0h-42.667
				c-5.891,0-10.667,4.776-10.667,10.667v25.92l-17.6-19.093c-3.982-4.318-10.706-4.604-15.04-0.64L23.186,54.08
				c-4.318,3.982-4.604,10.706-0.64,15.04L47.293,96h-36.48c-5.891,0-10.667,4.776-10.667,10.667v42.667
				c0,5.891,4.776,10.667,10.667,10.667h25.92L17.64,177.6c-4.318,3.982-4.604,10.706-0.64,15.04l37.227,40.32
				c3.982,4.318,10.706,4.604,15.04,0.64l26.88-24.747v36.48c0,5.891,4.776,10.667,10.667,10.667h42.667
				c5.891,0,10.667-4.776,10.667-10.667v-25.92l17.6,18.987c3.982,4.318,10.706,4.604,15.04,0.64l40.32-37.227
				c4.318-3.982,4.604-10.706,0.64-15.04L209,160h36.48c5.891,0,10.667-4.776,10.667-10.667v-10.667h106.667
				c5.891,0,10.667,4.776,10.667,10.667v107.2c-62.206,5.242-111.558,54.594-116.8,116.8h-53.867
				c-5.891,0-10.667,4.776-10.667,10.667v96H74.813v-64.96c34.852-5.891,58.329-38.92,52.438-73.772
				c-5.891-34.852-38.92-58.329-73.772-52.438c-34.852,5.891-58.329,38.92-52.438,73.771c4.54,26.857,25.581,47.898,52.438,52.438
				v75.627c0,5.891,4.776,10.667,10.667,10.667h138.667c5.891,0,10.667-4.776,10.667-10.667v-96h43.2
				c5.668,70.465,67.386,122.993,137.851,117.325S517.524,444.606,511.856,374.141z M458.813,32c17.673,0,32,14.327,32,32
				s-14.327,32-32,32s-32-14.327-32-32S441.14,32,458.813,32z M234.813,138.667h-35.307c-4.519,0.018-8.536,2.881-10.027,7.147
				c-1.148,3.298-2.539,6.507-4.16,9.6c-2.134,4.012-1.492,8.936,1.6,12.267l23.893,25.92l-24.64,22.72l-24.107-26.24
				c-3.376-3.167-8.268-4.12-12.587-2.453l-3.733,1.493c-4.103,1.583-6.814,5.522-6.827,9.92v35.627h-21.44V199.36
				c-0.018-4.519-2.881-8.536-7.147-10.027c-3.298-1.148-6.507-2.539-9.6-4.16c-4.012-2.134-8.936-1.492-12.267,1.6l-25.813,23.893
				l-22.72-24.64l26.24-24.107c3.13-3.399,4.042-8.288,2.347-12.587l-1.493-3.733c-1.549-4.145-5.495-6.903-9.92-6.933H21.48
				v-21.333h35.307c4.519-0.018,8.536-2.881,10.027-7.147c1.148-3.298,2.539-6.507,4.16-9.6c2.134-4.012,1.492-8.936-1.6-12.267
				L45.48,62.507l24.64-22.72L94.226,65.92c2.989,3.221,7.646,4.279,11.733,2.667l4.693-1.813c4.103-1.583,6.814-5.522,6.827-9.92
				v-35.52h21.333V56.64c0.018,4.519,2.881,8.536,7.147,10.027c3.298,1.148,6.507,2.539,9.6,4.16
				c4.012,2.134,8.936,1.492,12.267-1.6l25.92-23.893l22.72,24.64L190.12,94.187c-3.088,3.377-3.997,8.212-2.347,12.48l1.493,3.733
				c1.583,4.103,5.522,6.814,9.92,6.827h35.627V138.667z M21.48,352c0-23.564,19.103-42.667,42.667-42.667
				s42.667,19.103,42.667,42.667c0,23.564-19.103,42.667-42.667,42.667S21.48,375.564,21.48,352z M384.146,490.667
				c-58.91,0-106.667-47.756-106.667-106.667s47.756-106.667,106.667-106.667S490.813,325.09,490.813,384
				S443.057,490.667,384.146,490.667z"/>
			<path d="M384.146,298.667c-47.128,0-85.333,38.205-85.333,85.333s38.205,85.333,85.333,85.333V448c-35.346,0-64-28.654-64-64
				c0-35.346,28.654-64,64-64c35.346,0,64,28.654,64,64h21.333C469.48,336.872,431.275,298.667,384.146,298.667z"/>
			<rect x="448.146" y="394.667" width="21.333" height="21.333"/>
			<path d="M373.48,379.627l-28.907,28.907l15.04,15.04l32-32c2.036-1.995,3.188-4.723,3.2-7.573v-42.667H373.48V379.627z"/>
			<rect x="53.48" y="341.333" width="21.333" height="21.333"/>
			<rect x="448.146" y="53.333" width="21.333" height="21.333"/>
		</g>
	</g>
</g>
<g>
</g>
<g>
</g>
<g>
</g>
<g>
</g>
<g>
</g>
<g>
</g>
<g>
</g>
<g>
</g>
<g>
</g>
<g>
</g>
<g>
</g>
<g>
</g>
<g>
</g>
<g>
</g>
<g>
</g>
</svg>
