<?xml version="1.0" encoding="utf-8"?>
<!-- Generator: Adobe Illustrator 22.1.0, SVG Export Plug-In . SVG Version: 6.00 Build 0)  -->
<svg version="1.1" id="Layer_1" xmlns="http://www.w3.org/2000/svg" xmlns:xlink="http://www.w3.org/1999/xlink" x="0px" y="0px"
	 viewBox="0 0 678 620" style="enable-background:new 0 0 678 620;" xml:space="preserve">
<style type="text/css">
	.st0{clip-path:url(#SVGID_2_);}
	.st1{fill:#56547F;}
	.st2{clip-path:url(#SVGID_2_);fill:#5E5E91;}
	.st3{clip-path:url(#SVGID_2_);fill:#E0E0F3;}
	.st4{fill:#7491B0;}
	.st5{fill:#5E5E91;}
	.st6{fill:#E0E0F3;}
	.st7{opacity:0.3;fill:#FFFFFF;}
	.st8{fill:#CCCCE6;}
	.st9{fill:#D1D1F3;}
	.st10{fill:#445A8C;}
	.st11{fill:#5570B0;}
	.st12{fill:#88ABCF;}
	.st13{fill:#344C63;}
	.st14{opacity:0.3;fill:url(#SVGID_3_);}
	.st15{opacity:0.1;fill:#EBEBF3;}
	.st16{fill:#FF7911;}
	.st17{opacity:0.2;}
	.st18{opacity:0.7;fill:#F5F6F8;}
	.st19{fill:#F5F6F8;}
	.st20{opacity:0.6;fill:#F5F6F8;}
	.st21{fill:#353647;}
	.st22{opacity:0.5;fill:#FF455A;}
	.st23{fill:#34B980;}
	.st24{fill:#268A5F;}
	.st25{opacity:0.15;}
	.st26{fill:#FFBD30;}
	.st27{fill:#EDAC90;}
	.st28{clip-path:url(#SVGID_5_);}
	.st29{fill:#5780A6;}
	.st30{fill:#446482;}
	.st31{fill:#282828;}
	.st32{fill:#3B3B3B;}
	.st33{fill:#1E1E1E;}
	.st34{fill:#606060;}
	.st35{fill:#525252;}
	.st36{opacity:0.6;fill:#A7CDF2;}
	.st37{fill:#FFFFFF;}
	.st38{fill:#45465C;}
	.st39{fill:#44598C;}
	.st40{fill:#262626;}
	.st41{fill:#694521;}
	.st42{fill:#805529;}
	.st43{fill:#B87A3B;}
	.st44{fill:#3463A6;}
	.st45{fill:#565773;}
	.st46{fill:#55779C;}
</style>
<g>
	<defs>
		<path id="SVGID_1_" d="M106.8,588h501.7c0.3-1.3,0.6-2.7,0.8-4.1c2.8-20.2-1.5-52.4,28-78.4c34.7-30.7,30.5-76.1,1.9-113.9
			c-11.3-14.9-67-82.5-51.1-157c4-18.5,14.3-34.8,20.7-52.5c9.9-27.4,24.1-73.6-25.5-111.9c-56-43.3-128.5-32-183.2-21.3
			c-31.8,6.2-102.6-41.7-179.7-32.3c-71.3,8.7-133.9,99.4-98.8,211.9c12.4,39.8,9.8,125.6-5.7,146.3c-17.9,23.9-45,71.3-45,125.6
			C70.7,543.2,85.9,584.6,106.8,588z"/>
	</defs>
	<clipPath id="SVGID_2_">
		<use xlink:href="#SVGID_1_"  style="overflow:visible;"/>
	</clipPath>
	<g class="st0">
		<g>
			<path class="st1" d="M106.8,588h501.7c0.3-1.3,0.6-2.7,0.8-4.1c2.8-20.2-1.5-52.4,28-78.4c34.7-30.7,30.5-76.1,1.9-113.9
				c-11.3-14.9-67-82.5-51.1-157c4-18.5,14.3-34.8,20.7-52.5c9.9-27.4,24.1-73.6-25.5-111.9c-56-43.3-128.5-32-183.2-21.3
				c-31.8,6.2-102.6-41.7-179.7-32.3c-71.3,8.7-133.9,99.4-98.8,211.9c12.4,39.8,9.8,125.6-5.7,146.3c-17.9,23.9-45,71.3-45,125.6
				C70.7,543.2,85.9,584.6,106.8,588z"/>
			<rect x="63.8" y="585.2" class="st1" width="578.8" height="2.8"/>
		</g>
	</g>
	<path class="st2" d="M650.5,164.9c0,0-62.5-46.8-120.3,5.6c-57.8,52.5-21,129.7-68.8,146.2c-47.8,16.5-67.4-53-136.3-67.7
		c-69-14.7-147.4,34.2-164.3,110.1c-17,75.9-122.2,84.2-127.9,159.2s62.3,87.6,62.3,87.6l537.7,6.8c0,0-60.2-37.6-60.2-104.8
		c0-67.2,77.5-72.6,84-139.2C663.2,302.1,650.5,164.9,650.5,164.9z"/>
	<path class="st3" d="M632.9,184.9c0,0-13.5-11.5-40-6.5c-26.5,5-10.4,36.8-29,41.8c-18.6,5-41.5,7.4-50.6,27.9
		c-9.2,20.5,2.2,45.7,22.4,42.1c20.2-3.6-5.4-32.7,7.4-41.3c12.8-8.6,31.3,4.5,44.2-11c12.9-15.5,33.7-17.4,42.2-26.8
		C637.8,201.8,632.9,184.9,632.9,184.9z"/>
	<g class="st0">
		<g>
			
				<rect x="385.7" y="191.8" transform="matrix(0.7091 -0.7051 0.7051 0.7091 -65.6262 345.7825)" class="st4" width="1.2" height="121.3"/>
			
				<rect x="380.2" y="197.2" transform="matrix(0.7092 -0.705 0.705 0.7092 -71.1025 343.4492)" class="st4" width="1.2" height="121.3"/>
			
				<rect x="374.7" y="202.7" transform="matrix(0.7092 -0.705 0.705 0.7092 -76.5767 341.1165)" class="st4" width="1.2" height="121.3"/>
			
				<rect x="369.1" y="208.2" transform="matrix(0.7091 -0.7051 0.7051 0.7091 -82.0318 338.9033)" class="st4" width="1.2" height="121.3"/>
			
				<rect x="363.6" y="213.7" transform="matrix(0.7092 -0.705 0.705 0.7092 -87.5061 336.5701)" class="st4" width="1.2" height="121.3"/>
			
				<rect x="358.1" y="219.2" transform="matrix(0.7091 -0.7051 0.7051 0.7091 -92.9686 334.3174)" class="st4" width="1.2" height="121.3"/>
			
				<rect x="352.6" y="224.6" transform="matrix(0.7092 -0.705 0.705 0.7092 -98.4456 331.9444)" class="st4" width="1.2" height="121.3"/>
			
				<rect x="347.1" y="230.1" transform="matrix(0.7093 -0.7049 0.7049 0.7093 -103.9165 329.6109)" class="st4" width="1.2" height="121.3"/>
			
				<rect x="341.6" y="235.6" transform="matrix(0.7091 -0.7051 0.7051 0.7091 -109.3742 327.4381)" class="st4" width="1.2" height="121.3"/>
			
				<rect x="336.1" y="241.1" transform="matrix(0.7092 -0.705 0.705 0.7092 -114.8451 325.1049)" class="st4" width="1.2" height="121.3"/>
			
				<rect x="330.5" y="246.6" transform="matrix(0.7092 -0.705 0.705 0.7092 -120.3132 322.8118)" class="st4" width="1.2" height="121.3"/>
			
				<rect x="325" y="252" transform="matrix(0.7092 -0.705 0.705 0.7092 -125.7805 320.5191)" class="st4" width="1.2" height="121.3"/>
			
				<rect x="319.5" y="257.5" transform="matrix(0.7093 -0.7049 0.7049 0.7093 -131.2486 318.1458)" class="st4" width="1.2" height="121.3"/>
			
				<rect x="314" y="263" transform="matrix(0.7092 -0.705 0.705 0.7092 -136.7167 315.9288)" class="st4" width="1.2" height="121.3"/>
			
				<rect x="248.6" y="246.1" transform="matrix(0.7092 -0.705 0.705 0.7092 -83.9781 289.8256)" class="st4" width="121.3" height="1.2"/>
			
				<rect x="254.1" y="251.6" transform="matrix(0.7092 -0.705 0.705 0.7092 -86.2712 295.2933)" class="st4" width="121.3" height="1.2"/>
			
				<rect x="259.6" y="257.1" transform="matrix(0.7092 -0.705 0.705 0.7092 -88.5641 300.7606)" class="st4" width="121.3" height="1.2"/>
			
				<rect x="265.1" y="262.7" transform="matrix(0.7092 -0.705 0.705 0.7092 -90.8573 306.2286)" class="st4" width="121.3" height="1.2"/>
			
				<rect x="270.6" y="268.2" transform="matrix(0.7092 -0.705 0.705 0.7092 -93.1504 311.6963)" class="st4" width="121.3" height="1.2"/>
			
				<rect x="276.1" y="273.7" transform="matrix(0.7092 -0.705 0.705 0.7092 -95.4432 317.1639)" class="st4" width="121.3" height="1.2"/>
			
				<rect x="281.5" y="279.2" transform="matrix(0.7092 -0.705 0.705 0.7092 -97.7363 322.6328)" class="st4" width="121.3" height="1.2"/>
			
				<rect x="287" y="284.7" transform="matrix(0.7092 -0.705 0.705 0.7092 -100.0295 328.1001)" class="st4" width="121.3" height="1.2"/>
			
				<rect x="292.5" y="290.2" transform="matrix(0.7092 -0.705 0.705 0.7092 -102.3224 333.5669)" class="st4" width="121.3" height="1.2"/>
			
				<rect x="298" y="295.7" transform="matrix(0.7092 -0.705 0.705 0.7092 -104.6155 339.0357)" class="st4" width="121.3" height="1.2"/>
			
				<rect x="303.5" y="301.3" transform="matrix(0.7092 -0.705 0.705 0.7092 -106.9088 344.503)" class="st4" width="121.3" height="1.2"/>
			
				<rect x="308.9" y="306.8" transform="matrix(0.7092 -0.705 0.705 0.7092 -109.2015 349.971)" class="st4" width="121.3" height="1.2"/>
			
				<rect x="314.4" y="312.3" transform="matrix(0.7092 -0.705 0.705 0.7092 -111.4946 355.4391)" class="st4" width="121.3" height="1.2"/>
			
				<rect x="319.9" y="317.8" transform="matrix(0.7092 -0.705 0.705 0.7092 -113.7879 360.9067)" class="st4" width="121.3" height="1.2"/>
			
				<rect x="325.4" y="323.3" transform="matrix(0.7092 -0.705 0.705 0.7092 -116.0806 366.3744)" class="st4" width="121.3" height="1.2"/>
			
				<rect x="330.9" y="328.8" transform="matrix(0.7092 -0.705 0.705 0.7092 -118.3739 371.8412)" class="st4" width="121.3" height="1.2"/>
			
				<rect x="391.2" y="186.3" transform="matrix(0.7092 -0.705 0.705 0.7092 -60.1663 348.0356)" class="st4" width="1.2" height="121.3"/>
			
				<rect x="308.5" y="268.5" transform="matrix(0.7091 -0.7051 0.7051 0.7091 -142.1853 313.6759)" class="st4" width="1.2" height="121.3"/>
		</g>
		<g>
			
				<rect x="629.1" y="91.7" transform="matrix(0.7091 -0.7051 0.7051 0.7091 75.7433 488.2805)" class="st4" width="1.2" height="121.3"/>
			
				<rect x="623.6" y="97.2" transform="matrix(0.7092 -0.705 0.705 0.7092 70.2164 485.8892)" class="st4" width="1.2" height="121.3"/>
			
				<rect x="618" y="102.6" transform="matrix(0.7092 -0.705 0.705 0.7092 64.778 483.6453)" class="st4" width="1.2" height="121.3"/>
			
				<rect x="612.5" y="108.1" transform="matrix(0.7091 -0.7051 0.7051 0.7091 59.3377 481.4013)" class="st4" width="1.2" height="121.3"/>
			
				<rect x="607" y="113.6" transform="matrix(0.7092 -0.705 0.705 0.7092 53.8418 479.059)" class="st4" width="1.2" height="121.3"/>
			
				<rect x="601.5" y="119.1" transform="matrix(0.7092 -0.705 0.705 0.7092 48.3443 476.7099)" class="st4" width="1.2" height="121.3"/>
			
				<rect x="596" y="124.6" transform="matrix(0.7092 -0.705 0.705 0.7092 42.9065 474.4732)" class="st4" width="1.2" height="121.3"/>
			
				<rect x="590.5" y="130" transform="matrix(0.7092 -0.705 0.705 0.7092 37.4345 472.1726)" class="st4" width="1.2" height="121.3"/>
			
				<rect x="585" y="135.5" transform="matrix(0.7091 -0.7051 0.7051 0.7091 31.9989 469.9434)" class="st4" width="1.2" height="121.3"/>
			
				<rect x="579.4" y="141" transform="matrix(0.7091 -0.7051 0.7051 0.7091 26.5264 467.643)" class="st4" width="1.2" height="121.3"/>
			
				<rect x="573.9" y="146.5" transform="matrix(0.7092 -0.705 0.705 0.7092 21.0153 465.2589)" class="st4" width="1.2" height="121.3"/>
			
				<rect x="568.4" y="152" transform="matrix(0.7092 -0.705 0.705 0.7092 15.5675 463.0081)" class="st4" width="1.2" height="121.3"/>
			
				<rect x="562.9" y="157.4" transform="matrix(0.7092 -0.705 0.705 0.7092 10.0992 460.7146)" class="st4" width="1.2" height="121.3"/>
			
				<rect x="557.4" y="162.9" transform="matrix(0.7091 -0.7051 0.7051 0.7091 4.6521 458.4707)" class="st4" width="1.2" height="121.3"/>
			
				<rect x="492" y="146" transform="matrix(0.7092 -0.705 0.705 0.7092 57.3678 432.3133)" class="st4" width="121.3" height="1.2"/>
			
				<rect x="497.5" y="151.6" transform="matrix(0.7092 -0.705 0.705 0.7092 55.0746 437.7814)" class="st4" width="121.3" height="1.2"/>
			
				<rect x="503" y="157.1" transform="matrix(0.7092 -0.705 0.705 0.7092 52.7818 443.2486)" class="st4" width="121.3" height="1.2"/>
			
				<rect x="508.5" y="162.6" transform="matrix(0.7092 -0.705 0.705 0.7092 50.4888 448.7171)" class="st4" width="121.3" height="1.2"/>
			
				<rect x="514" y="168.1" transform="matrix(0.7092 -0.705 0.705 0.7092 48.1955 454.1847)" class="st4" width="121.3" height="1.2"/>
			
				<rect x="519.4" y="173.6" transform="matrix(0.7092 -0.705 0.705 0.7092 45.9024 459.6515)" class="st4" width="121.3" height="1.2"/>
			
				<rect x="524.9" y="179.1" transform="matrix(0.7092 -0.705 0.705 0.7092 43.6097 465.1205)" class="st4" width="121.3" height="1.2"/>
			
				<rect x="530.4" y="184.6" transform="matrix(0.7092 -0.705 0.705 0.7092 41.3163 470.5881)" class="st4" width="121.3" height="1.2"/>
			
				<rect x="535.9" y="190.1" transform="matrix(0.7092 -0.705 0.705 0.7092 39.0234 476.0553)" class="st4" width="121.3" height="1.2"/>
			
				<rect x="541.4" y="195.7" transform="matrix(0.7092 -0.705 0.705 0.7092 36.7303 481.5234)" class="st4" width="121.3" height="1.2"/>
			
				<rect x="546.8" y="201.2" transform="matrix(0.7092 -0.705 0.705 0.7092 34.4372 486.9915)" class="st4" width="121.3" height="1.2"/>
			
				<rect x="552.3" y="206.7" transform="matrix(0.7092 -0.705 0.705 0.7092 32.1446 492.4591)" class="st4" width="121.3" height="1.2"/>
			
				<rect x="557.8" y="212.2" transform="matrix(0.7092 -0.705 0.705 0.7092 29.8509 497.9262)" class="st4" width="121.3" height="1.2"/>
			
				<rect x="563.3" y="217.7" transform="matrix(0.7092 -0.705 0.705 0.7092 27.558 503.3947)" class="st4" width="121.3" height="1.2"/>
			
				<rect x="568.8" y="223.2" transform="matrix(0.7092 -0.705 0.705 0.7092 25.2654 508.8625)" class="st4" width="121.3" height="1.2"/>
			
				<rect x="574.2" y="228.7" transform="matrix(0.7092 -0.705 0.705 0.7092 22.9722 514.3306)" class="st4" width="121.3" height="1.2"/>
			
				<rect x="634.6" y="86.2" transform="matrix(0.7092 -0.705 0.705 0.7092 81.1816 490.5245)" class="st4" width="1.2" height="121.3"/>
			
				<rect x="551.9" y="168.4" transform="matrix(0.7091 -0.7051 0.7051 0.7091 -0.816 456.1779)" class="st4" width="1.2" height="121.3"/>
		</g>
		<g>
			
				<rect x="503.6" y="138.7" transform="matrix(0.7092 -0.705 0.705 0.7092 6.0639 413.4305)" class="st4" width="1.2" height="121.3"/>
			
				<rect x="498.1" y="144.2" transform="matrix(0.7092 -0.705 0.705 0.7092 0.5958 411.1374)" class="st4" width="1.2" height="121.3"/>
			
				<rect x="492.5" y="149.7" transform="matrix(0.7091 -0.7051 0.7051 0.7091 -4.8539 408.8888)" class="st4" width="1.2" height="121.3"/>
			
				<rect x="487" y="155.1" transform="matrix(0.7092 -0.705 0.705 0.7092 -10.3397 406.5514)" class="st4" width="1.2" height="121.3"/>
			
				<rect x="481.5" y="160.6" transform="matrix(0.7091 -0.7051 0.7051 0.7091 -15.7915 404.3025)" class="st4" width="1.2" height="121.3"/>
			
				<rect x="476" y="166.1" transform="matrix(0.7091 -0.7051 0.7051 0.7091 -21.2615 402.004)" class="st4" width="1.2" height="121.3"/>
			
				<rect x="470.5" y="171.6" transform="matrix(0.7093 -0.7049 0.7049 0.7093 -26.7729 399.584)" class="st4" width="1.2" height="121.3"/>
			
				<rect x="465" y="177.1" transform="matrix(0.7092 -0.705 0.705 0.7092 -32.2113 397.3794)" class="st4" width="1.2" height="121.3"/>
			
				<rect x="459.5" y="182.5" transform="matrix(0.7092 -0.705 0.705 0.7092 -37.677 395.0918)" class="st4" width="1.2" height="121.3"/>
			
				<rect x="454" y="188" transform="matrix(0.7092 -0.705 0.705 0.7092 -43.1468 392.7931)" class="st4" width="1.2" height="121.3"/>
			
				<rect x="448.4" y="193.5" transform="matrix(0.7091 -0.7051 0.7051 0.7091 -48.6028 390.5442)" class="st4" width="1.2" height="121.3"/>
			
				<rect x="442.9" y="199" transform="matrix(0.7093 -0.7049 0.7049 0.7093 -54.105 388.119)" class="st4" width="1.2" height="121.3"/>
			
				<rect x="437.4" y="204.5" transform="matrix(0.7092 -0.705 0.705 0.7092 -59.5609 385.8702)" class="st4" width="1.2" height="121.3"/>
			
				<rect x="431.9" y="209.9" transform="matrix(0.7092 -0.705 0.705 0.7092 -65.0184 383.6207)" class="st4" width="1.2" height="121.3"/>
			
				<rect x="366.5" y="193.1" transform="matrix(0.7092 -0.705 0.705 0.7092 -12.2808 357.5131)" class="st4" width="121.3" height="1.2"/>
			
				<rect x="372" y="198.6" transform="matrix(0.7092 -0.705 0.705 0.7092 -14.574 362.9811)" class="st4" width="121.3" height="1.2"/>
			
				<rect x="377.5" y="204.1" transform="matrix(0.7092 -0.705 0.705 0.7092 -16.8668 368.4483)" class="st4" width="121.3" height="1.2"/>
			
				<rect x="383" y="209.6" transform="matrix(0.7092 -0.705 0.705 0.7092 -19.16 373.9164)" class="st4" width="121.3" height="1.2"/>
			
				<rect x="388.5" y="215.1" transform="matrix(0.7092 -0.705 0.705 0.7092 -21.453 379.3848)" class="st4" width="121.3" height="1.2"/>
			
				<rect x="393.9" y="220.6" transform="matrix(0.7092 -0.705 0.705 0.7092 -23.7461 384.8513)" class="st4" width="121.3" height="1.2"/>
			
				<rect x="399.4" y="226.1" transform="matrix(0.7092 -0.705 0.705 0.7092 -26.0391 390.3198)" class="st4" width="121.3" height="1.2"/>
			
				<rect x="404.9" y="231.7" transform="matrix(0.7092 -0.705 0.705 0.7092 -28.3323 395.7878)" class="st4" width="121.3" height="1.2"/>
			
				<rect x="410.4" y="237.2" transform="matrix(0.7092 -0.705 0.705 0.7092 -30.6249 401.2554)" class="st4" width="121.3" height="1.2"/>
			
				<rect x="415.9" y="242.7" transform="matrix(0.7092 -0.705 0.705 0.7092 -32.9181 406.7235)" class="st4" width="121.3" height="1.2"/>
			
				<rect x="421.4" y="248.2" transform="matrix(0.7092 -0.705 0.705 0.7092 -35.2114 412.1912)" class="st4" width="121.3" height="1.2"/>
			
				<rect x="426.8" y="253.7" transform="matrix(0.7092 -0.705 0.705 0.7092 -37.5042 417.6584)" class="st4" width="121.3" height="1.2"/>
			
				<rect x="432.3" y="259.2" transform="matrix(0.7092 -0.705 0.705 0.7092 -39.7975 423.126)" class="st4" width="121.3" height="1.2"/>
			
				<rect x="437.8" y="264.7" transform="matrix(0.7092 -0.705 0.705 0.7092 -42.0905 428.5945)" class="st4" width="121.3" height="1.2"/>
			
				<rect x="443.3" y="270.2" transform="matrix(0.7092 -0.705 0.705 0.7092 -44.3834 434.0618)" class="st4" width="121.3" height="1.2"/>
			
				<rect x="448.8" y="275.8" transform="matrix(0.7092 -0.705 0.705 0.7092 -46.6766 439.5298)" class="st4" width="121.3" height="1.2"/>
			
				<rect x="509.1" y="133.2" transform="matrix(0.7092 -0.705 0.705 0.7092 11.532 415.7238)" class="st4" width="1.2" height="121.3"/>
			
				<rect x="426.4" y="215.4" transform="matrix(0.7092 -0.705 0.705 0.7092 -70.4857 381.3279)" class="st4" width="1.2" height="121.3"/>
		</g>
	</g>
</g>
<g>
	<g>
		
			<rect x="95.8" y="165.7" transform="matrix(-1 -1.224647e-16 1.224647e-16 -1 474.2259 543.4767)" class="st5" width="282.7" height="212.1"/>
		
			<rect x="106.2" y="173.5" transform="matrix(-1 -1.224647e-16 1.224647e-16 -1 474.2259 543.4767)" class="st6" width="261.9" height="196.5"/>
	</g>
	<path class="st7" d="M378.4,377.8c0,0-28.1,2.3-48.8-42c-20.7-44.3-42.9-56.3-68.8-56c-25.9,0.4-37.1,33.1-58.9,40.1
		c-46,14.9-69.2-0.4-106.2-28.1v-78h282.7V377.8z"/>
	<g>
		
			<rect x="119.3" y="200.4" transform="matrix(-1 -1.224647e-16 1.224647e-16 -1 299.2036 407.6106)" class="st8" width="60.6" height="6.7"/>
		
			<rect x="119.3" y="210.5" transform="matrix(-1 -1.224647e-16 1.224647e-16 -1 299.2036 427.785)" class="st8" width="60.6" height="6.7"/>
		
			<rect x="119.3" y="220.6" transform="matrix(-1 -1.224647e-16 1.224647e-16 -1 299.2036 447.9594)" class="st8" width="60.6" height="6.7"/>
		
			<rect x="158" y="230.7" transform="matrix(-1 -1.224647e-16 1.224647e-16 -1 337.9151 483.3145)" class="st8" width="21.9" height="21.9"/>
		
			<rect x="191.9" y="200.4" transform="matrix(-1 -1.224647e-16 1.224647e-16 -1 444.4565 407.6106)" class="st8" width="60.6" height="6.7"/>
		
			<rect x="191.9" y="210.5" transform="matrix(-1 -1.224647e-16 1.224647e-16 -1 444.4565 427.785)" class="st8" width="60.6" height="6.7"/>
		
			<rect x="191.9" y="220.6" transform="matrix(-1 -1.224647e-16 1.224647e-16 -1 444.4565 447.9594)" class="st8" width="60.6" height="6.7"/>
		
			<rect x="230.6" y="230.7" transform="matrix(-1 -1.224647e-16 1.224647e-16 -1 483.168 483.3145)" class="st8" width="21.9" height="21.9"/>
		
			<rect x="264.5" y="200.4" transform="matrix(-1 -1.224647e-16 1.224647e-16 -1 589.7093 407.6106)" class="st8" width="60.6" height="6.7"/>
		
			<rect x="264.5" y="210.5" transform="matrix(-1 -1.224647e-16 1.224647e-16 -1 589.7093 427.785)" class="st8" width="60.6" height="6.7"/>
		
			<rect x="264.5" y="220.6" transform="matrix(-1 -1.224647e-16 1.224647e-16 -1 589.7093 447.9594)" class="st8" width="60.6" height="6.7"/>
		
			<rect x="303.3" y="230.7" transform="matrix(-1 -1.224647e-16 1.224647e-16 -1 628.4207 483.3145)" class="st8" width="21.9" height="21.9"/>
		<g>
			
				<rect x="235.1" y="271.7" transform="matrix(-1 -1.224647e-16 1.224647e-16 -1 490.0827 549.7858)" class="st8" width="19.8" height="6.3"/>
			
				<rect x="235.1" y="281.2" transform="matrix(-1 -1.224647e-16 1.224647e-16 -1 490.0827 568.7107)" class="st8" width="19.8" height="6.3"/>
			
				<rect x="235.1" y="290.7" transform="matrix(-1 -1.224647e-16 1.224647e-16 -1 490.0827 587.6354)" class="st8" width="19.8" height="6.3"/>
			
				<rect x="235.1" y="300.1" transform="matrix(-1 -1.224647e-16 1.224647e-16 -1 490.0827 606.5603)" class="st8" width="19.8" height="6.3"/>
			
				<rect x="235.1" y="309.6" transform="matrix(-1 -1.224647e-16 1.224647e-16 -1 490.0827 625.485)" class="st8" width="19.8" height="6.3"/>
			
				<rect x="235.1" y="319.1" transform="matrix(-1 -1.224647e-16 1.224647e-16 -1 490.0827 644.4099)" class="st8" width="19.8" height="6.3"/>
			
				<rect x="235.1" y="328.5" transform="matrix(-1 -1.224647e-16 1.224647e-16 -1 490.0827 663.3348)" class="st8" width="19.8" height="6.3"/>
			
				<rect x="235.1" y="338" transform="matrix(-1 -1.224647e-16 1.224647e-16 -1 490.0827 682.2596)" class="st8" width="19.8" height="6.3"/>
			
				<rect x="235.1" y="347.4" transform="matrix(-1 -1.224647e-16 1.224647e-16 -1 490.0827 701.1845)" class="st8" width="19.8" height="6.3"/>
			
				<rect x="235.1" y="356.9" transform="matrix(-1 -1.224647e-16 1.224647e-16 -1 490.0827 720.1093)" class="st8" width="19.8" height="6.3"/>
		</g>
	</g>
</g>
<g>
	<g>
		
			<rect x="358.6" y="530.3" transform="matrix(-1 -1.224647e-16 1.224647e-16 -1 764.4274 1068.5461)" class="st6" width="47.2" height="8"/>
		<polygon class="st9" points="361.5,537.5 402.9,537.5 397.3,565 367.1,565 		"/>
	</g>
	<path class="st9" d="M399.2,552.7c0,0-6-2.6-7.3-8.4c-1.3-5.8,1.5-10,1.5-10s-3.2-2.7-4.7-2c-1.5,0.7-6.7-0.1-6.7-0.1
		s-0.9,2.8-4,2.1c-3.2-0.7-6.8,0-6.8,0s0.3,14.5-3.5,15.4c-3.8,0.9-7.2-13.7-7.2-13.7l2.8-8.9l16.7-3.9l19.2,4l3.8,10.4L399.2,552.7
		z"/>
	<g>
		<path class="st6" d="M397.3,494.7c-0.7-1.9-1.6-3.7-2.1-5.7c-1.4-5.2-0.1-11-2.4-15.9c-1.1-2.3-3.3-4.3-5.8-3.9
			c-2,0.4-3.4,2.3-4.2,4.2c-1.5,3.5-1.9,7.5-1.1,11.2c0.9,4.3,3.2,8.3,3.3,12.6c0,2.7-0.8,5.2-1.5,7.8c-1.8,6.6-2.7,13.4-2.7,20.3
			c0,4.4,3.1,7.2,7.1,4.9c3.2-1.9,6.2-7.1,7.9-10.4C399.6,512.3,400.4,502.8,397.3,494.7z"/>
		<path class="st9" d="M383.1,506.2c0.1-0.3,0.1-0.6,0.2-0.9c0.1,0,0.3,0,0.4,0.1c2,1.6,3.9,3.2,5.9,4.9c0.1-0.6,0.2-1.3,0.3-1.9
			c-1.1-0.6-2.2-1.2-3.2-1.9c-1-0.7-2-1.6-3.1-2.1c0.1-0.3,0.2-0.6,0.3-1c1.1,0.5,1.9,1.3,2.9,2c1.1,0.7,2.2,1.3,3.3,1.9
			c0.4-2.8,0.6-5.6,0.5-8.5c0-2.2-0.3-4.3-0.7-6.4c-0.1,0-0.1,0-0.2-0.1c-2.1-1.3-4.4-2.3-6.7-3.1c-0.1-0.4-0.3-0.8-0.4-1.2
			c0,0,0,0,0,0c2.5,0.8,4.8,1.8,7.1,3.1c-0.1-0.5-0.2-1.1-0.4-1.6c-0.1,0-0.1,0-0.2-0.1c-2-1.5-4.3-2.3-6.8-2.4
			c-0.1-0.3-0.2-0.7-0.3-1c0,0,0.1,0,0.1,0c2.5,0,4.8,0.7,6.9,2.1c-0.2-0.9-0.4-1.7-0.7-2.6c-0.7-2.9-1.2-5.7-0.8-8.5
			c0,0-0.1,0-0.1-0.1c-1.3-1.6-2.9-2.6-4.8-3.2c0-0.1,0.1-0.2,0.1-0.2c0.1-0.2,0.2-0.4,0.3-0.7c1.8,0.6,3.4,1.6,4.7,3
			c0.1-0.5,0.3-0.9,0.4-1.4c0.2-0.6,1.2-0.3,1,0.3c-0.8,2.1-0.9,4.2-0.7,6.3c1.8-1,3.7-1.9,5.6-2.7c0,0.3,0.1,0.7,0.1,1
			c-1.9,0.8-3.8,1.6-5.5,2.7c0.1,0.4,0.1,0.8,0.2,1.3c1.7-1.1,3.5-2.1,5.4-3c0,0.4,0,0.7,0.1,1.1c-1.8,0.9-3.5,1.9-5.2,2.9
			c0.3,1.5,0.8,2.9,1.1,4.4c0.9,3.3,1.3,6.7,1.4,10.1c1-0.5,1.9-1.3,2.7-2.1c0.9-0.8,1.9-1.7,2.8-2.5c0.1,0.1,0.1,0.3,0.2,0.4
			c0.1,0.2,0.1,0.4,0.2,0.6c-1.8,1.7-3.6,3.7-5.9,4.7c0,0.2,0,0.5,0,0.7c0,0.2,0,0.3,0,0.5c2.3-1.5,4.3-3.3,6.1-5.3
			c0.1,0.4,0.2,0.7,0.3,1.1c-1.9,2-4,3.8-6.4,5.4c0,0-0.1,0-0.1,0c-0.1,1.8-0.3,3.7-0.6,5.5c0.1,0.1,0,0.3-0.1,0.4
			c-0.4,2.4-0.9,4.8-1.5,7.2c3.2-1.6,6.3-3.4,9.3-5.5c-0.1,0.5-0.2,0.9-0.2,1.4c-3,2-6.1,3.8-9.3,5.4c-0.1,0.5-0.3,1-0.4,1.6
			c2.6-0.6,5-1.6,7.3-3c0,0,0-0.1,0.1-0.1c0.6-0.6,1.2-1.2,1.9-1.7c-0.2,0.6-0.4,1.3-0.6,1.9c-0.1,0.1-0.1,0.1-0.2,0.2
			c0,0.1-0.1,0.3-0.2,0.4c-2.7,1.6-5.5,2.8-8.6,3.5c-0.6,2.2-1.3,4.3-2,6.5c0,0.1,0,0.2,0,0.3c-0.5,1.5-1.2,2.9-2,4.3
			c-0.3,0.5-1.2,0-0.9-0.5c0.7-1.1,1.3-2.3,1.7-3.5c0-0.1,0-0.1,0-0.2c1.6-4.9,3.1-9.9,4.1-15c0,0-0.1,0-0.1-0.1
			C387.3,509.7,385.2,508,383.1,506.2z"/>
	</g>
	<g>
		<path class="st6" d="M366,516c0-2,0.3-4-0.1-5.9c-0.5-2.8-2-5.2-3.4-7.7c-3.4-6.2-5.5-13.8-2.8-20.3c1.4-3.4,5.3-6.5,8.5-4.8
			c3.1,1.6,3.1,5.9,3.5,9.4c0.4,3.3,1.5,6.5,3.2,9.3c1.6,2.6,3.8,4.8,4.8,7.7c0.6,1.6,0.8,3.3,1.1,4.9c0.7,3.3,2,6.5,2.8,9.7
			c1.3,5.3,0,15.8-7.8,14.6C368.7,531.8,365.9,522,366,516z"/>
		<path class="st9" d="M366.1,498.2c-0.8-3.6-1.3-7.3-1.1-11c-1.6-1.6-3.4-3-5.4-4.2c0,0,0,0,0,0c0.1-0.3,0.2-0.6,0.3-0.9
			c0.1,0,0.1,0,0.2,0.1c1.8,1.1,3.5,2.3,5,3.7c0-0.4,0-0.8,0.1-1.2c-1.3-1.5-2.8-2.9-4.4-4.1c0.2-0.3,0.4-0.5,0.6-0.8
			c1.4,1.1,2.8,2.3,4,3.6c0.1-0.5,0.2-1,0.3-1.5c0.1-0.6,1.1-0.4,1,0.3c-0.1,0.7-0.2,1.5-0.3,2.2c0.1,0.2,0.1,0.4-0.1,0.5
			c-0.2,1.9-0.2,3.9-0.1,5.8c2.1-0.6,4.1-1.5,6.1-2.5c0.1,0.3,0.1,0.7,0.2,1c-2,1-4,1.9-6.1,2.5c0,0-0.1,0-0.1,0
			c0,0.2,0,0.4,0.1,0.6c2.2-0.5,4.5-0.5,6.6-1.5c0.1,0.3,0.2,0.6,0.3,1c-2.1,1-4.5,1-6.8,1.6c0.5,4,1.6,7.9,3,11.7
			c3.2-1.2,5.4-4.1,7.6-6.5c0.2,0.3,0.4,0.6,0.6,0.8c-2.3,2.5-4.5,5.3-7.8,6.6c0.2,0.5,0.4,1,0.6,1.4c3.2-1.1,6.5-3.4,8.3-6.4
			c0.2,0.3,0.4,0.7,0.6,1c-1.9,2.9-5.2,5.2-8.5,6.3c0,0.1,0.1,0.2,0.1,0.2c1.3,2.9,2.8,5.6,4.4,8.3c2.4-1.4,4.5-3.2,6.2-5.5
			c0.1-0.1,0.2-0.2,0.3-0.2c0.1,0.3,0.2,0.7,0.3,1c-1.8,2.2-3.9,4-6.3,5.5c0.3,0.4,0.5,0.9,0.8,1.3c0,0,0.1,0,0.2,0
			c1.5,0.1,2.6-0.9,3.5-2c0.8-0.9,1.7-1.8,2.5-2.8c0.1,0.4,0.2,0.8,0.4,1.1c-1.6,1.9-3.4,4.5-6,4.6c1.7,2.9,3.1,5.7,3.5,9.1
			c0.1,0.6-0.9,0.6-1,0c-0.6-4.8-3.5-8.7-5.8-12.8c-0.1-0.1-0.1-0.3-0.2-0.4c-2.4,0.7-4.9,0.6-7.2-0.3c0,0-0.1,0-0.1-0.1
			c0-0.3,0-0.6,0-0.9c0.1,0,0.2,0,0.3,0c2.1,0.9,4.2,1,6.4,0.4c-0.2-0.4-0.5-0.8-0.7-1.3c-2.1,0-4-0.3-6-0.9c0-0.4,0-0.7,0-1.1
			c1.8,0.6,3.6,0.9,5.5,1c-1.2-2.3-2.3-4.7-3.3-7.1c-0.5-1.3-0.9-2.6-1.3-3.9c-1.1,0.1-2-0.3-3-0.7c-0.9-0.3-1.8-0.7-2.7-1
			c-0.2-0.4-0.4-0.9-0.6-1.3c1,0.4,2,0.8,3,1.2c1,0.4,1.9,0.8,2.9,0.9c-0.1-0.5-0.3-0.9-0.4-1.4c-1.8-0.4-4.2-0.6-5.9-1.7
			c-0.2-0.6-0.4-1.2-0.6-1.8c0.1,0,0.2,0.1,0.2,0.1C361.3,497.5,364,497.8,366.1,498.2z"/>
	</g>
	<g>
		<path class="st6" d="M400.8,520.1c5.9-0.8,12.5,1.9,15.3,7.1c1.6,3,2.2,6.8,5,8.7c2,1.4,5,1.5,6.4,3.6c1.6,2.2,0.4,5.3,0.9,7.9
			c0.8,4.3,5.7,6.9,6.5,11.2c0.7,3.7-2.5,7.5-6.3,7.8c-3.7,0.3-7.4-2.6-8.3-6.2c-0.4-1.4-0.4-2.9-1-4.2c-1.5-3-5.5-3.5-8.5-5.1
			c-3.2-1.7-5.3-5.2-5.6-8.8c-0.1-1.2,0-2.4-0.5-3.4c-1.2-2.3-4.5-2.2-6.7-3.6c-1.9-1.3-2.9-3.9-5.2-4.6c-2.2-0.7-4.9,1.6-5.6-1.5
			C386.3,524.4,397.7,520.5,400.8,520.1z"/>
		<path class="st9" d="M399.1,520.5c0.5,1.8,0.9,3.6,1.1,5.4c0.3,0,0.5-0.1,0.8-0.1c0.2-1.9,0.3-3.8,0.2-5.7c0.3,0,0.7-0.1,1-0.1
			c0.1,1.9,0,3.8-0.2,5.8c1.2,0,2.4,0.2,3.5,0.7c0.6,0.2,1.1,0.5,1.6,0.7c0.8-2,1.5-3.9,2.2-5.9c0.3,0.1,0.6,0.3,0.9,0.4
			c-0.7,2-1.4,4-2.2,6c0,0,0,0.1-0.1,0.1c0.3,0.2,0.6,0.5,0.9,0.7c1-1.9,2-3.7,2.8-5.7c0-0.1,0.1-0.1,0.1-0.2
			c0.3,0.2,0.5,0.3,0.8,0.5c0,0.1,0,0.1,0,0.2c-0.9,2-1.9,4-2.9,5.9c0.9,1,1.7,2.2,2.3,3.4c0.2,0.1,0.3,0.3,0.3,0.6
			c0.3,0.8,0.6,1.5,0.8,2.3c0.6,2.1,1.1,4.3,2.3,6.1c1-0.8,2.1-1.7,3.1-2.5c0.3-0.3,3.5-2.6,3.4-2.9c0,0,0,0,0-0.1
			c0.3,0.2,0.6,0.3,0.9,0.5c-0.4,0.9-1.9,1.7-2.4,2.2c-1.5,1.2-2.9,2.4-4.4,3.6c0.2,0.2,0.3,0.4,0.5,0.5c0,0,0.1,0.1,0.1,0.1
			c2.7-1.2,4.9-3.9,7.1-5.8c0.1-0.1,0.3-0.1,0.4-0.1l0,0c0.3,0.1,0.7,0.3,1,0.4c-0.3,0.3-0.5,0.6-0.8,1c-0.2,0.2-0.4,0.2-0.5,0.1
			c-1.9,1.8-3.9,4-6.2,5.2c1.6,1.1,3.4,1.8,4.8,3.2c1.1,1.1,1.7,2.5,2.1,3.9c1.9-0.3,3.8-0.4,5.7-0.2c0.2,0.4,0.5,0.7,0.8,1
			c0,0,0,0-0.1,0c-2-0.2-4.1-0.1-6.1,0.2c0.1,0.2,0.1,0.4,0.2,0.6c0.1-0.1,0.2-0.2,0.4-0.2c2.1-0.1,4.3-0.4,6.3,0.2
			c0.2,0.2,0.4,0.5,0.6,0.7c-0.1,0.2-0.3,0.4-0.6,0.3c-2-0.8-4.3-0.4-6.4-0.3c0,0,0,0,0,0c0.3,0.8,0.7,1.6,1.1,2.3
			c0.2,0.1,0.3,0.3,0.3,0.5c1,1.6,2.3,3.1,3.8,4.3c0.5,0.4-0.2,1.1-0.7,0.7c-0.8-0.7-1.5-1.3-2.1-2.1c-0.7,2.2-1,4.4-1.4,6.7
			c0,0.1-0.1,0.2-0.2,0.3c-0.3-0.1-0.5-0.2-0.8-0.3c0-0.1,0-0.1,0-0.2c0.5-2.4,0.8-4.9,1.6-7.3c0,0,0,0,0-0.1
			c-0.2-0.3-0.4-0.5-0.5-0.8c-0.7,2.5-2,4.9-2.1,7.6c0,0.1,0,0.1-0.1,0.2c-0.3-0.2-0.6-0.4-0.9-0.7c0.3-2.9,1.7-5.5,2.3-8.3
			c-0.9-1.6-1.6-3.3-2.2-5.2c-0.6-1.7-1.5-2.8-2.6-3.8c-1,2.3-2,4.6-2.9,6.9c-0.3-0.2-0.6-0.4-0.8-0.6c0.9-2.3,1.9-4.7,2.9-7
			c-0.2-0.2-0.5-0.3-0.7-0.5c-1,2.3-2,4.7-3.1,7c-0.3-0.1-0.6-0.3-0.9-0.4l3.1-7.1c-0.1,0-0.1-0.1-0.2-0.1c-1.5-0.9-2.9-1.9-3.8-3.4
			c-1.4-2.3-1.8-5-2.7-7.6c-0.8,1.4-1.8,2.7-2.9,3.9c-0.5,0.5-1.2-0.3-0.7-0.7c1.3-1.3,2.4-2.8,3.2-4.4c-0.1-0.3-0.2-0.5-0.3-0.7
			c-1,1.5-2,2.9-2.9,4.4c-0.4,0.5-1.2,0-0.9-0.5c1.1-1.6,2.2-3.2,3.2-4.9c-0.2-0.3-0.4-0.6-0.7-0.9c-0.3-0.3-0.6-0.6-0.9-0.9
			c0,0,0,0,0,0c-3.3-3.1-8.1-3.5-12-1.4c0,1.8-0.1,3.5-0.3,5.3c-0.3-0.4-0.6-0.7-0.9-1.1c0.1-1.2,0.1-2.4,0.2-3.6
			c-0.3,0.2-0.7,0.5-1,0.8c0,0,0,0.1-0.1,0.1c-0.3,0.4-0.6,0.8-1,1.1c-0.2-0.1-0.4-0.2-0.7-0.3c-0.1,0-0.2-0.1-0.3-0.1
			c0.4-0.4,0.8-0.9,1.1-1.3c0-0.1,0.1-0.2,0.1-0.2c1.5-1.4,3.4-2.3,5.3-2.8c-0.3-1.8-0.6-3.6-1.1-5.3
			C398.4,520.6,398.8,520.6,399.1,520.5z"/>
	</g>
	<g>
		<path class="st6" d="M367.1,518.8c-5.3-1.9-12.2,0.4-14.3,5.7c-0.7,1.6-0.9,3.5-2,4.9c-2.2,2.7-6.7,2.3-9.1,4.9
			c-3.3,3.7,0.4,9.7-1.4,14.3c-0.5,1.4-1.6,2.5-2.4,3.7c-1.7,2.4-2.7,5.3-2.4,8.2c0.3,2.9,2.1,5.7,4.8,6.7c2.7,1,6.2-0.2,7.4-2.8
			c1.4-3.2-0.5-7.6,2.1-9.9c1.4-1.3,3.5-1.3,5.2-2.1c3.7-1.7,4.4-6.5,5.4-10.5c0.4-1.5,0.9-3.1,1.9-4.3c0.7-0.8,1.6-1.5,2.5-2.1
			c2.2-1.5,4.5-3.1,7-3.9c2.8-0.8,5.2,0.6,5.2-2.3C377.2,525.1,370.5,520,367.1,518.8z"/>
		<path class="st9" d="M337.9,552.2c0.1-0.1,0.2-0.3,0.3-0.4c1.8,0.2,3.5,0.6,5.2,1.1c0.3-0.5,0.5-1,0.8-1.5
			c-1.7-0.4-3.4-0.6-5.1-0.7c0.2-0.3,0.4-0.6,0.6-1c1.6,0.1,3.3,0.4,4.9,0.8c0.6-1.4,1-2.9,1-4.7c-0.1-2.4-0.5-5,1-7.1
			c0-0.1,0.1-0.1,0.1-0.2c-1.9-1.1-3.8-2.2-5.7-3.3c0.2-0.3,0.3-0.6,0.6-0.8c1.9,1.1,3.9,2.3,5.8,3.4c0.4-0.3,0.9-0.5,1.3-0.7
			c-2.1-1.1-4.2-2.3-6.2-3.6c0.3-0.2,0.6-0.4,1-0.6c2.1,1.3,4.3,2.6,6.5,3.7c1-0.3,2.1-0.6,3-1.2c0.8-0.6,1.4-1.3,2-2.1
			c-2-0.9-4-1.7-6.1-2.5c0.4-0.2,0.7-0.4,1-0.7c1.9,0.8,3.7,1.5,5.6,2.3c0.2-0.3,0.4-0.7,0.6-1c-1.9-0.5-3.8-1.1-5.6-1.8
			c0.1-0.1,0.2-0.2,0.3-0.3c0.1-0.2,0.3-0.4,0.4-0.6c1.8,0.6,3.5,1.2,5.3,1.7c0,0,0.1,0,0.1,0.1c1.1-2.2,2.3-4.3,4.8-5.3
			c1.9-0.8,3.9-0.9,5.8-0.4c-0.8-2.3-1.8-4.4-2.9-6.5c0.4,0,0.8,0.1,1.2,0.2c1.1,2.1,2.1,4.4,2.9,6.7c0,0,0,0,0,0.1
			c0.9,0.4,1.7,0.8,2.4,1.5c-0.7-2.4-1.5-4.8-2.3-7.2c0.4,0.2,0.9,0.5,1.3,0.8c0.8,2.3,1.5,4.7,2.2,7c0.1,0.2,0,0.3-0.1,0.5
			c0.7,0.5,1.3,1.2,1.8,1.9c0.4,0.5-0.3,1.2-0.7,0.7c-0.4-0.6-0.9-1.1-1.5-1.5c-0.1,0-0.2-0.1-0.3-0.2c-2-2.6-5.5-3.6-8.6-2.8
			c-0.1,2.6-0.4,5.1-0.9,7.6c-0.1,0.6-1.1,0.4-1-0.3c0.5-2.3,0.8-4.6,0.9-7c-0.6,0.3-1.2,0.7-1.8,1.2c0,0.1,0,0.1,0,0.2
			c0.1,2.3,0.1,4.7,0.2,7c0,0.6-1,0.6-1,0c0-2.1-0.1-4.2-0.1-6.2c-2,2.5-2.7,6-5.3,7.9c-1.5,1.1-3.5,1.1-5.1,2.1
			c-0.1,0.1-0.3,0.2-0.4,0.3c0,0.2-0.2,0.5-0.5,0.5c-1.2,1.3-1.3,3-1.2,4.7c0,0,0.1,0,0.1,0c1.2,0.7,2.3,1.5,3.3,2.4
			c0.5,0.4-0.2,1.1-0.7,0.7c-0.8-0.7-1.7-1.3-2.6-1.9c0,0.4,0,0.8,0,1.3c0.9,0.3,1.7,0.8,2.4,1.6c0.4,0.5-0.3,1.2-0.7,0.7
			c-0.5-0.6-1-1-1.7-1.2c-0.1,1.7-0.6,3.1-1.4,4.6c-1.4,2.8-3.7,5.8-2.2,9.1c0.3,0.6-0.6,1.1-0.9,0.5c-0.9-2.1-0.7-4.2,0.2-6.2
			c0.2-0.5,0.4-1,0.7-1.4c-1.7-0.6-3.5-1-5.3-1.1C337.7,552.6,337.8,552.4,337.9,552.2z"/>
	</g>
	<g>
		<path class="st6" d="M359.1,534.8c-1.5,1.7-1.8,4.1-3.3,5.8c-1.2,1.4-3.1,2-4.5,3.2c-2.4,2.1-2.9,5.5-3,8.7c0,1.5,0.1,3,0.7,4.3
			c1,2.2,3.5,3.5,5.9,3.9c1.9,0.3,4.1,0.1,5.5-1.2c2.2-2.1,2-5.9,4.3-7.8c0.9-0.8,2.2-1.1,3-2c0.8-1,0.8-2.5,0.7-3.8
			c-0.1-2.7,0.7-8.4-0.7-10.8C366,532.2,361.2,532.5,359.1,534.8z"/>
		<path class="st9" d="M351.3,543.8c2.1,1.1,4.3,2,6.5,2.8c0.2-0.3,0.4-0.5,0.6-0.9c0.1-0.3,0.3-0.5,0.4-0.8c-1.9-0.4-3.8-1-5.5-1.9
			c-0.2-0.1-0.3-0.3-0.2-0.4c0.3-0.2,0.5-0.3,0.8-0.5c1.7,0.8,3.4,1.4,5.3,1.8c0.1-0.5,0.2-1.1,0.4-1.6c1-3.3,3-6,5.7-8.1
			c0.5-0.4,1,0.5,0.5,0.9c-1.2,0.9-2.2,2-3,3.1c0,0,0,0,0.1,0.1c1.4,2.2,3.4,3.8,5.8,4.7c0,0.4,0,0.7,0,1.1
			c-2.6-0.9-4.8-2.6-6.4-4.9c-0.2,0.4-0.4,0.8-0.6,1.2c2.1,2.1,4.3,4.1,7,5.1c0,0.1,0,0.2,0,0.3c0,0.3,0,0.5,0,0.8
			c-3-0.9-5.3-3-7.5-5.2c-0.4,0.9-0.7,1.9-1,2.9c-0.3,1.2-0.9,2.1-1.5,3c0,0.2-0.1,0.4-0.3,0.5c-0.3,0.5-0.7,0.9-1,1.4
			c1.8,1.8,3.9,3.3,6.2,4.3c-0.1,0.3-0.3,0.6-0.4,0.9c-2.4-1.1-4.5-2.5-6.3-4.4c-0.5,0.8-0.8,1.7-0.9,2.7c-0.1,0.6-1.1,0.6-1,0
			c0.2-1.5,0.6-2.9,1.5-4.1c0.3-0.4,0.6-0.8,1-1.1c-2.2-0.8-4.4-1.8-6.5-2.8C350.8,544.3,351,544,351.3,543.8z"/>
	</g>
	<g>
		<path class="st6" d="M411.7,546.7c-0.1,0.7-0.3,1.4-0.1,2.1c0.2,1,1,1.8,1.6,2.7c1.6,2.6,0.9,6.4-1.5,8.2
			c-2.4,1.8-6.3,1.5-8.3-0.8c-1.4-1.6-2-3.8-3.3-5.4c-1.5-1.8-3.9-2.8-5.2-4.7c-0.6-0.9-0.9-2-1.1-3.1c-0.7-3.5,0-7.6,2.6-10
			C404.1,528.3,412.9,538.7,411.7,546.7z"/>
		<path class="st9" d="M401.5,540c-1.5,3.6-3.3,6.9-5.7,10c-0.3-0.2-0.5-0.5-0.7-0.7c2.4-3.2,4.3-6.6,5.7-10.2
			c-0.7-0.9-1.5-1.7-2.4-2.4c-0.1-0.1-0.1-0.1-0.1-0.2c-0.5-0.4-0.9-0.8-1.4-1.2c0,0-0.1-0.1-0.1-0.1c0.3-0.2,0.5-0.4,0.8-0.6
			c0,0,0,0,0,0c0.6,0.5,1.2,1,1.8,1.5c0.1,0.1,0.1,0.2,0.1,0.2c2,1.8,3.5,3.9,4.5,6.4c2.4-0.5,4.8-0.7,7.3-0.6
			c0.1,0.3,0.2,0.7,0.2,1c-2.4,0-4.8,0.1-7.1,0.6c0.2,0.6,0.4,1.1,0.5,1.7c0.1,0,0.1-0.1,0.2-0.1c2.2-0.4,4.4-0.6,6.6-0.6
			c0,0.3,0,0.7,0,1c-2.1,0-4.2,0.2-6.3,0.6c-0.1,0-0.2,0-0.3,0c0.1,0.6,0.3,1.3,0.4,1.9c0,0,0,0.1,0,0.1c0.4,1.9,1,3.7,2,5.2
			c0.4,0.5-0.5,1-0.9,0.5c-0.4-0.5-0.7-1.1-0.9-1.7c-0.6,2.3-1.5,4.5-2.6,6.6c0,0,0,0,0,0c0,0,0,0,0,0c-0.2-0.3-0.5-0.6-0.7-0.9
			c1.1-2.2,2-4.5,2.5-6.9c0-0.1,0.1-0.2,0.2-0.3c-0.1-0.4-0.2-0.9-0.3-1.3c-1.3,2.2-2.4,4.4-3.5,6.6c-0.2-0.4-0.4-0.7-0.6-1.1
			c1.1-2.4,2.3-4.7,3.7-7c-0.2-0.9-0.4-1.7-0.6-2.5C403.5,543.6,402.6,541.7,401.5,540z"/>
	</g>
</g>
<g>
	<g>
		<polygon class="st10" points="227.3,554.5 218.4,554.5 235.6,514.3 245.3,514.3 		"/>
		<polygon class="st11" points="227.3,554.5 302,554.5 319.3,514.3 245.3,514.3 		"/>
		<path class="st12" d="M353.3,554.5H218.4l0,0c0,5.6,4.6,10.2,10.2,10.2h124.6c2.8,0,5.1-2.3,5.1-5.1l0,0
			C358.4,556.7,356.1,554.5,353.3,554.5z"/>
	</g>
	<g>
		<path class="st11" d="M430.9,514.3h-275c-7.3,0-13.3-5.9-13.3-13.3V272.7c0-7.3,5.9-13.3,13.3-13.3h275c7.3,0,13.3,5.9,13.3,13.3
			V501C444.2,508.3,438.2,514.3,430.9,514.3z"/>
		<path class="st12" d="M445.4,514.3h-275c-7.3,0-13.3-5.9-13.3-13.3V272.7c0-7.3,5.9-13.3,13.3-13.3h275c7.3,0,13.3,5.9,13.3,13.3
			V501C458.7,508.3,452.8,514.3,445.4,514.3z"/>
		<rect x="161.9" y="286.7" class="st13" width="292.2" height="202.4"/>
		<linearGradient id="SVGID_3_" gradientUnits="userSpaceOnUse" x1="307.9575" y1="293.6261" x2="307.9575" y2="484.1687">
			<stop  offset="0" style="stop-color:#FFFFFF"/>
			<stop  offset="1" style="stop-color:#FFFFFF;stop-opacity:0"/>
		</linearGradient>
		<rect x="168.6" y="291.3" class="st14" width="278.8" height="193.2"/>
		<path class="st15" d="M316.8,291.3c0,0-16,11.7-5.4,49.9c10.6,38.2-19.9,60.2-47.3,75.1c-27.4,14.9-47,73.1-47,73.1h154.5
			c0,0-2.3-25.9,28.5-42.2c30.8-16.3,24.4-59.2,12.9-81.4c-11.4-22.2,15-75.5,15-75.5L316.8,291.3z"/>
		<path class="st16" d="M390.5,294.7c0,28,22.7,50.7,50.7,50.7c4.4,0,8.8-0.6,12.9-1.7v-57.1h-62.9
			C390.7,289.3,390.5,292,390.5,294.7z"/>
		<path class="st17" d="M312.9,509.3c-3.6,0-7.1-1.3-9.8-3.7c-1.6-1.4-4-1.5-5.8-0.3l-1.8,1.3c-2.3,1.7-5.5,1.2-7.2-1.1
			c-0.8-1.1-1.1-2.5-0.9-3.8c0.2-1.4,0.9-2.5,2-3.4l1.8-1.3c5.7-4.1,13.3-3.8,18.6,0.8c1.5,1.3,3.7,1.5,5.4,0.5l2.3-1.3
			c1.2-0.7,2.6-0.9,3.9-0.5c1.3,0.3,2.4,1.2,3.1,2.4c0.7,1.2,0.9,2.6,0.5,3.9c-0.3,1.3-1.2,2.4-2.4,3.1l-2.3,1.3
			C318.1,508.5,315.5,509.3,312.9,509.3z M300.1,501.6c1.8,0,3.5,0.6,4.9,1.9c2.2,1.9,5,3,7.9,3c2.1,0,4.2-0.6,6.1-1.6l2.3-1.3
			c0.5-0.3,0.9-0.8,1.1-1.4c0.2-0.6,0.1-1.2-0.2-1.7c-0.3-0.5-0.8-0.9-1.4-1.1c-0.6-0.2-1.2-0.1-1.7,0.2l-2.3,1.3
			c-2.8,1.6-6.2,1.3-8.7-0.8c-4.3-3.7-10.5-4-15.1-0.7l-1.8,1.3c-0.5,0.4-0.8,0.9-0.9,1.5c-0.1,0.6,0.1,1.2,0.4,1.7
			c0.8,1,2.2,1.3,3.2,0.5l1.8-1.3C297,502.1,298.5,501.6,300.1,501.6z"/>
		<path class="st16" d="M312.9,507.8c-3.2,0-6.4-1.1-8.9-3.3c-2.1-1.9-5.2-2-7.5-0.3l-1.8,1.3c-1.7,1.2-4,0.8-5.2-0.8
			c-1.2-1.7-0.8-4,0.8-5.2l1.8-1.3c5.1-3.7,12-3.4,16.8,0.7c2,1.7,4.8,2,7,0.7l2.3-1.3c1.8-1,4.1-0.4,5.1,1.3c1,1.8,0.4,4.1-1.3,5.1
			l-2.3,1.3C317.6,507.2,315.2,507.8,312.9,507.8z"/>
		<polygon class="st17" points="165.7,290.3 454,290.3 454,286.7 161.9,286.7 161.9,489.1 165.7,489.1 		"/>
		<path class="st18" d="M272.6,271h-98.5c-1.3,0-2.4-1.1-2.4-2.4l0,0c0-1.3,1.1-2.4,2.4-2.4h98.5c1.3,0,2.4,1.1,2.4,2.4l0,0
			C275,270,273.9,271,272.6,271z"/>
		<path class="st18" d="M439.7,271h-98.5c-1.3,0-2.4-1.1-2.4-2.4l0,0c0-1.3,1.1-2.4,2.4-2.4h98.5c1.3,0,2.4,1.1,2.4,2.4l0,0
			C442.1,270,441,271,439.7,271z"/>
	</g>
	<path class="st11" d="M285,238l-4.1,21.4h10c4.2,0,7.5,3.4,7.5,7.5l0,0c0,3.8,3.1,6.8,6.8,6.8h9.8c3.8,0,6.8-3.1,6.8-6.8v-9v-11.7
		L285,238z"/>
	<polygon class="st17" points="283.2,247.4 292,259.5 280.9,259.4 	"/>
	<g>
		
			<ellipse transform="matrix(0.9728 -0.2315 0.2315 0.9728 -41.8297 77.4677)" class="st12" cx="309.1" cy="216.9" rx="32" ry="32"/>
		<path class="st11" d="M319.5,241.6c-1.3,0-2.5-0.1-3.8-0.3c-12.5-2.1-20.9-13.9-18.9-26.3c2.1-12.5,13.9-20.9,26.3-18.9
			c12.5,2.1,20.9,13.9,18.9,26.3c-1,6-4.3,11.3-9.3,14.9C328.8,240.1,324.2,241.6,319.5,241.6z M319.4,197.1c-4.5,0-8.8,1.4-12.5,4
			c-4.7,3.4-7.8,8.3-8.7,14c-1.9,11.7,6,22.8,17.8,24.8c5.7,0.9,11.4-0.4,16.1-3.8c4.7-3.4,7.8-8.3,8.7-14
			c1.9-11.7-6-22.8-17.8-24.8C321.7,197.2,320.6,197.1,319.4,197.1z"/>
		<path class="st11" d="M338.5,221.8c-1.7,10.6-11.7,17.7-22.3,16c-10.6-1.7-17.7-11.7-16-22.3c1.7-10.6,11.7-17.7,22.3-16
			C333.1,201.3,340.3,211.2,338.5,221.8z"/>
		<path class="st13" d="M326.8,219.8c-1.1,6.4-7.1,10.7-13.5,9.7c-6.4-1.1-10.7-7.1-9.7-13.5c1.1-6.4,7.1-10.7,13.5-9.7
			C323.5,207.4,327.8,213.4,326.8,219.8z"/>
		<path class="st17" d="M321.8,219c-0.6,3.7-4.1,6.2-7.8,5.6c-3.7-0.6-6.2-4.1-5.6-7.8c0.6-3.7,4.1-6.2,7.8-5.6
			C319.9,211.9,322.4,215.4,321.8,219z"/>
		<path class="st19" d="M324.2,213.2c0,2-1.7,3.7-3.7,3.7s-3.7-1.7-3.7-3.7c0-2,1.7-3.7,3.7-3.7S324.2,211.2,324.2,213.2z"/>
		<path class="st20" d="M313.2,223.3c0,1.4-1.2,2.6-2.6,2.6c-1.4,0-2.6-1.2-2.6-2.6s1.2-2.6,2.6-2.6
			C312,220.7,313.2,221.8,313.2,223.3z"/>
		<path class="st18" d="M280.9,217c0,0-0.1,0-0.1,0c-0.8-0.1-1.3-0.8-1.3-1.6c0-0.3,3.3-28.1,33.7-28.1c0.8,0,1.4,0.6,1.4,1.4
			c0,0.8-0.6,1.4-1.4,1.4c-27.9,0-30.8,24.5-30.9,25.6C282.2,216.4,281.6,217,280.9,217z"/>
	</g>
</g>
<path class="st21" d="M388.8,566.9H195.6c-0.8,0-1.4-0.6-1.4-1.4l0,0c0-0.8,0.6-1.4,1.4-1.4h193.2c0.8,0,1.4,0.6,1.4,1.4l0,0
	C390.2,566.2,389.6,566.9,388.8,566.9z"/>
<path class="st21" d="M645,566.9H410.8c-0.8,0-1.4-0.6-1.4-1.4l0,0c0-0.8,0.6-1.4,1.4-1.4H645c0.8,0,1.4,0.6,1.4,1.4l0,0
	C646.4,566.2,645.7,566.9,645,566.9z"/>
<path class="st21" d="M115.7,566.9H45.5c-0.8,0-1.4-0.6-1.4-1.4l0,0c0-0.8,0.6-1.4,1.4-1.4h70.2c0.8,0,1.4,0.6,1.4,1.4l0,0
	C117.1,566.2,116.5,566.9,115.7,566.9z"/>
<path class="st16" d="M188.4,351.2L111.9,307c-5-2.9-11.2,0.7-11.2,6.5v88.3c0,5.7,6.2,9.3,11.2,6.5l76.5-44.2
	C193.4,361.2,193.4,354,188.4,351.2z"/>
<path class="st22" d="M195.5,351.2L119,307c-5-2.9-11.2,0.7-11.2,6.5v88.3c0,5.7,6.2,9.3,11.2,6.5l76.5-44.2
	C200.4,361.2,200.4,354,195.5,351.2z"/>
<path class="st12" d="M106.8,413.7c-2.1,0-4.3-0.6-6.2-1.7c-3.9-2.2-6.2-6.3-6.2-10.8V324c0-4.5,2.3-8.5,6.2-10.8
	c3.9-2.2,8.5-2.2,12.4,0l66.9,38.6c3.9,2.2,6.2,6.3,6.2,10.8c0,4.5-2.3,8.5-6.2,10.8L113,412C111.1,413.1,109,413.7,106.8,413.7z
	 M106.8,314.4c-1.6,0-3.3,0.4-4.8,1.3c-3,1.7-4.8,4.8-4.8,8.3v77.3c0,3.5,1.8,6.6,4.8,8.3c3,1.7,6.6,1.7,9.6,0l66.9-38.6
	c3-1.7,4.8-4.8,4.8-8.3c0-3.5-1.8-6.6-4.8-8.3l-66.9-38.6C110.1,314.8,108.5,314.4,106.8,314.4z"/>
<g>
	<g>
		<rect x="48.1" y="515.2" class="st11" width="66.4" height="11.2"/>
		<polygon class="st12" points="110.4,525.3 52.2,525.3 60.1,564 102.5,564 		"/>
	</g>
	<path class="st17" d="M57.5,546.7c0,0,8.4-3.7,10.3-11.9c1.9-8.2-2.1-14.1-2.1-14.1s4.4-3.8,6.6-2.8c2.1,0.9,9.4-0.2,9.4-0.2
		s1.2,3.9,5.7,3c4.5-0.9,9.5,0,9.5,0s-0.5,20.4,4.9,21.6s10.1-19.2,10.1-19.2l-3.9-12.5l-23.4-5.4l-27,5.6l-5.3,14.6L57.5,546.7z"/>
	<g>
		<path class="st23" d="M60.1,465.1c1-2.7,2.3-5.2,3-8c2-7.3,0.2-15.5,3.4-22.4c1.5-3.2,4.7-6.1,8.1-5.4c2.9,0.5,4.8,3.3,5.9,6
			c2.1,5,2.6,10.5,1.5,15.8c-1.2,6-4.5,11.6-4.6,17.8c0,3.7,1.1,7.4,2.1,11c2.5,9.3,3.8,18.9,3.8,28.5c0,6.2-4.4,10.2-9.9,6.9
			c-4.5-2.7-8.8-10-11.1-14.6C56.9,489.8,55.8,476.6,60.1,465.1z"/>
		<path class="st7" d="M80,481.4c-0.1-0.4-0.2-0.8-0.3-1.2c-0.2,0-0.4,0-0.6,0.2c-2.7,2.3-5.5,4.6-8.2,6.8c-0.2-0.9-0.3-1.8-0.4-2.7
			c1.5-0.8,3.1-1.7,4.6-2.6c1.5-0.9,2.8-2.2,4.4-3c-0.1-0.5-0.3-0.9-0.4-1.4c-1.5,0.7-2.7,1.8-4.1,2.8c-1.5,1-3.1,1.9-4.6,2.7
			c-0.5-3.9-0.8-7.9-0.7-11.9c0.1-3.1,0.5-6.1,1-9c0.1,0,0.1,0,0.2-0.1c3-1.8,6.2-3.2,9.5-4.4c0.2-0.6,0.4-1.1,0.6-1.7c0,0,0,0,0,0
			c-3.5,1.1-6.8,2.6-9.9,4.4c0.2-0.7,0.3-1.5,0.5-2.2c0.1,0,0.2-0.1,0.3-0.1c2.8-2.1,6-3.3,9.6-3.3c0.1-0.5,0.3-0.9,0.4-1.4
			c-0.1,0-0.1,0-0.2,0c-3.5,0-6.8,1-9.6,2.9c0.3-1.2,0.6-2.5,0.9-3.7c1-4,1.7-8,1.1-12c0,0,0.1-0.1,0.1-0.1c1.8-2.2,4-3.7,6.7-4.6
			c0-0.1-0.1-0.2-0.1-0.3c-0.1-0.3-0.3-0.6-0.4-0.9c-2.5,0.8-4.8,2.2-6.6,4.2c-0.2-0.7-0.4-1.3-0.6-2c-0.3-0.8-1.7-0.5-1.4,0.4
			c1.1,3,1.3,5.9,1,8.9c-2.5-1.5-5.1-2.7-7.9-3.7c-0.1,0.5-0.1,1-0.1,1.5c2.7,1.1,5.3,2.3,7.8,3.8c-0.1,0.6-0.2,1.2-0.3,1.8
			c-2.5-1.5-5-2.9-7.6-4.2c0,0.5-0.1,1-0.1,1.5c2.5,1.3,5,2.6,7.3,4.1c-0.5,2.1-1.1,4.1-1.6,6.2c-1.2,4.7-1.9,9.4-2,14.3
			c-1.4-0.8-2.6-1.9-3.8-3c-1.3-1.2-2.6-2.4-3.9-3.6c-0.1,0.2-0.2,0.4-0.2,0.6c-0.1,0.3-0.2,0.6-0.3,0.9c2.5,2.4,5.1,5.2,8.2,6.6
			c0,0.3,0,0.7,0,1c0,0.2,0,0.5,0,0.7c-3.2-2.1-6-4.6-8.6-7.4c-0.2,0.5-0.3,1-0.5,1.6c2.7,2.9,5.7,5.4,9,7.5c0,0,0.1,0,0.1,0.1
			c0.1,2.6,0.4,5.2,0.8,7.7c-0.1,0.2,0,0.4,0.1,0.6c0.5,3.4,1.2,6.8,2,10.1c-4.5-2.2-8.9-4.8-13-7.7c0.1,0.6,0.2,1.3,0.3,1.9
			c4.2,2.8,8.6,5.4,13.1,7.6c0.2,0.7,0.4,1.5,0.6,2.2c-3.6-0.9-7.1-2.3-10.3-4.2c0-0.1-0.1-0.1-0.1-0.1c-0.8-0.8-1.7-1.7-2.6-2.4
			c0.2,0.9,0.5,1.8,0.8,2.7c0.1,0.1,0.2,0.1,0.2,0.2c0,0.2,0.1,0.4,0.3,0.6c3.8,2.3,7.8,3.9,12.1,4.9c0.9,3.1,1.8,6.1,2.8,9.1
			c0,0.1,0,0.2,0,0.4c0.7,2.1,1.7,4.1,2.8,6c0.5,0.8,1.7,0.1,1.2-0.7c-1-1.6-1.8-3.2-2.4-5c0-0.1,0-0.2,0-0.3
			c-2.2-6.9-4.3-13.9-5.7-21c0.1,0,0.1,0,0.2-0.1C74.2,486.2,77.1,483.8,80,481.4z"/>
	</g>
	<g>
		<path class="st24" d="M104,495.1c0-2.8-0.4-5.6,0.1-8.3c0.7-3.9,2.8-7.3,4.7-10.8c4.7-8.8,7.7-19.4,3.9-28.6
			c-2-4.8-7.4-9.1-12-6.7c-4.4,2.2-4.3,8.3-4.9,13.2c-0.5,4.6-2.1,9.1-4.5,13c-2.3,3.6-5.3,6.8-6.7,10.8c-0.8,2.2-1.1,4.6-1.5,6.9
			c-1,4.7-2.8,9.1-3.9,13.7c-1.8,7.5-0.1,22.2,10.9,20.5C100.3,517.3,104.2,503.5,104,495.1z"/>
		<path class="st7" d="M104,470c1.2-5.1,1.8-10.2,1.6-15.4c2.3-2.2,4.8-4.2,7.6-5.8c0,0,0,0,0,0c-0.1-0.4-0.3-0.9-0.5-1.3
			c-0.1,0-0.2,0-0.2,0.1c-2.5,1.5-4.9,3.3-7,5.3c0-0.6-0.1-1.2-0.1-1.7c1.9-2.1,4-4,6.2-5.7c-0.3-0.4-0.5-0.8-0.8-1.1
			c-2,1.5-3.9,3.2-5.6,5c-0.1-0.7-0.2-1.4-0.4-2.1c-0.2-0.9-1.5-0.5-1.4,0.4c0.2,1.1,0.3,2.1,0.5,3.2c-0.1,0.3-0.1,0.6,0.1,0.8
			c0.3,2.7,0.3,5.5,0.2,8.2c-3-0.9-5.8-2.1-8.6-3.6c-0.1,0.5-0.2,1-0.3,1.4c2.7,1.4,5.6,2.6,8.6,3.5c0.1,0,0.1,0,0.2,0
			c0,0.3-0.1,0.5-0.1,0.8c-3.1-0.7-6.4-0.7-9.3-2.1c-0.1,0.5-0.3,0.9-0.4,1.4c3,1.4,6.4,1.5,9.6,2.2c-0.7,5.6-2.2,11.1-4.2,16.4
			c-4.4-1.7-7.5-5.7-10.6-9.2c-0.3,0.4-0.6,0.8-0.8,1.2c3.2,3.6,6.4,7.5,11,9.3c-0.3,0.7-0.6,1.3-0.9,2c-4.6-1.5-9.2-4.8-11.7-9
			c-0.3,0.5-0.6,0.9-0.8,1.4c2.7,4.1,7.3,7.3,11.9,8.9c0,0.1-0.1,0.2-0.1,0.3c-1.8,4-3.9,7.9-6.1,11.7c-3.4-2-6.3-4.6-8.8-7.7
			c-0.1-0.2-0.3-0.2-0.4-0.2c-0.1,0.5-0.3,0.9-0.4,1.4c2.5,3.1,5.5,5.7,8.9,7.7c-0.4,0.6-0.7,1.2-1.1,1.8c-0.1,0-0.1,0-0.2,0
			c-2.2,0.1-3.6-1.3-5-2.8c-1.2-1.3-2.3-2.6-3.5-3.9c-0.2,0.5-0.3,1.1-0.5,1.6c2.2,2.7,4.8,6.3,8.4,6.5c-2.3,4-4.3,8.1-4.9,12.8
			c-0.1,0.9,1.3,0.9,1.4,0c0.8-6.7,4.9-12.2,8.2-18c0.1-0.2,0.2-0.4,0.3-0.5c3.4,1,6.8,0.9,10.1-0.5c0.1,0,0.1-0.1,0.1-0.1
			c0-0.4,0-0.9,0-1.3c-0.1-0.1-0.3-0.1-0.5,0c-2.9,1.2-6,1.4-9,0.5c0.3-0.6,0.7-1.2,1-1.8c2.9,0,5.7-0.4,8.4-1.3c0-0.5,0-1,0-1.5
			c-2.5,0.8-5.1,1.3-7.7,1.4c1.7-3.3,3.2-6.6,4.6-10c0.7-1.8,1.3-3.6,1.9-5.4c1.5,0.1,2.8-0.5,4.2-1c1.2-0.5,2.5-1,3.7-1.4
			c0.3-0.6,0.5-1.2,0.8-1.8c-1.4,0.5-2.8,1.1-4.2,1.6c-1.3,0.5-2.7,1.2-4.1,1.2c0.2-0.7,0.4-1.3,0.6-2c2.6-0.6,6-0.8,8.4-2.3
			c0.3-0.8,0.6-1.6,0.8-2.5c-0.1,0-0.2,0.1-0.3,0.2C110.7,469.1,106.9,469.5,104,470z"/>
	</g>
	<g>
		<path class="st24" d="M55.2,500.9c-8.4-1.1-17.6,2.6-21.6,10c-2.3,4.2-3.1,9.5-7,12.2c-2.9,2-7,2.1-9.1,5
			c-2.2,3.1-0.6,7.4-1.2,11.2c-1.1,6.1-8.1,9.7-9.2,15.8c-0.9,5.2,3.6,10.5,8.8,11c5.3,0.4,10.4-3.6,11.7-8.7c0.5-2,0.5-4.1,1.5-5.9
			c2.1-4.2,7.7-5,11.9-7.2c4.5-2.4,7.5-7.2,7.9-12.3c0.1-1.6,0-3.3,0.7-4.8c1.7-3.2,6.3-3.1,9.4-5.1c2.7-1.8,4.1-5.4,7.2-6.5
			c3-1,6.8,2.2,7.8-2.1C75.6,506.9,59.6,501.4,55.2,500.9z"/>
		<path class="st7" d="M57.6,501.4c-0.7,2.5-1.2,5-1.6,7.6c-0.4-0.1-0.7-0.1-1.1-0.1c-0.4-2.7-0.4-5.4-0.3-8c-0.5,0-0.9-0.1-1.4-0.1
			c-0.1,2.7,0,5.4,0.3,8.1c-1.7,0-3.3,0.3-5,0.9c-0.8,0.3-1.5,0.6-2.2,1c-1.1-2.7-2.1-5.5-3.1-8.3c-0.4,0.2-0.9,0.4-1.3,0.6
			c0.9,2.8,2,5.6,3.1,8.4c0,0,0.1,0.1,0.1,0.1c-0.5,0.3-0.9,0.7-1.3,1c-1.4-2.6-2.7-5.3-4-8c-0.1-0.1-0.1-0.2-0.2-0.3
			c-0.4,0.2-0.7,0.5-1.1,0.7c0,0.1,0,0.1,0.1,0.2c1.3,2.8,2.6,5.6,4.1,8.3c-1.3,1.4-2.4,3-3.2,4.8c-0.3,0.2-0.5,0.5-0.4,0.9
			c-0.4,1.1-0.8,2.1-1.2,3.3c-0.8,3-1.5,6.1-3.2,8.6c-1.4-1.2-2.9-2.3-4.3-3.5c-0.5-0.4-4.9-3.7-4.8-4.1c0,0,0-0.1,0-0.1
			c-0.4,0.2-0.9,0.5-1.3,0.6c0.5,1.2,2.6,2.4,3.4,3.1c2,1.7,4.1,3.4,6.2,5.1c-0.2,0.3-0.4,0.5-0.7,0.8c-0.1,0.1-0.1,0.1-0.2,0.2
			c-3.8-1.7-6.9-5.4-9.9-8.2c-0.2-0.2-0.4-0.2-0.6-0.2l0,0c-0.5,0.2-0.9,0.4-1.4,0.5c0.4,0.4,0.8,0.9,1.2,1.3
			c0.2,0.3,0.5,0.3,0.7,0.2c2.7,2.6,5.5,5.6,8.8,7.3c-2.2,1.6-4.8,2.6-6.7,4.5c-1.6,1.6-2.3,3.5-3,5.5c-2.7-0.4-5.3-0.5-8-0.3
			c-0.3,0.5-0.7,1-1.1,1.5c0,0,0.1,0,0.1,0c2.9-0.3,5.7-0.2,8.6,0.2c-0.1,0.3-0.2,0.6-0.3,0.9c-0.1-0.1-0.3-0.2-0.5-0.2
			c-2.9-0.1-6.1-0.6-8.9,0.3c-0.3,0.4-0.6,0.7-0.9,1.1c0.1,0.3,0.4,0.6,0.8,0.4c2.8-1.1,6-0.6,8.9-0.4c0,0,0,0,0,0
			c-0.4,1.1-0.9,2.2-1.5,3.2c-0.3,0.1-0.5,0.4-0.4,0.7c-1.4,2.3-3.2,4.3-5.4,6c-0.7,0.6,0.3,1.6,1,1c1.1-0.9,2.1-1.9,3-2.9
			c0.9,3,1.4,6.3,2,9.4c0,0.2,0.1,0.3,0.2,0.4c0.4-0.1,0.8-0.3,1.1-0.4c0-0.1,0-0.2,0-0.3c-0.7-3.4-1.1-6.9-2.2-10.2
			c0,0,0-0.1-0.1-0.1c0.3-0.4,0.5-0.8,0.8-1.1c1,3.5,2.8,6.9,3,10.6c0,0.1,0,0.2,0.1,0.3c0.4-0.3,0.9-0.6,1.3-1
			c-0.4-4.1-2.4-7.7-3.3-11.7c1.2-2.2,2.2-4.6,3.1-7.3c0.8-2.4,2-4,3.6-5.3c1.4,3.2,2.8,6.4,4.1,9.7c0.4-0.3,0.8-0.6,1.2-0.8
			c-1.3-3.3-2.6-6.6-4.1-9.8c0.3-0.2,0.7-0.5,1-0.7c1.4,3.3,2.9,6.6,4.3,9.8c0.4-0.2,0.8-0.4,1.3-0.6l-4.4-10
			c0.1-0.1,0.2-0.1,0.3-0.2c2.1-1.3,4-2.7,5.4-4.8c2-3.2,2.6-7.1,3.8-10.7c1.1,2,2.5,3.8,4.1,5.4c0.6,0.6,1.6-0.4,1-1
			c-1.8-1.8-3.3-3.9-4.4-6.2c0.1-0.4,0.3-0.7,0.5-1c1.4,2.1,2.8,4.1,4.1,6.2c0.5,0.8,1.7,0,1.2-0.7c-1.5-2.3-3-4.5-4.6-6.8
			c0.3-0.4,0.6-0.9,0.9-1.3c0.4-0.5,0.8-0.9,1.2-1.3c0,0,0,0,0,0c4.6-4.4,11.4-4.9,16.8-2c0,2.5,0.2,5,0.4,7.4
			c0.4-0.5,0.9-1,1.3-1.5c-0.1-1.7-0.2-3.3-0.2-5c0.5,0.3,0.9,0.7,1.4,1.1c0,0.1,0,0.1,0.1,0.2c0.4,0.5,0.9,1.1,1.3,1.6
			c0.3-0.2,0.6-0.3,1-0.4c0.1,0,0.3-0.1,0.4-0.1c-0.5-0.6-1.1-1.2-1.6-1.9c0-0.1-0.1-0.2-0.2-0.3c-2.2-1.9-4.7-3.3-7.5-3.9
			c0.4-2.5,0.9-5,1.6-7.5C58.5,501.6,58,501.5,57.6,501.4z"/>
	</g>
	<g>
		<path class="st23" d="M102.6,499.1c7.5-2.6,17.1,0.6,20.1,8c0.9,2.3,1.2,4.9,2.8,6.8c3.1,3.8,9.5,3.2,12.8,6.8
			c4.6,5.1-0.6,13.7,1.9,20.1c0.8,1.9,2.2,3.5,3.4,5.3c2.3,3.4,3.8,7.4,3.4,11.5c-0.4,4.1-3,8-6.8,9.4c-3.8,1.4-8.7-0.3-10.4-4
			c-1.9-4.5,0.7-10.6-2.9-13.9c-2-1.8-4.9-1.8-7.3-2.9c-5.2-2.5-6.2-9.2-7.6-14.7c-0.5-2.1-1.2-4.3-2.6-6c-1-1.2-2.3-2.1-3.6-3
			c-3-2.1-6.3-4.4-9.9-5.4c-4-1.2-7.3,0.9-7.4-3.2C88.4,507.9,97.8,500.8,102.6,499.1z"/>
		<path class="st7" d="M143.6,546c-0.1-0.2-0.3-0.4-0.5-0.6c-2.5,0.3-4.9,0.8-7.2,1.6c-0.4-0.7-0.7-1.4-1.1-2.2
			c2.4-0.6,4.8-0.9,7.2-1c-0.3-0.4-0.6-0.9-0.9-1.4c-2.3,0.2-4.6,0.5-6.9,1.1c-0.9-2-1.4-4.1-1.4-6.7c0.1-3.3,0.7-7-1.4-9.9
			c-0.1-0.1-0.1-0.2-0.2-0.2c2.6-1.5,5.3-3.1,7.9-4.6c-0.2-0.4-0.5-0.8-0.8-1.2c-2.7,1.6-5.5,3.2-8.2,4.8c-0.6-0.4-1.2-0.8-1.9-1
			c3-1.6,5.9-3.3,8.7-5c-0.4-0.3-0.9-0.6-1.4-0.8c-3,1.8-6.1,3.6-9.2,5.3c-1.4-0.4-2.9-0.8-4.2-1.7c-1.1-0.8-2-1.9-2.8-3
			c2.8-1.2,5.7-2.4,8.5-3.5c-0.5-0.3-1-0.6-1.5-0.9c-2.6,1.1-5.2,2.1-7.8,3.3c-0.3-0.5-0.6-1-0.8-1.5c2.7-0.7,5.3-1.6,7.9-2.5
			c-0.1-0.1-0.2-0.2-0.4-0.4c-0.2-0.3-0.4-0.5-0.6-0.8c-2.5,0.9-5,1.7-7.5,2.4c-0.1,0-0.1,0-0.1,0.1c-1.6-3-3.2-6-6.7-7.5
			c-2.6-1.1-5.5-1.3-8.2-0.6c1.1-3.2,2.5-6.2,4.1-9.2c-0.6,0.1-1.2,0.1-1.7,0.2c-1.6,3-2.9,6.1-4,9.4c0,0,0,0.1,0,0.1
			c-1.2,0.5-2.4,1.2-3.4,2.1c1-3.4,2.1-6.7,3.2-10.1c-0.6,0.3-1.2,0.7-1.8,1.1c-1.1,3.3-2.2,6.5-3.1,9.9c-0.1,0.3,0,0.5,0.2,0.6
			c-1,0.8-1.8,1.6-2.6,2.6c-0.6,0.7,0.4,1.7,1,1c0.6-0.8,1.3-1.5,2.1-2.2c0.2,0,0.3-0.1,0.4-0.2c2.8-3.6,7.8-5.1,12-3.9
			c0.1,3.6,0.6,7.2,1.3,10.7c0.2,0.9,1.6,0.5,1.4-0.4c-0.7-3.2-1.1-6.5-1.2-9.8c0.9,0.4,1.7,1,2.5,1.6c0,0.1-0.1,0.2-0.1,0.3
			c-0.1,3.3-0.2,6.6-0.2,9.9c0,0.9,1.4,0.9,1.4,0c0.1-2.9,0.1-5.9,0.2-8.8c2.8,3.5,3.8,8.4,7.5,11.2c2.1,1.6,4.9,1.5,7.1,2.9
			c0.2,0.1,0.4,0.3,0.6,0.4c0.1,0.3,0.4,0.7,0.7,0.6c1.7,1.8,1.8,4.2,1.7,6.7c0,0-0.1,0-0.1,0c-1.6,1-3.2,2.1-4.6,3.4
			c-0.7,0.6,0.3,1.6,1,1c1.1-1,2.4-1.9,3.7-2.7c0,0.6-0.1,1.2-0.1,1.8c-1.3,0.4-2.5,1.2-3.4,2.2c-0.6,0.7,0.4,1.7,1,1
			c0.7-0.8,1.5-1.4,2.4-1.7c0.2,2.3,0.8,4.4,1.9,6.5c2,4,5.2,8.1,3.1,12.7c-0.4,0.8,0.8,1.5,1.2,0.7c1.3-2.9,1-5.8-0.3-8.8
			c-0.3-0.7-0.6-1.4-0.9-2c2.4-0.8,4.9-1.4,7.5-1.6C143.9,546.5,143.7,546.3,143.6,546z"/>
	</g>
	<g>
		<path class="st24" d="M113.8,521.5c2.1,2.3,2.5,5.8,4.6,8.1c1.7,1.9,4.4,2.8,6.3,4.5c3.3,2.9,4.1,7.8,4.2,12.2
			c0,2.1-0.1,4.2-1,6.1c-1.5,3.1-4.9,4.9-8.3,5.5c-2.7,0.4-5.7,0.1-7.7-1.7c-3.1-2.9-2.7-8.4-6.1-11c-1.3-1.1-3.1-1.5-4.2-2.9
			c-1.2-1.5-1.1-3.5-1-5.4c0.2-3.7-1-11.8,1-15.1C104.1,517.8,110.9,518.3,113.8,521.5z"/>
		<path class="st7" d="M124.8,534.2c-3,1.5-6,2.8-9.2,3.9c-0.3-0.4-0.6-0.8-0.8-1.2c-0.2-0.4-0.4-0.7-0.5-1.1
			c2.7-0.6,5.3-1.5,7.8-2.7c0.3-0.1,0.4-0.4,0.3-0.6c-0.4-0.2-0.7-0.4-1.1-0.6c-2.4,1.2-4.8,2-7.4,2.5c-0.2-0.7-0.3-1.5-0.5-2.2
			c-1.3-4.6-4.2-8.5-8-11.4c-0.7-0.6-1.4,0.7-0.7,1.2c1.7,1.3,3.1,2.8,4.2,4.4c0,0-0.1,0-0.1,0.1c-2,3.1-4.8,5.3-8.2,6.6
			c0,0.5,0,1,0.1,1.5c3.7-1.3,6.8-3.7,9-6.9c0.3,0.5,0.6,1.1,0.9,1.6c-2.9,2.9-6,5.8-9.9,7.1c0,0.1,0,0.3,0,0.4c0,0.4,0,0.7,0,1.1
			c4.2-1.3,7.4-4.2,10.5-7.3c0.5,1.3,1,2.6,1.3,4c0.4,1.6,1.3,3,2.2,4.2c0,0.3,0.2,0.6,0.5,0.6c0.5,0.6,1,1.3,1.4,1.9
			c-2.5,2.6-5.4,4.6-8.7,6.1c0.2,0.4,0.4,0.8,0.6,1.3c3.4-1.5,6.3-3.5,8.9-6.2c0.7,1.1,1.2,2.4,1.3,3.8c0.1,0.9,1.5,0.9,1.4,0
			c-0.2-2.2-0.8-4-2.1-5.8c-0.4-0.6-0.9-1.1-1.4-1.6c3.1-1.1,6.2-2.5,9.2-4C125.5,534.9,125.1,534.5,124.8,534.2z"/>
	</g>
	<g>
		<path class="st23" d="M39.8,538.2c0.1,1,0.4,1.9,0.2,2.9c-0.3,1.5-1.4,2.6-2.2,3.9c-2.3,3.6-1.3,9,2.1,11.6
			c3.4,2.6,8.8,2.1,11.7-1.1c2-2.2,2.8-5.3,4.7-7.6c2.1-2.6,5.5-3.9,7.4-6.7c0.9-1.3,1.3-2.8,1.6-4.3c0.9-5,0-10.6-3.7-14.1
			C50.5,512.4,38.2,527,39.8,538.2z"/>
		<path class="st7" d="M54.2,528.9c2.1,5,4.7,9.7,8,14.1c0.4-0.3,0.7-0.7,1-1c-3.3-4.4-6-9.2-8-14.4c1-1.2,2-2.4,3.3-3.4
			c0.1-0.1,0.2-0.2,0.2-0.3c0.6-0.5,1.3-1.1,1.9-1.6c0.1-0.1,0.1-0.1,0.1-0.2c-0.4-0.3-0.7-0.6-1.1-0.8c0,0,0,0,0,0
			c-0.8,0.7-1.7,1.4-2.5,2.1c-0.1,0.1-0.2,0.2-0.2,0.3c-2.9,2.5-4.9,5.6-6.4,9c-3.4-0.6-6.8-0.9-10.2-0.9c-0.1,0.5-0.2,0.9-0.3,1.4
			c3.4-0.1,6.7,0.2,10,0.8c-0.3,0.8-0.5,1.6-0.7,2.5c-0.1-0.1-0.2-0.1-0.3-0.1c-3.1-0.6-6.1-0.8-9.3-0.8c0,0.5,0,0.9,0,1.4
			c3,0,5.9,0.2,8.9,0.8c0.1,0,0.3,0,0.4,0c-0.2,0.9-0.4,1.8-0.6,2.7c0,0.1,0,0.1,0,0.2c-0.6,2.7-1.3,5.3-2.8,7.3
			c-0.5,0.7,0.7,1.4,1.2,0.7c0.5-0.7,0.9-1.5,1.3-2.4c0.9,3.2,2.1,6.3,3.6,9.2c0,0,0,0,0,0.1c0,0,0,0,0,0c0.3-0.4,0.6-0.8,0.9-1.2
			c-1.6-3.1-2.8-6.3-3.6-9.7c0-0.2-0.2-0.3-0.3-0.4c0.2-0.6,0.3-1.2,0.5-1.8c1.8,3,3.4,6.1,4.9,9.3c0.3-0.5,0.5-1,0.8-1.5
			c-1.6-3.4-3.3-6.7-5.2-9.9c0.3-1.2,0.5-2.4,0.9-3.5C51.4,533.9,52.6,531.2,54.2,528.9z"/>
	</g>
</g>
<g>
	<g>
		<circle class="st25" cx="384.5" cy="399.9" r="33.3"/>
		
			<ellipse transform="matrix(9.643833e-02 -0.9953 0.9953 9.643833e-02 -41.4074 748.5247)" class="st16" cx="391.6" cy="397.1" rx="33.3" ry="33.3"/>
		
			<ellipse transform="matrix(0.2396 -0.9709 0.9709 0.2396 -87.7368 682.1221)" class="st19" cx="391.6" cy="397.1" rx="27" ry="27"/>
		<path class="st16" d="M410.8,397.1c0,10.6-8.6,19.3-19.3,19.3c-10.6,0-19.3-8.6-19.3-19.3c0-10.6,8.6-19.3,19.3-19.3
			C402.2,377.8,410.8,386.4,410.8,397.1z"/>
		
			<ellipse transform="matrix(0.2196 -0.9756 0.9756 0.2196 -81.8054 691.8671)" class="st19" cx="391.6" cy="397.1" rx="11.5" ry="11.5"/>
		<path class="st16" d="M397.2,397.1c0,3.1-2.5,5.6-5.6,5.6c-3.1,0-5.6-2.5-5.6-5.6c0-3.1,2.5-5.6,5.6-5.6
			C394.7,391.4,397.2,393.9,397.2,397.1z"/>
	</g>
	<path class="st17" d="M318.3,489.3c0,0,12.4,10.2,27.2,9.2l-13-9.4L318.3,489.3z"/>
	<g>
		<path class="st26" d="M307.3,449.1c3.4,8.3,6.8,16.6,10.2,24.9c7.3,0.1,14.5-1.8,20.8-5.5c0.5-0.3,1.1-0.7,1.3-1.2
			c0.2-0.6,0-1.2-0.2-1.8c-2.8-8.8-5.7-17.5-8.8-26.2c-1.6-4.5-3.3-9.1-6.3-12.9c-4.9-6.1-16.8-9.4-22-1.5
			C298.4,431.3,305,443.3,307.3,449.1z"/>
		<path class="st27" d="M367.9,436.7c0,0-28.2,43.2-29.2,52.6c-1,9.4,13.2,12.7,19.6,2.6c6.4-10.2,19.9-44,19.9-44
			S368,438.3,367.9,436.7z"/>
		<path class="st27" d="M321,473.9c0,0,9.5,28,26.4,24.3c16.9-3.8-9-29.6-9-29.6S325.7,469.2,321,473.9z"/>
	</g>
	<g>
		<defs>
			<rect id="SVGID_4_" x="167.2" y="312.3" width="280.1" height="176.9"/>
		</defs>
		<clipPath id="SVGID_5_">
			<use xlink:href="#SVGID_4_"  style="overflow:visible;"/>
		</clipPath>
		<g class="st28">
			<path class="st29" d="M241.9,374.4c1.7,3.5,1.7,7.6,1,11.5c-0.6,3.3-1.8,6.6-1.9,9.9c-0.1,3.4,1.1,7.1,4,8.7c-3,2-6.4,4-10,3.4
				c-2.7-0.5-5-2.5-6.7-4.7c-4.6-6.2-5.7-14.5-4.3-22.2c0.4-2.4,1.1-4.8,2.5-6.9C230.8,368,238.3,367.1,241.9,374.4z"/>
			<path class="st13" d="M243.1,420.3c0,0,3.1,3.1,15.3,32.1c4.2,10.1,8,18.6,6.8,23.2c-1.1,4.6-7.9,7.7-12.2,3.8
				c-4.2-3.9-18-24.8-20.9-34.2C229.2,435.8,230.1,418,243.1,420.3z"/>
			<path class="st25" d="M256,446.8c-10.2-23.7-12.9-26.5-12.9-26.5c-13-2.4-13.9,15.5-10.9,24.9c2,6.5,9.2,18.4,14.8,26.5
				c0.5-2.8,1.7-6.8,4.4-11.7C253.9,455.3,255.4,450.7,256,446.8z"/>
			<path class="st30" d="M214.3,389.5c0,0-4.4,14.1-4.6,20.8c0,0-0.8,6.2,6.8,7.3c7.5,1.1,6.4-7.3,6-10.1
				c-0.4-2.8,2.5-13.4,2.5-13.4S219.8,389.1,214.3,389.5z"/>
			<path class="st13" d="M204.6,409.9c0.6-1.3,1.7-2.2,3.1-2.1c1.1,0.1,1.7,0.3,2.1,1.3c0.9,2.7,1.6,5.7,4,7.3c2.1,1.3,5,1.5,6.9,0
				c1.4-1,2-3.6,2.1-5.5c0.1-1.7,2.6-2.3,3.9-1.2c0.4,0.3,0.7,0.7,1.1,1.1c1.6,1.6,2.6,3.7,4.5,4.9c2.4,1.6,5.6,1.4,8.1,2.9
				c3.4,2.1,4.1,6.6,4.9,10.5c1,5,2.8,9.8,5.1,14.3c1.6,3.2,3.6,6.6,2.8,10c-1.1,4.4-6,6.3-9.1,9.6c-3.3,3.6-4.4,8.8-3.8,13.6
				c0.6,4.8,2.6,9.4,4.8,13.7c1.5,3,3.2,6.4,0,9.6c-1.6,1.6-3.9,2.4-6.2,2.6c-5.6,0.4-11.2,1.4-16.6,2.9c-4.3,1.2-8.5,2.8-12.9,3.4
				c-4.4,0.6-9.2-0.1-12.7-2.8c-5.2-4.2-5.9-12-4.9-18.6c1-6.6,3.4-13.2,2.6-19.9c-0.7-6.2-4.1-11.8-7.4-17
				c-3.3-5.3-6.9-10.7-8-16.8c-1.2-6.1,0.6-14.3,6.8-16.9C191.6,414.4,201.3,416.8,204.6,409.9z"/>
			<path class="st25" d="M203.2,452.9c1.4-12.1-5-23.5-7.2-26.9c-0.4-0.7-0.7-1-0.7-1l-10.8,21.7c0.8,1.3,1.6,2.6,2.4,3.9
				c3.3,5.3,6.7,10.8,7.4,17c0.8,6.7-1.6,13.3-2.6,19.9c-1,6.5-0.3,14.2,4.7,18.4c0.3-4.7,1.3-16.7,2.5-24.6
				C200.6,471.3,201.6,467.4,203.2,452.9z"/>
			<path class="st13" d="M182.8,418.8c0,0-2.6,3.6-10.1,34.1c-2.6,10.6-5,19.6-3.1,24c1.8,4.4,9,6.3,12.6,1.9
				c3.6-4.5,13.9-27.3,15.3-37.1C198.9,432,195.2,414.4,182.8,418.8z"/>
			<path class="st13" d="M179.1,468.2c0,0-21.1-51.2-24.2-50.6l-7.3,4.4c0,0,6.9,38.6,18.7,52.4
				C178.1,488.2,182.7,478.5,179.1,468.2z"/>
			<path class="st13" d="M266.8,474.1c0,0,17.8-32.3,15.2-34.1l-8.3-2.2c0,0-18.7,13.3-20.4,31.4C251.8,487.3,262,483.8,266.8,474.1
				z"/>
			<path class="st30" d="M141.7,404.2c-0.1-0.9-0.2-1.8,0.1-2.6c0.4-0.9,1.2-1.5,1.8-2.3c2-2.6,1.7-6.8,4.4-8.6
				c1.6,0.5,2.5,2.4,2.4,4.1c0,1.7-0.7,3.3-1,5c-0.1,0.5-0.2,1,0,1.5c0.4,1.3,1.8,1.7,3,2.3c3.2,1.5,5.1,4.8,6.8,7.8
				c0.3,0.5,0.6,1,0.6,1.5c0.1,0.7-0.1,1.4-0.3,2c-0.7,2-1.5,4.1-3,5.7c-1.4,1.6-3.6,2.7-5.7,2.3
				C145.1,421.9,142.4,408.7,141.7,404.2z"/>
			<path class="st30" d="M238.4,375.6c0,6.9-1.7,13.7-3.9,20.3c-1,3-2.2,6.1-4.8,8c-2.3,1.7-5.4,1.9-8.3,1.6
				c-9.4-0.9-17.9-7.6-21.2-16.4c-3.3-8.8-1.1-19.4,5.4-26.2c5.7-6,14.4-8.7,22.5-7.5C236.8,356.7,238.4,368.1,238.4,375.6z"/>
			<path class="st29" d="M249.9,398.2l-14.9,41c-1.8,4.8,0.8,10.2,5.6,11.9l16.9,5.9c4.5,1.6,9.4-0.6,11.3-5l17.5-40.5
				c1.5-3.4-0.1-7.3-3.5-8.7l-22.1-9.2C256.4,391.7,251.5,393.8,249.9,398.2z"/>
			<path class="st30" d="M283.6,427.5c0-0.9-0.1-1.8-0.6-2.5c-0.5-0.8-1.4-1.3-2.2-1.9c-2.5-2.2-2.9-6.4-5.9-7.7
				c-1.5,0.8-2,2.8-1.7,4.4c0.3,1.7,1.3,3.1,1.9,4.7c0.2,0.5,0.4,1,0.3,1.5c-0.1,1.3-1.5,2-2.6,2.8c-2.8,2.1-4.1,5.6-5.3,8.9
				c-0.2,0.5-0.4,1.1-0.3,1.6c0,0.7,0.4,1.3,0.7,1.9c1.1,1.9,2.2,3.7,3.9,5.1c1.7,1.3,4,2,6.1,1.2
				C283.6,445.6,283.8,432.1,283.6,427.5z"/>
			<path class="st29" d="M242.5,373.5c-1.1-6.3-2.5-13.1-7.3-17.2c-5.4-4.6-13.5-4.4-20.4-2.7c-5.7,1.4-11.4,3.6-15.6,7.6
				c-4.3,4-6.9,10.1-5.7,15.8c0.8,3.7,3.1,6.9,3.8,10.6c1.4,7.3-4.5,15.2-12,15.8c3,3.9,7.3,7.1,12.2,7.7c4.9,0.6,10.3-1.8,12.3-6.3
				c0.5-1.2,0.8-2.6,0.2-3.8c-0.4-0.8-1.1-1.4-1.7-2c-2.6-3.2-2-18.6,0.1-20.3c2.5-2.1,13-1.2,16.5-1.7
				C230.9,376.1,236.7,374.9,242.5,373.5z"/>
		</g>
		<g class="st28">
			<path class="st31" d="M296.4,411c0.9,3.1,4.3,4.9,7.5,5.6c3.2,0.7,6.6,0.9,9.4,2.6c5.3,3.3,6.1,10.5,6.3,16.6
				c0.1,3.6,0.3,7.2,0.4,10.7c0.5,12.8,1,25.6-0.2,38.3c-0.1,1.6-0.4,3.2-1.5,4.3c-1,1-2.5,1.4-4,1.6c-7.4,1.3-14.8,2.3-22.3,2.8
				c-3.6,0.3-7.3,0.4-10.7-0.9c-5.9-2.2-9.4-8.2-11.4-14.2c-7.8-23.6,2.2-50.3-5.1-74.1c-0.5-1.7-1.2-3.6-0.7-5.3
				c0.8-3.5,5-4.9,8.5-5c6.4-0.3,12.5,1.7,17.8,5.1C296,402.7,294.8,405.3,296.4,411z"/>
			<path class="st16" d="M283.2,410.8c0,0,17.5,3.8,23.2,19.9c5.7,16.1,2.2,61.2,2.2,61.2s-35.2,9.1-43.5,1.5
				c-8.3-7.5-4.7-71.2-1-77.1C267.8,410.3,283.2,410.8,283.2,410.8z"/>
			<path class="st27" d="M266.1,396v-10.3l15.9,7.2l1.2,19.8c0,0-3.6,8.1-14,0L266.1,396z"/>
			<path class="st32" d="M231,432.3c0.8-4.1,2.6-8.1,5.9-10.6c2.3-1.8,5.2-2.7,8-3.8c3.7-1.5,7.3-3.4,10.7-5.6
				c1.4-0.9,2.7-2,3.3-3.5c0.7-2-0.3-4.2-0.3-6.3c0-3.7,3.8-7,7.5-6.5c-1.3,2,0.8,4.5,3,5.4s4.8,1.2,6.3,3
				c3.1,3.6-0.5,10.6,3.4,13.5c1.6,1.1,3.9,1.1,5.1,2.7c0.7,0.9,0.7,2,0.8,3.1c1.1,20.5-0.8,41-2.7,61.4c-0.1,1.5-0.3,3.2-1.4,4.3
				c-0.8,0.8-1.8,1.1-2.8,1.4c-8.5,2.5-17.6,3.2-26.3,2c-2-0.3-4-0.7-5.7-1.7c-2.1-1.4-3.5-3.7-4.3-6.2c-3.4-9.9,0.6-9.2-2.7-23.3
				c-0.9-3.9-5.7-15.1-6.2-19.2C232.2,438.7,230.4,436,231,432.3z"/>
			<path class="st17" d="M254.5,429.4c0,0,12.2,29,14.1,44.3l15.5-13.1l-12.9,24.1l-10.9-7.3L254.5,429.4z"/>
			<g>
				<path class="st27" d="M258.4,360.2c0,0,0.4-24.7,17.9-31.5c17.6-6.8,30.5,6.8,30.5,19c0,12.2-0.7,33.3,0,39.1
					c0.7,5.7-12.9,7.2-22.6,6.5c-9.7-0.7-20.1-6.8-23-13.6c0,0-9.7,0.4-11.1-8.6S258.4,360.2,258.4,360.2z"/>
				<path class="st33" d="M263.7,327.1c6.5-2.9,13.8-2.7,20.9-1.9c1.2,0.1,2.4,0.3,3.5-0.1c1.8-0.6,2.9-2.5,4.2-3.9
					c4.6-5,13.6-4.1,18.1,1c4.5,5.1,4.5,13.2,1,19.1c-3.5,5.8-9.9,9.5-16.6,10.9c-8,1.7-16.6,0.3-23.6-3.9
					c-4.2,4.4-6.4,10.6-5.9,16.6c-2.4-1.6-5.3-2.4-8.1-2.4c-5.3,0-5.6-1.5-6-5.9c-0.4-4-1.3-7.5-0.7-11.5
					C251.7,337.4,256.5,330.3,263.7,327.1z"/>
				<path class="st33" d="M269.6,379.3c2.4,1.8,4.2,4.5,7,5.5c4.1,1.4,8.9-1.5,10.5-5.6c0.4-1,0.7-2.2,1.3-3.1c1.6-2.5,5-2.8,8-2.9
					c3.9-0.1,8.6,0.2,10.6,3.6c0.8,1.4,0.9,3.1,1,4.8c0.2,3,0.4,6,0.6,9c0.2,3.2,0.4,6.7-1.5,9.4c-2.3,3.3-6.8,4.1-10.8,4.3
					c-3.4,0.2-6.8,0.1-10-0.8c-4.1-1.1-7.7-3.5-11.3-5.9c-4.9-3.2-10.2-6.9-12.9-12.2C259.2,379.3,264.1,375,269.6,379.3z"/>
			</g>
		</g>
	</g>
	<path class="st17" d="M243.7,489.3c0,0,7.9,15.8,25.2,14.1l-8.4-14.3L243.7,489.3z"/>
	<g>
		<path class="st34" d="M373.7,475.7h-65c-2.5,0-4.5-2-4.5-4.5v-62.3c0-2.5,2-4.5,4.5-4.5h65c2.5,0,4.5,2,4.5,4.5v62.3
			C378.2,473.6,376.2,475.7,373.7,475.7z"/>
		<path class="st19" d="M378,475.7h-65c-2.5,0-4.5-2-4.5-4.5v-62.3c0-2.5,2-4.5,4.5-4.5h65c2.5,0,4.5,2,4.5,4.5v62.3
			C382.5,473.6,380.5,475.7,378,475.7z"/>
		<rect x="324.8" y="437.8" class="st16" width="10" height="24.9"/>
		<rect x="340.9" y="428.1" class="st16" width="10" height="34.5"/>
		<rect x="359.1" y="417.8" class="st16" width="9.4" height="44.9"/>
	</g>
	<path class="st27" d="M301.5,432.7c1.1-2.1,2.3-4.3,4.2-5.8c3.6-2.7,8.7-1.9,13.2-0.8c1.2,0.3,2.5,0.6,3.3,1.6
		c0.6,0.7,0.8,1.6,1,2.5c0.3,1.3,0.6,2.5,0.9,3.8c0.4,1.5,0.4,3.6-1.1,4.1c-0.9,0.3-1.9-0.3-2.5-1.1c-0.6-0.8-0.9-1.7-1.4-2.6
		c-0.9-1.5-2.5-2.5-4.2-2.7c-1-0.1-2.2,0.1-2.8,1c-0.8,1.1-0.1,2.8,1,3.7c1.1,0.9,2.5,1.3,3.7,1.9c4.1,2.3,5.7,8.2,3.2,12.2
		c-0.3,0.5-0.7,1-0.9,1.6c-0.1,0.5-0.1,1-0.1,1.5c-0.2,1.7-1.4,3.1-2.8,4c-1.5,0.9-3.1,1.2-4.8,1.6c-0.5,0.1-1,0.2-1.5,0.1
		c-0.7-0.2-1.3-0.8-1.9-1.2c-0.8-0.5-1.8-0.7-2.7-1.1c-4.4-1.6-7.2-6-8.6-10.3C295.2,441.7,299.2,437.2,301.5,432.7z"/>
	<path class="st27" d="M380.6,426.2c-1.5-0.9-3.5-1.3-5.1-0.6c-1.3,0.6-2.2,1.7-2.9,2.9c-0.8,1.3-1.6,2.7-2.3,4
		c-0.6,1.1-1.1,2.5-0.3,3.4c0.9,0.9,2.5,0.3,3.5-0.6c0.9-0.9,1.9-2.1,3.2-2.2c1.4,0.9,0.5,3.1-0.8,4.2c-1.3,1.1-2.9,2-3.1,3.7
		c-0.1,1,0.5,1.9,0.9,2.8c0.9,2,1.2,4.3,0.8,6.4c-0.1,0.7-0.3,1.4-0.1,2c0.2,0.4,0.5,0.8,0.8,1.1c1.4,1.3,2.7,2.7,4.1,4
		c1.6-1.8,3.8-3.1,6.2-3.6c0.7-0.2,1.5-0.3,2.1-0.7c0.7-0.5,1-1.5,1.2-2.3C390.8,442.3,388.3,430.8,380.6,426.2z"/>
	<g>
		<path class="st27" d="M296.4,444.8c0,0-33.1,39.6-35.2,48.8c-2.1,9.2,11.6,14.2,19.1,4.9c7.5-9.3,25-41.4,25-41.4
			S296.3,446.5,296.4,444.8z"/>
		<path class="st27" d="M245.5,476.3c0,0,6.1,28.9,23.3,27.2c17.2-1.7-5.4-30.5-5.4-30.5S250.7,472.2,245.5,476.3z"/>
		<path class="st35" d="M234.8,450c2.4,8.6,4.8,17.3,7.2,25.9c7.2,0.9,14.7-0.1,21.3-3c0.6-0.2,1.2-0.5,1.4-1.1
			c0.3-0.5,0.2-1.2,0-1.8c-1.8-9-3.7-18-5.7-27c-1-4.7-2.2-9.4-4.7-13.5c-4.1-6.6-15.6-11.3-21.7-4.1
			C228.1,431.3,233.2,444,234.8,450z"/>
	</g>
</g>
<g>
	<path class="st19" d="M331.4,364.9c-1.9,0-3.7-1.1-4.5-2.9c-0.9-2-0.4-4.2,1.2-5.6c0.2-0.1,0.3-0.3,0.5-0.4
		c4.5-4.3,4.9-11.4,0.7-16.6c-5.9-7.4-9.2-16.7-9.1-26.2c0.1-21.8,17.3-39.9,39-41.2l0,0c11.6-0.7,22.7,3.3,31.1,11.2
		c8.3,7.8,13.1,18.9,13.1,30.3c0,22.9-18.7,41.6-41.6,41.6c-2.8,0-5.7-0.3-8.5-0.9c-6.7,6.6-13.9,10.2-21.5,10.8
		C331.7,364.9,331.5,364.9,331.4,364.9z M359.3,274.7c-20.2,1.3-36.2,18.1-36.3,38.4c-0.1,9,2.9,17.4,8.5,24.4
		c5.1,6.3,4.6,15.1-1,20.4c-0.2,0.2-0.3,0.3-0.5,0.5c-0.8,0.7-0.8,1.7-0.5,2.4c0.3,0.7,1,1.3,2.1,1.2c7.1-0.6,13.9-4.1,20.2-10.5
		l0.6-0.6l0.8,0.2c2.9,0.7,5.9,1,8.7,1c21.4,0,38.8-17.4,38.8-38.8c0-10.8-4.3-20.8-12.2-28.3C380.5,277.7,370.2,274,359.3,274.7
		L359.3,274.7z"/>
	<g>
		<path class="st19" d="M348.7,314.4c0,3.9-3.2,7.1-7.1,7.1c-3.9,0-7.1-3.2-7.1-7.1c0-3.9,3.2-7.1,7.1-7.1
			C345.6,307.3,348.7,310.5,348.7,314.4z"/>
		<path class="st19" d="M371.2,314.4c0,3.9-3.2,7.1-7.1,7.1c-3.9,0-7.1-3.2-7.1-7.1c0-3.9,3.2-7.1,7.1-7.1
			C368,307.3,371.2,310.5,371.2,314.4z"/>
		<path class="st19" d="M393.6,314.4c0,3.9-3.2,7.1-7.1,7.1c-3.9,0-7.1-3.2-7.1-7.1c0-3.9,3.2-7.1,7.1-7.1
			C390.4,307.3,393.6,310.5,393.6,314.4z"/>
	</g>
</g>
<g>
	<rect x="428" y="303.4" class="st19" width="16.5" height="13.9"/>
	<polygon class="st19" points="428,307.1 418,301.3 418,319.4 428,313.6 	"/>
</g>
<g>
	<path class="st36" d="M197.8,324.7h-22c-2.2,0-4-1.8-4-4v-22c0-2.2,1.8-4,4-4h22c2.2,0,4,1.8,4,4v22
		C201.7,322.9,200,324.7,197.8,324.7z"/>
	<path class="st36" d="M233.9,324.7h-22c-2.2,0-4-1.8-4-4v-22c0-2.2,1.8-4,4-4h22c2.2,0,4,1.8,4,4v22
		C237.8,322.9,236.1,324.7,233.9,324.7z"/>
	<path class="st36" d="M270,324.7h-22c-2.2,0-4-1.8-4-4v-22c0-2.2,1.8-4,4-4h22c2.2,0,4,1.8,4,4v22C274,322.9,272.2,324.7,270,324.7
		z"/>
	<g class="st17">
		<path d="M256.1,314.6h-4.9v-8.8h4.9V314.6z M252.6,313.2h2.1v-6h-2.1V313.2z"/>
		<path d="M264.6,319.1l-9.9-5.7V307l9.9-5.7V319.1z M256.1,312.6l7.1,4.1v-12.9l-7.1,4.1V312.6z"/>
	</g>
	<g class="st17">
		<path d="M189.9,317.2c-0.5,0-1-0.2-1.4-0.5c-1.6-1.5-3.3-0.2-3.6,0c-0.8,0.7-2.1,0.6-2.8-0.2c-0.7-0.8-0.6-2.1,0.2-2.8
			c1.6-1.4,5.5-3.1,8.9,0c0.8,0.7,0.9,2,0.1,2.8C191,316.9,190.4,317.2,189.9,317.2z M186.9,314.5c0.8,0,1.7,0.3,2.6,1.1
			c0.2,0.2,0.6,0.2,0.8,0c0.2-0.2,0.2-0.6,0-0.8c-2.7-2.5-5.8-1.1-7,0c-0.2,0.2-0.3,0.6-0.1,0.8c0.2,0.2,0.6,0.3,0.8,0.1
			C184.6,315.1,185.7,314.5,186.9,314.5z"/>
		<path d="M192.4,313.3c-0.5,0-1-0.2-1.4-0.5c-4.1-3.8-8.5-0.1-8.6,0c-0.8,0.7-2.1,0.6-2.8-0.2c-0.4-0.4-0.5-0.9-0.5-1.5
			c0-0.5,0.3-1,0.7-1.4c2.5-2.2,8.6-4.9,14,0c0.8,0.7,0.9,2,0.1,2.8C193.5,313.1,193,313.3,192.4,313.3
			C192.5,313.3,192.4,313.3,192.4,313.3z M187,309.7c1.6,0,3.3,0.5,5,2.1c0.1,0.1,0.3,0.2,0.4,0.2c0.2,0,0.3-0.1,0.4-0.2
			c0.2-0.2,0.2-0.6,0-0.8c-4.7-4.3-10-1.9-12.1,0c-0.1,0.1-0.2,0.2-0.2,0.4c0,0.2,0,0.3,0.1,0.4c0.2,0.2,0.5,0.4,0.8,0.1
			C181.6,311.7,184,309.7,187,309.7z"/>
		<path d="M195.6,309.8c-0.5,0-1-0.2-1.4-0.5c-7.2-6.6-14.7-0.2-15,0c-0.8,0.7-2.1,0.6-2.8-0.2c-0.7-0.8-0.6-2.1,0.2-2.8
			c0.1-0.1,10.5-8.9,20.3,0c0.4,0.4,0.6,0.9,0.7,1.4c0,0.5-0.2,1.1-0.5,1.4C196.7,309.6,196.1,309.8,195.6,309.8z M187.1,304.9
			c2.5,0,5.3,0.8,8,3.4c0.2,0.2,0.6,0.2,0.8,0c0.1-0.1,0.2-0.3,0.2-0.4c0-0.2-0.1-0.3-0.2-0.4c-8.9-8.1-18.1-0.3-18.5,0
			c-0.2,0.2-0.3,0.6-0.1,0.8c0.2,0.2,0.6,0.3,0.8,0.1C178.5,308.1,182.3,304.9,187.1,304.9z"/>
	</g>
	<path class="st17" d="M226.9,321c-0.9,0-1.7-0.3-2.4-0.9c-2.4-2.2-0.1-4.9,0.8-5.8c-1-2.6-2.4-4.8-4.4-7.1c-0.9,0.5-2,0.7-3.1,0.5
		c-1.3-0.2-2.3-0.9-3-1.9l0,0c-0.7-1.1-0.8-2.4-0.2-3.7c0.6-1.3,1.7-2.3,3.1-2.6c3.6-0.7,6.5,2.1,8.2,3.8c2.4,2.4,3.8,5.6,4.8,8.1
		c2.2,5.9-0.5,8.3-1.4,8.9C228.5,320.8,227.7,321,226.9,321z M221.1,305.3l0.4,0.5c2.5,2.7,4.1,5.3,5.3,8.4l0.1,0.4l-0.5,0.6
		c-1.4,1.6-2.1,2.8-0.9,3.9c0.8,0.7,2,0.7,3,0c1.4-0.9,2.3-3.3,0.9-7.2c-0.9-2.4-2.2-5.4-4.5-7.6c-1.6-1.6-4-4-6.9-3.4
		c-0.9,0.2-1.7,0.9-2.1,1.8c-0.4,0.8-0.3,1.7,0.1,2.4l0,0c0.4,0.7,1.1,1.1,2,1.3c0.9,0.2,1.9-0.1,2.5-0.6L221.1,305.3z"/>
	<g>
		<path class="st37" d="M258.9,314.6H254v-8.8h4.9V314.6z M255.4,313.2h2.1v-6h-2.1V313.2z"/>
		<path class="st37" d="M267.4,319.1l-9.9-5.7V307l9.9-5.7V319.1z M258.9,312.6l7.1,4.1v-12.9l-7.1,4.1V312.6z"/>
	</g>
	<g>
		<path class="st37" d="M192.7,317.2c-0.5,0-1-0.2-1.4-0.5c-1.6-1.5-3.3-0.2-3.6,0c-0.8,0.7-2.1,0.6-2.8-0.2
			c-0.7-0.8-0.6-2.1,0.2-2.8c1.6-1.4,5.5-3.1,8.9,0c0.8,0.7,0.9,2,0.1,2.8C193.8,316.9,193.3,317.2,192.7,317.2z M189.7,314.5
			c0.8,0,1.7,0.3,2.6,1.1c0.2,0.2,0.6,0.2,0.8,0c0.2-0.2,0.2-0.6,0-0.8c-2.7-2.5-5.8-1.1-7,0c-0.2,0.2-0.3,0.6-0.1,0.8
			c0.2,0.2,0.6,0.3,0.8,0.1C187.5,315.1,188.5,314.5,189.7,314.5z"/>
		<path class="st37" d="M195.2,313.3c-0.5,0-1-0.2-1.4-0.5c-4.1-3.8-8.5-0.1-8.6,0c-0.8,0.7-2.1,0.6-2.8-0.2
			c-0.4-0.4-0.5-0.9-0.5-1.5c0-0.5,0.3-1,0.7-1.4c2.5-2.2,8.6-4.9,14,0c0.8,0.7,0.9,2,0.1,2.8C196.4,313.1,195.9,313.3,195.2,313.3
			C195.3,313.3,195.3,313.3,195.2,313.3z M189.8,309.7c1.6,0,3.3,0.5,5,2.1c0.1,0.1,0.3,0.2,0.4,0.2c0.2,0,0.3-0.1,0.4-0.2
			c0.2-0.2,0.2-0.6,0-0.8c-4.7-4.3-10-1.9-12.1,0c-0.1,0.1-0.2,0.2-0.2,0.4c0,0.2,0,0.3,0.1,0.4c0.2,0.2,0.5,0.4,0.8,0.1
			C184.5,311.7,186.8,309.7,189.8,309.7z"/>
		<path class="st37" d="M198.4,309.8c-0.5,0-1-0.2-1.4-0.5c-7.2-6.6-14.7-0.2-15,0c-0.8,0.7-2.1,0.6-2.8-0.2
			c-0.7-0.8-0.6-2.1,0.2-2.8c0.1-0.1,10.5-8.9,20.3,0c0.4,0.4,0.6,0.9,0.7,1.4c0,0.5-0.2,1.1-0.5,1.4
			C199.5,309.6,199,309.8,198.4,309.8z M190,304.9c2.5,0,5.3,0.8,8,3.4c0.2,0.2,0.6,0.2,0.8,0c0.1-0.1,0.2-0.3,0.2-0.4
			c0-0.2-0.1-0.3-0.2-0.4c-8.9-8.1-18.1-0.3-18.5,0c-0.2,0.2-0.3,0.6-0.1,0.8c0.2,0.2,0.6,0.3,0.8,0.1
			C181.4,308.1,185.1,304.9,190,304.9z"/>
	</g>
	<path class="st37" d="M229.8,321c-0.9,0-1.7-0.3-2.4-0.9c-2.4-2.2-0.1-4.9,0.8-5.8c-1-2.6-2.4-4.8-4.4-7.1c-0.9,0.5-2,0.7-3.1,0.5
		c-1.3-0.2-2.3-0.9-3-1.9l0,0c-0.7-1.1-0.8-2.4-0.2-3.7c0.6-1.3,1.7-2.3,3.1-2.6c3.6-0.7,6.5,2.1,8.2,3.8c2.4,2.4,3.8,5.6,4.8,8.1
		c2.2,5.9-0.5,8.3-1.4,8.9C231.4,320.8,230.6,321,229.8,321z M223.9,305.3l0.4,0.5c2.5,2.7,4.1,5.3,5.3,8.4l0.1,0.4l-0.5,0.6
		c-1.4,1.6-2.1,2.8-0.9,3.9c0.8,0.7,2,0.7,3,0c1.4-0.9,2.3-3.3,0.9-7.2c-0.9-2.4-2.2-5.4-4.5-7.6c-1.6-1.6-4-4-6.9-3.4
		c-0.9,0.2-1.7,0.9-2.1,1.8c-0.4,0.8-0.3,1.7,0.1,2.4l0,0c0.4,0.7,1.1,1.1,2,1.3c0.9,0.2,1.9-0.1,2.5-0.6L223.9,305.3z"/>
</g>
<g>
	<g>
		<path class="st21" d="M635.1,439.1h-103c-2.3,0-4.2-1.9-4.2-4.2l0,0c0-2.3,1.9-4.2,4.2-4.2h103c2.3,0,4.2,1.9,4.2,4.2l0,0
			C639.3,437.3,637.4,439.1,635.1,439.1z"/>
		<path class="st38" d="M533.8,439.1h-103c-2.3,0-4.2-1.9-4.2-4.2l0,0c0-2.3,1.9-4.2,4.2-4.2h103c2.3,0,4.2,1.9,4.2,4.2l0,0
			C538,437.3,536.1,439.1,533.8,439.1z"/>
		<g>
			<path class="st39" d="M510.3,439.1c0,0-37.7,25-17.9,125.2h-68.1c0,0-1.5-84.7,54.6-125.2H510.3z"/>
			<path class="st11" d="M503.9,439.1c0,0-37.7,25-17.9,125.2h-68.1c0,0-1.5-84.7,54.6-125.2H503.9z"/>
			<path class="st17" d="M472.6,439.1c-1.8,1.3-3.6,2.7-5.3,4.1c0,0,8.7,4.1,10.6,13.9c1.9,9.8-13,38-5.3,46.3
				c2,2.1,4.7,2.8,7.8,2.5c1.4-52.1,23.6-66.8,23.6-66.8H472.6z"/>
		</g>
		<g>
			<path class="st39" d="M618,439.1c0,0-37.7,25-17.9,125.2H532c0,0-1.5-84.7,54.6-125.2H618z"/>
			<path class="st11" d="M611.6,439.1c0,0-37.7,25-17.9,125.2h-68.1c0,0-1.5-84.7,54.6-125.2H611.6z"/>
			<path class="st17" d="M580.2,439.1c-1.8,1.3-3.6,2.7-5.3,4.1c0,0,8.7,4.1,10.6,13.9c1.9,9.8-13,38-5.3,46.3
				c2,2.1,4.7,2.8,7.8,2.5c1.4-52.1,23.6-66.8,23.6-66.8H580.2z"/>
		</g>
	</g>
	<g>
		<path class="st40" d="M548.5,387.9c0,0,18.6,43.4,33.2,42.9c14.6-0.5,14.6-14.9,7.5-21.4c-7.1-6.6-21.2-27.8-27.9-28.1
			C554.6,380.9,548.8,380.1,548.5,387.9z"/>
		<g>
			<path class="st27" d="M577.6,533.1c0,0,5.3,12.5,11.4,10.9c6.1-1.6,2.9-13.5,2.9-13.5S583.7,527.5,577.6,533.1z"/>
			<path class="st32" d="M580.2,538c0,0-4.2,0-3.9,2.1c0.3,2.1,0,2.7,0,4.1c0,1.4-7.3,4.3-10.2,5.1c-2.9,0.8-8.6-3.4-13.4,0
				c-3.4,2.4-4.6,7.7-3.1,10.6c1.5,2.9,42.8,0.5,45.1,0c2.4-0.5,4.5-6,3.2-10.3c-1.3-4.3-5.3-10.4-5.3-10.4S586.6,543.2,580.2,538z"
				/>
			<path class="st35" d="M549.6,560c0,0,45.3-0.3,46.3,0c0,0,0,2.1-1.2,3.7c-1.2,1.6-11.9,1-14.5,1.2l-2.7-2.4c0,0-3.4,2-4.6,2.4
				c-1.2,0.4-23.3,0-23.3,0C547,564.3,546.8,561.6,549.6,560z"/>
		</g>
		<g>
			<path class="st27" d="M536.4,533.1c0,0,5.3,12.5,11.4,10.9c6.1-1.6,2.9-13.5,2.9-13.5S542.4,527.5,536.4,533.1z"/>
			<path class="st32" d="M538.9,538c0,0-4.2,0-3.9,2.1c0.3,2.1,0,2.7,0,4.1c0,1.4-7.3,4.3-10.2,5.1c-2.9,0.8-8.6-3.4-13.4,0
				c-3.4,2.4-4.6,7.7-3.1,10.6c1.5,2.9,42.8,0.5,45.1,0c2.4-0.5,4.5-6,3.2-10.3c-1.3-4.3-5.3-10.4-5.3-10.4S545.3,543.2,538.9,538z"
				/>
			<path class="st35" d="M508.4,560c0,0,45.3-0.3,46.3,0c0,0,0,2.1-1.2,3.7c-1.2,1.6-11.9,1-14.5,1.2l-2.7-2.4c0,0-3.4,2-4.6,2.4
				c-1.2,0.4-23.3,0-23.3,0C505.7,564.3,505.5,561.6,508.4,560z"/>
		</g>
		<g>
			<path class="st27" d="M521.5,370.8c0,0,3.7-5.2,5.7-6.6c2-1.4,10.7-1.4,13.9,1.7c3.2,3.1,5.4,1.2,5.9,3.1
				c0.6,1.9,3.1,3.5,0.3,4.2c-1.6,0.4-2.2-0.2-4.6-1.2c-0.8-0.3-2.2-0.1-2.2-0.1s-2.6,5.4-4,5.7c-1.4,0.3-4.7,0.9-4.7,0.9
				S522.5,375.6,521.5,370.8z"/>
			<path class="st27" d="M537.4,373.5c0,0,2.1-0.7,3.8,0c1.6,0.7,5.5,0.4,5.9,1.4c0.4,1.1-0.7,3-4,2.8c-3.3-0.2-5.1,0.7-6.6,0
				C535,377,535.6,374.6,537.4,373.5z"/>
		</g>
		<g>
			<path class="st27" d="M552.6,380.5c0,0-5.9-2.4-8.3-2.6c-2.4-0.1-9.8,4.5-10.9,8.8c-1.1,4.3-3.9,3.8-3.4,5.8
				c0.6,1.9-0.8,4.6,2,3.7c1.5-0.5,1.7-1.4,3.3-3.4c0.5-0.7,1.8-1.2,1.8-1.2s5.1,3.2,6.4,2.7c1.3-0.5,4.5-1.8,4.5-1.8
				S554.2,385.2,552.6,380.5z"/>
			<path class="st27" d="M540.4,391.3c0,0-2.2,0.5-3.2,2c-1,1.5-4.5,3.2-4.2,4.3c0.3,1.1,2.2,2.2,4.9,0.2c2.7-1.9,4.7-2.1,5.6-3.5
				C544.4,392.9,542.6,391.3,540.4,391.3z"/>
		</g>
		<path class="st41" d="M570.9,449.5c0,0-32.3-3-41.6,11.3c-11.6,17.7,35.8,68.1,46.1,74.1c0,0,16.8,1.2,22-5.2
			c0,0-11.8-16.3-16.7-23.8c-7.2-11-9-15.3-14.9-29c0,0,9.6,4.5,30.2,4c20.6-0.5,35.2-10.3,28.9-34.9
			C618.6,421.4,576.4,450.4,570.9,449.5z"/>
		<path class="st42" d="M570.9,444.8c0,0-39.8,0.6-53.8,10.3c-13.9,9.7,6.7,73.8,17,79.8c0,0,16.8,1.2,22-5.2c0,0-8.1-18.6-9.4-27.4
			c-1.1-7.2-2.3-11.1-8.2-24.7c0,0,39.9,3.9,60.6,3.4c20.6-0.5,32.1-10.2,25.9-34.9C618.6,421.4,576.4,445.7,570.9,444.8z"/>
		<path class="st27" d="M531.9,326c-0.4,3.9-0.2,6.5,1.4,15.3c1.6,8.7-4,20.6,4.4,23.8c8.3,3.2,20-2.6,24.2-7.5
			c5.2-6.1,10.2-14.5,8.7-29.8C569,310.9,534.5,301.7,531.9,326z"/>
		<path class="st33" d="M526.8,303.9c0,0-8.5,18.7,0.4,27.2c8.6,8.2,21.6,7.4,21.6,7.4s-11-3.3-12-6.5c0,0,14.8,5.8,17,5.6
			c2.2-0.2,3.2-6,8.1-5c5,1,4.2,10.9,2,14.3c-2.2,3.4-3.8,3.2-3.8,4.4c0,1.2,0,7.9,6.5,7.7c6.5-0.2,7.9-7,9.3-12.5
			c1.4-5.6,4.5-14.9,4.7-21.4c0.2-8.3-5.9-21.1-17.6-22.5S538.9,308.5,526.8,303.9z"/>
		<path class="st32" d="M573.4,362c-8,2.9-14,5.3-18.8,9.3c-4.8,4-23.3,27.3-25.9,28.6c-2.6,1.3-14.8,7.9-19.8,15.2
			c-3.1,4.5-6.2,15.3,5.8,16.6c14.6,1.6,27-13,34.4-16.7c7.4-3.7,18.6-12,21.8-9.9c3.2,2.1,5.8,20.5,0,34.5c-5.8,14,15,10.2,22.4,11
			c7.4,0.8,24.7,14.2,31.6-3c6.9-17.2,2-39.1,0.9-45.6c-2.1-11.9-16.1-39.6-38.2-44.7C580.6,355.6,577.4,360.5,573.4,362z"/>
		<path class="st35" d="M558.1,367.3c-0.1-0.1-3.4-2.3-1.3-5.6c2.1-3.4,16.9-7.2,17.6-9.2c0.7-2.1,5-0.4,7.2,3.7
			C583.7,360.1,567.6,370.8,558.1,367.3z"/>
		<path class="st32" d="M507.9,427.3c0,0-4.3-8.3,0-23.1c4.3-14.8,9.1-26.5,9.1-26.5s9.5-1.1,12.2,5.3c0,0,0.7,40.8-7.4,44.8
			C513.7,431.9,507.9,427.3,507.9,427.3z"/>
		<path class="st35" d="M517,377.7l3.4-7.3c0,0,9.2,3.4,11.3,8.1l-2.5,4.5C529.2,383,519,381.1,517,377.7z"/>
		<path class="st43" d="M591.4,458.4c-7.1-0.2-13.2-3.8-19.1-7.4c-1.6-1-3,1.5-1.4,2.4c6.4,3.9,12.9,7.6,20.5,7.8
			C593.2,461.3,593.2,458.4,591.4,458.4z"/>
	</g>
	<g>
		<path class="st44" d="M484.3,419v-6.4c0-4.2,3.4-7.7,7.7-7.7c4.2,0,7.7,3.4,7.7,7.7v6.4c0,4.2-3.4,7.7-7.7,7.7
			C487.8,426.7,484.3,423.2,484.3,419z M487.6,412.6v6.4c0,2.4,2,4.4,4.4,4.4c2.4,0,4.4-2,4.4-4.4v-6.4c0-2.4-2-4.4-4.4-4.4
			C489.6,408.2,487.6,410.2,487.6,412.6z"/>
		<path class="st44" d="M467.9,430.9h21.1c1.2,0,2.1-0.9,2.1-2.1v-24.9c0-1.2-0.9-2.1-2.1-2.1h-21.1c-1.2,0-2.1,0.9-2.1,2.1v24.9
			C465.8,430,466.7,430.9,467.9,430.9z"/>
	</g>
	<g>
		<rect x="589.4" y="506" class="st12" width="9.6" height="32.3"/>
		<path class="st12" d="M622.8,556c-1.3,0-2.5-0.8-3-2.1c-0.2-0.5-5.1-12.7-24.6-12.7c-19.6,0-24.8,12.2-25,12.7
			c-0.7,1.6-2.5,2.4-4.1,1.8c-1.6-0.6-2.4-2.5-1.8-4.1c0.3-0.7,6.8-16.8,30.9-16.8c24.2,0,30.4,16.1,30.6,16.8
			c0.6,1.6-0.2,3.5-1.9,4.1C623.6,555.9,623.2,556,622.8,556z"/>
		<g>
			<path class="st21" d="M630.8,557.4c0,4.3-3.5,7.7-7.7,7.7c-4.3,0-7.7-3.5-7.7-7.7c0-4.3,3.5-7.7,7.7-7.7
				C627.3,549.7,630.8,553.1,630.8,557.4z"/>
			<path class="st4" d="M626.5,557.4c0,1.9-1.5,3.4-3.4,3.4c-1.9,0-3.4-1.5-3.4-3.4c0-1.9,1.5-3.4,3.4-3.4
				C625,554,626.5,555.5,626.5,557.4z"/>
		</g>
		<g>
			<path class="st21" d="M636.6,557.4c0,4.3-3.5,7.7-7.7,7.7c-4.3,0-7.7-3.5-7.7-7.7c0-4.3,3.5-7.7,7.7-7.7
				C633.1,549.7,636.6,553.1,636.6,557.4z"/>
			<path class="st4" d="M632.3,557.4c0,1.9-1.5,3.4-3.4,3.4c-1.9,0-3.4-1.5-3.4-3.4c0-1.9,1.5-3.4,3.4-3.4
				C630.7,554,632.3,555.5,632.3,557.4z"/>
		</g>
		<g>
			<path class="st21" d="M569.2,557.4c0,4.3-3.5,7.7-7.7,7.7c-4.3,0-7.7-3.5-7.7-7.7c0-4.3,3.5-7.7,7.7-7.7
				C565.8,549.7,569.2,553.1,569.2,557.4z"/>
			<path class="st4" d="M564.9,557.4c0,1.9-1.5,3.4-3.4,3.4c-1.9,0-3.4-1.5-3.4-3.4c0-1.9,1.5-3.4,3.4-3.4
				C563.4,554,564.9,555.5,564.9,557.4z"/>
		</g>
		<g>
			<path class="st21" d="M575,557.4c0,4.3-3.5,7.7-7.7,7.7s-7.7-3.5-7.7-7.7c0-4.3,3.5-7.7,7.7-7.7S575,553.1,575,557.4z"/>
			<path class="st4" d="M570.7,557.4c0,1.9-1.5,3.4-3.4,3.4s-3.4-1.5-3.4-3.4c0-1.9,1.5-3.4,3.4-3.4S570.7,555.5,570.7,557.4z"/>
		</g>
		<rect x="587.3" y="495" class="st45" width="13.8" height="14.7"/>
		<g>
			
				<rect x="598.7" y="500.6" transform="matrix(0.9091 0.4165 -0.4165 0.9091 264.2289 -207.5322)" class="st21" width="18" height="2.2"/>
			<path class="st46" d="M628.4,514.6l-16.2-7.4c-1.6-0.7-2.2-2.6-1.5-4.1l0,0c0.7-1.6,2.6-2.2,4.1-1.5l16.2,7.4
				c1.6,0.7,2.2,2.6,1.5,4.1l0,0C631.8,514.7,629.9,515.4,628.4,514.6z"/>
		</g>
		<g>
			<path class="st46" d="M587.7,381.2c1.2-4.7,5.8-7.7,10.6-7.2c9.2,0.9,27.6,1.5,36.3-2.9c23.8-12.3,15.6,27.2,12.8,32.8
				c-2.8,5.7-35.8,12.1-49.7,7.1C587.7,407.4,585,391.2,587.7,381.2z"/>
			<path class="st4" d="M596.2,381.2c1.2-4.7,5.8-7.7,10.6-7.2c9.2,0.9,27.9,1.9,36.3-2.9c11.4-6.5,7.1,27.2,4.3,32.8
				c-2.8,5.7-27.3,12.1-41.1,7.1C596.2,407.4,593.6,391.2,596.2,381.2z"/>
		</g>
		<path class="st4" d="M626.1,496.4c-20.4,3.7-41.4,3.7-61.8,0c-8.1-1.5-13-8.6-11-15.2l0,0c1.9-6.6,8.8-10.4,15.5-9.1
			c17.5,3.2,35.4,3.2,52.9,0c6.7-1.2,13.6,2.6,15.5,9.1l0,0C639.1,487.8,634.2,495,626.1,496.4z"/>
		<path class="st46" d="M636.5,479.4c-1.7,3.7-5.5,6.7-10.4,7.6c-20.4,3.7-41.4,3.7-61.8,0c-4.9-0.9-8.6-3.9-10.4-7.6
			c-0.3,0.6-0.5,1.2-0.7,1.8c-1.9,6.5,3,13.7,11,15.2c20.4,3.7,41.4,3.7,61.8,0c8.1-1.5,13-8.6,11-15.2
			C637,480.6,636.8,480,636.5,479.4z"/>
		<ellipse class="st17" cx="628.2" cy="483.5" rx="9.4" ry="11.4"/>
		<path class="st21" d="M631.7,487.2c-1.2,0-2.4-0.4-3.5-1.2c-2.4-1.9-2.8-5.4-0.9-7.8c30.3-37.9,1.8-76.1,1.5-76.4
			c-1.9-2.4-1.4-5.9,1-7.8c2.4-1.9,5.9-1.4,7.8,1c0.3,0.4,34,45.5-1.7,90.1C635,486.5,633.4,487.2,631.7,487.2z"/>
	</g>
</g>
</svg>
