<?xml version="1.0" encoding="utf-8"?>
<!-- Generator: Adobe Illustrator 22.1.0, SVG Export Plug-In . SVG Version: 6.00 Build 0)  -->
<svg version="1.1" id="Layer_1" xmlns="http://www.w3.org/2000/svg" xmlns:xlink="http://www.w3.org/1999/xlink" x="0px" y="0px"
	 viewBox="0 0 678 620" style="enable-background:new 0 0 678 620;" xml:space="preserve">
<style type="text/css">
	.st0{clip-path:url(#SVGID_2_);}
	.st1{fill:#56547F;}
	.st2{clip-path:url(#SVGID_4_);fill:#5E5E91;}
	.st3{clip-path:url(#SVGID_6_);fill:#E0E0F3;}
	.st4{clip-path:url(#SVGID_8_);}
	.st5{fill:#7491B0;}
	.st6{fill:#5E5E91;}
	.st7{fill:#E0E0F3;}
	.st8{opacity:0.3;fill:#FFFFFF;enable-background:new    ;}
	.st9{fill:#CCCCE6;}
	.st10{fill:#D1D1F3;}
	.st11{fill:#445A8C;}
	.st12{fill:#5570B0;}
	.st13{fill:#88ABCF;}
	.st14{fill:#344C63;}
	.st15{opacity:0.3;fill:url(#SVGID_9_);enable-background:new    ;}
	.st16{opacity:0.1;fill:#EBEBF3;enable-background:new    ;}
	.st17{fill:#FF7911;}
	.st18{opacity:0.2;enable-background:new    ;}
	.st19{opacity:0.7;fill:#F5F6F8;enable-background:new    ;}
	.st20{fill:#F5F6F8;}
	.st21{opacity:0.6;fill:#F5F6F8;enable-background:new    ;}
	.st22{fill:#353647;}
	.st23{opacity:0.5;fill:#FF455A;enable-background:new    ;}
	.st24{fill:#34B980;}
	.st25{fill:#268A5F;}
	.st26{opacity:0.15;enable-background:new    ;}
	.st27{fill:#FFBD30;}
	.st28{fill:#EDAC90;}
	.st29{clip-path:url(#SVGID_11_);}
	.st30{fill:#5780A6;}
	.st31{fill:#446482;}
	.st32{clip-path:url(#SVGID_13_);}
	.st33{fill:#282828;}
	.st34{fill:#3B3B3B;}
	.st35{fill:#1E1E1E;}
	.st36{fill:#606060;}
	.st37{fill:#525252;}
	.st38{opacity:0.6;fill:#A7CDF2;enable-background:new    ;}
	.st39{opacity:0.2;}
	.st40{fill:#FFFFFF;}
	.st41{fill:#45465C;}
	.st42{fill:#44598C;}
	.st43{fill:#262626;}
	.st44{fill:#694521;}
	.st45{fill:#805529;}
	.st46{fill:#B87A3B;}
	.st47{fill:#3463A6;}
	.st48{fill:#565773;}
	.st49{fill:#55779C;}
	.st50{fill:#1CBFFF;}
	.st51{fill:#FDB636;}
	.st52{fill:#322C74;}
	.st53{fill:#5A4FD1;}
	.st54{fill:#F2EEE5;}
	.st55{fill:#C9C6BF;}
	.st56{fill:#FB7246;}
	.st57{fill:#FBBD58;}
	.st58{fill:#CC5339;}
	.st59{fill:#FB7558;}
	.st60{fill:#F2A930;}
	.st61{fill:#8EC2FC;}
	.st62{fill:#FFFDFA;}
	.st63{fill:#7AD18C;}
	.st64{fill:#6BB87B;}
	.st65{fill:#6BD5FF;}
	.st66{fill:#19ABE4;}
	.st67{fill:#0C9FD9;}
	.st68{fill:#048DC5;}
</style>
<g>
	<g>
		<path class="st1" d="M660,451.6c3-17.8,4.6-36.1,4.6-54.8c0-180.1-146-326-326-326s-326,146-326,326c0,18.7,1.6,37,4.6,54.8H660z"
			/>
		<g>
			<path class="st7" d="M277,205.7h83.3c-0.3-1.8-0.8-3.2-1.5-4.9c-0.8-1.6-2.1-3.1-3.8-3.6c-2.1-0.7-4.4,0.1-6.5,0.6
				c-2.2,0.5-4.8,0.5-6.2-1.1c-0.6-0.7-0.9-1.6-1.2-2.4c-0.7-2-1.4-4.1-2.1-6.1c-0.8-2.3-2.2-5.1-4.7-5.1c-3.7,0.1-4.7,6.5-8.5,6.6
				c-1.6,0.1-2.9-1.2-3.6-2.6c-0.7-1.4-0.8-3-1.1-4.5c-0.7-4.2-2.2-8.2-4.4-11.8c-1.3-2.1-3.2-4.2-5.6-4.2c-2.4,0-4.3,1.9-5.6,3.9
				c-5,7.3-6.5,16.4-9.3,24.9c-0.5,1.6-1.4,3.4-3.1,3.6c-1.2,0.2-2.4-0.7-3.1-1.7c-0.7-1-1.2-2.1-2.1-3.1c-2.1-2.3-6.1-2.4-8.3-0.1
				c-0.9,0.9-1.4,2.1-1.8,3.3C276.9,199.9,276.9,202.9,277,205.7z"/>
			<path class="st7" d="M546.2,154h59c-0.2-1.3-0.5-2.3-1.1-3.4c-0.6-1.1-1.5-2.2-2.7-2.6c-1.5-0.5-3.1,0.1-4.6,0.4
				c-1.5,0.4-3.4,0.4-4.4-0.8c-0.4-0.5-0.6-1.1-0.8-1.7c-0.5-1.4-1-2.9-1.5-4.3c-0.6-1.7-1.6-3.6-3.3-3.6c-2.6,0.1-3.4,4.6-6,4.7
				c-1.1,0-2.1-0.8-2.6-1.8c-0.5-1-0.6-2.1-0.8-3.2c-0.5-3-1.5-5.8-3.1-8.4c-0.9-1.5-2.2-3-4-3c-1.7,0-3,1.4-4,2.7
				c-3.6,5.2-4.6,11.6-6.6,17.6c-0.4,1.1-1,2.4-2.2,2.5c-0.9,0.1-1.7-0.5-2.2-1.2c-0.5-0.7-0.9-1.5-1.5-2.2
				c-1.5-1.6-4.3-1.7-5.9-0.1c-0.6,0.7-1,1.5-1.3,2.3C546.1,150,546.1,152.1,546.2,154z"/>
			<path class="st7" d="M50.4,183.2h123c1.2-2.8-1.4-6.6-4.5-6.3c-1.5,0.1-2.8,1-4.3,1.2c-3,0.3-5.5-2.2-7.3-4.6
				c-1.8-2.4-3.8-5.2-6.8-5.6c-2.9-0.4-5.7,1.5-8.6,1.2c-3.6-0.4-5.9-4-7.2-7.4c-4.2-11.1-3.9-23.6-8.9-34.3
				c-0.8-1.7-1.8-3.5-3.5-4.3c-2.3-1.2-5.2-0.4-7.1,1.2c-2,1.7-3.1,4-4.1,6.4c-2.4,5.7-4.1,11.8-4.9,18c-0.3,2.1-0.5,4.2-1.3,6
				c-0.9,1.9-2.7,3.5-4.7,3.5c-4,0-6.3-5.6-10.3-5.8c-2.6-0.2-4.7,2-5.8,4.3c-1.1,2.3-1.5,5-2.7,7.2c-1.2,2.3-3.6,4.3-6.1,3.8
				c-2.4-0.5-4.2-3.1-6.7-3c-2.2,0-3.8,2.2-4.3,4.3c-0.5,2.1-0.4,4.3-1,6.4c-0.4,1.4-2.4,1.6-3.8,1.9c-0.6,0.1-1.2,0.2-1.8,0.2
				c-1.9,0.2-3.8,0.9-5.3,2.2C50.7,180.9,50.4,181.3,50.4,183.2z"/>
			<path class="st7" d="M394.9,137.7h61.8c0.6-1.4-0.7-3.3-2.3-3.2c-0.7,0.1-1.4,0.5-2.2,0.6c-1.5,0.2-2.8-1.1-3.7-2.3
				c-0.9-1.2-1.9-2.6-3.4-2.8c-1.5-0.2-2.9,0.8-4.3,0.6c-1.8-0.2-2.9-2-3.6-3.7c-2.1-5.6-1.9-11.9-4.5-17.3
				c-0.4-0.9-0.9-1.7-1.8-2.2c-1.1-0.6-2.6-0.2-3.6,0.6s-1.6,2-2.1,3.2c-1.2,2.9-2,5.9-2.5,9c-0.1,1-0.2,2.1-0.7,3
				c-0.4,0.9-1.3,1.7-2.4,1.8c-2,0-3.1-2.8-5.2-2.9c-1.3-0.1-2.4,1-2.9,2.2c-0.5,1.2-0.8,2.5-1.3,3.6c-0.6,1.1-1.8,2.2-3.1,1.9
				c-1.2-0.2-2.1-1.6-3.4-1.5c-1.1,0-1.9,1.1-2.2,2.1c-0.3,1.1-0.2,2.2-0.5,3.2c-0.2,0.7-1.2,0.8-1.9,0.9c-0.3,0.1-0.6,0.1-0.9,0.1
				c-1,0.1-1.9,0.5-2.7,1.1C395.1,136.5,394.9,136.7,394.9,137.7z"/>
			<g>
				<path class="st49" d="M661.8,447.1c-1.1,58.4-145.4,105.6-323.2,105.6c-24.2,0-47.8-0.9-70.5-2.5
					C124,539.6,16.2,497.5,15.3,447.1H661.8z"/>
				<path class="st5" d="M520.8,447.1c-1,50.4-108.8,92.6-252.8,103.1C124,539.6,16.2,497.5,15.3,447.1H520.8z"/>
				<ellipse class="st50" cx="338.5" cy="446.3" rx="323.3" ry="55.1"/>
			</g>
			<g>
				<path class="st51" d="M159.5,349.5l3.8-4.2l21.2,41c0,2.1,11.5,2.1,11.5,0l-25.6-51.5c-2.1-4.2-6.9-6.3-11.3-4.9
					c-1,0.3-2.1,0.7-3.2,1.2L159.5,349.5z"/>
				<polygon class="st51" points="133.5,291.9 128.4,307.1 123.3,305.4 128.4,288.6 				"/>
				<path class="st52" d="M143.7,272.9c0,0,2.6,6.9-0.9,12l-5.4-6L143.7,272.9z"/>
				<g>
					<path class="st53" d="M183.9,452.6c-0.5,0-1-0.2-1.4-0.6c-0.8-0.8-0.9-2.1-0.1-2.9l112-117.3c0.8-0.8,2.1-0.8,2.9-0.1
						c0.8,0.8,0.9,2.1,0.1,2.9L185.4,452C185,452.4,184.4,452.6,183.9,452.6z"/>
				</g>
				<g>
					<g>
						<path class="st51" d="M288.1,329c-21.1,1-44.6-7.3-57.2-12.7l1.3,16.6c0.4-0.5,0.6-0.9,0.6-0.9c13.4,4,56.8,1.6,56.8,1.6
							L288.1,329z"/>
						<path class="st51" d="M286.5,331.2c0,0,2.6,6.3,8.3,2.8l0.4,1.2c0.4,1.1,1.7,1.5,2.7,0.8l2.4-1.7c1-0.7,1.2-2.1,0.4-3.1
							l-1.8-2.2c-0.5-0.6-1.2-0.9-1.9-0.8l-10.7,0.8L286.5,331.2z"/>
						<path class="st52" d="M230.8,316.1l1.3,17.3l10.4,3.8c5.5-5.6,5.8-15.9,5.8-15.9S239.7,319.5,230.8,316.1z"/>
					</g>
				</g>
				<g>
					<path class="st51" d="M248.4,300.6l-1.6,2.2c-0.4,0.5-0.6,1.1-0.6,1.8v4.3c0,2.4-2,4.4-4.4,4.4c-1,0-2.1-0.3-2.9-1l-1.4-1.2
						l-8.2-6.9v-12.5h14.9v3.9c0,1.8,1.4,3.2,3.2,3.2h0.2C248.4,298.8,249,299.8,248.4,300.6z"/>
					<polygon class="st51" points="236.9,307.2 231.9,322.4 226.8,320.7 231.9,303.9 					"/>
					<g>
						<path class="st51" d="M240.8,336.8c14.7,4.4,53,5.2,53,5.2l-1.1-4.7c-19.1-0.5-39.6-9.2-51.9-15.6V336.8z"/>
					</g>
					<path class="st52" d="M213.3,385.4c0,0,31.6-40,54.1-40c10.4,0,25.4,46.1,25.4,46.1c-2.7,2.3-8.5,2.2-9.8,0l-17.2-29.8
						l-16.3,22.3c-8,10.9-23.8,13.1-33.8,4C214.8,387.2,214,386.3,213.3,385.4z"/>
					<path class="st52" d="M233,301.9l2.8-2.8v-2.6c0-1.5,1.3-2.6,2.8-2.3l5.1,0.9c2.5,0.4,4.9-0.7,6.3-2.8c0.6-0.9,1.2-2,1.6-3.3
						c1.3-3.6-0.9-7.5-4.6-8.2c-2.2-0.4-4.2-0.4-4.2-0.4s2.8,0.5,3.3,3.7c0,0-1.9-1.7-5.8-1.7c0,0,2.5,1.7,2.5,3.3h-10.4
						c-5.6,0-9.9,4.9-9.2,10.5l1.7,12.2c0.3,2.1,2.1,3.6,4.2,3.6h2L233,301.9z"/>
					<path class="st52" d="M246.2,307.9v1c0,2.4-2,4.4-4.4,4.4c-1,0-2.1-0.3-2.9-1l-1.4-1.2c0,0-0.1-5.7-3.7-8.5l2-3.4
						c0,0,2.2,0.8,3,4.8C239.6,307.9,242.4,308.8,246.2,307.9z"/>
					<path class="st51" d="M236.6,301.1c0,1.6-1.3,2.8-2.8,2.8s-2.8-1.3-2.8-2.8c0-1.6,1.3-2.8,2.8-2.8S236.6,299.5,236.6,301.1z"/>
				</g>
				<path class="st53" d="M244,323.3c-4.9-2.4-8.9-4.7-11.4-6.2c-2.6-1.6-6-1.7-8.6,0c-5.2,3.3-10,8.1-14.1,15.5
					c-0.3,0.6-0.7,1.3-1,1.9c-0.5,1-1,2.1-1.5,3.2c-0.3,0.7-0.6,1.4-0.9,2.1c-1.3,3.1-2.4,6.6-3.4,10.4
					c-5.6,21.2,12.7,37.8,12.7,37.8l20.2-23.8c-3-4.8-3.7-9.4-3.3-13.5c0.1-0.7,0.1-1.4,0.3-2.1c0.2-1.2,0.5-2.3,0.9-3.4
					c0.2-0.7,0.5-1.4,0.7-2c0.9-2,1.8-3.7,2.6-4.9c0.9-1.4,1.6-2.2,1.6-2.2c1.4,0.5,3.2,1,5.2,1.5V323.3z"/>
				<path class="st53" d="M237.9,337.3l10.1,4.7c5.8-5.1,6.8-15.4,6.8-15.4s-12.3-3.7-22.1-9.5l-4,12.4L237.9,337.3z"/>
				<g>
					<path class="st40" d="M234.5,343.2c-0.2,0.6-0.5,1.3-0.7,2c-13.7-1.8-21.4-7.4-24.9-10.8c0.3-0.7,0.7-1.3,1-1.9
						C213,335.6,220.5,341.5,234.5,343.2z"/>
				</g>
				<g>
					<path class="st40" d="M232.9,348.6c-0.1,0.7-0.2,1.4-0.3,2.1c-14.5-1.6-22.5-7.5-26.1-11c0.3-0.7,0.6-1.4,0.9-2.1
						C210.4,340.7,218.2,347,232.9,348.6z"/>
				</g>
				<path class="st52" d="M237.9,337.4c0,0-0.7,0.8-1.6,2.2c-6.7-4.5-8.5-8.9-8.5-8.9C233.2,335.3,237.9,337.4,237.9,337.4z"/>
				<g>
					<path class="st53" d="M287.5,436.8c-0.5,0-1-0.2-1.4-0.6c-0.8-0.8-0.9-2.1-0.1-2.9L398,316c0.8-0.8,2.1-0.8,2.9-0.1
						c0.8,0.8,0.9,2.1,0.1,2.9L289,436.1C288.6,436.6,288,436.8,287.5,436.8z"/>
				</g>
				<g>
					<g>
						<path class="st51" d="M391.9,315.7c0,0,2.6,6.3,8.2,2.7l0.5,1.2c0.4,1.1,1.7,1.5,2.7,0.8l2.3-1.7c1-0.7,1.2-2.1,0.4-3.1
							l-1.8-2.2c-0.5-0.5-1.2-0.8-1.9-0.8l-10.4,1L391.9,315.7z"/>
						<path class="st54" d="M388.9,312.1c-20.1,1.3-41.6-5.9-53-10.9l1.9,19.1c0.1-0.2,0.2-0.4,0.3-0.6c0.8-1.5,1.4-2.4,1.4-2.4
							c13.2,3.8,50.1,2.6,50.1,2.6L388.9,312.1z"/>
						
							<rect x="389.3" y="313" transform="matrix(0.9958 -9.183119e-02 9.183119e-02 0.9958 -27.3643 37.2366)" class="st55" width="3.3" height="5.9"/>
						<path class="st52" d="M391.6,317.2c0,0.4-0.3,0.8-0.7,0.8c-0.4,0-0.8-0.3-0.8-0.7c0-0.4,0.3-0.8,0.7-0.8
							C391.2,316.4,391.6,316.7,391.6,317.2z"/>
					</g>
					<path class="st51" d="M347.4,275.9v3.8c0,1.8,1.4,3.2,3.2,3.2h0.2c0.9,0,1.5,1.1,0.9,1.8l-1.6,2.2c-0.4,0.5-0.6,1.1-0.6,1.8
						v4.3c0,2.4-2,4.4-4.4,4.4l0,0c-1,0-2-0.4-2.8-1l-9.7-8.1v-12.4H347.4z"/>
					<polygon class="st51" points="340.3,291.4 335.2,306.6 330.1,304.9 335.2,288.1 					"/>
					<path class="st52" d="M341.2,279.3c0,0,5.3,3.5,10.8-2.4c2.7-3,3.4-5.8,3.1-7.9c-0.4-2.6-3.5-3.8-5.8-2.4l-3.2,2.1
						c-1.1,0.7-2.4,0.8-3.6,0.3l-2.9-1.2c-2.7-1.1-5.8,0.4-6.3,3.3c0,0,0,0.1,0,0.1c0,0-7.4-0.6-9.2,4.8c-1.7,5.4-0.3,9.3,3.1,12.2
						v3.1c0,3.1,2.5,5.6,5.6,5.6h1.2L341.2,279.3z"/>
					<path class="st52" d="M342.1,277.5l-8.6,1.3v9.9h3.7l3-4.4l0,0c1,0,1.8-0.8,1.8-1.8V277.5z"/>
					<g>
						<path class="st40" d="M391.7,319.6v7.9c0,0-36.9-2.2-49.6-7.2c0,0-0.7,0.8-1.6,2.2c-2.9,4.4-8.1,14.8-1.2,25.8l-20.2,23.8
							c0,0-18.3-16.6-12.7-37.8c4.8-18,12.4-27.7,20.9-33.1c2.6-1.6,5.9-1.6,8.6,0C344.7,306.7,367.3,318.9,391.7,319.6z"/>
					</g>
					<path class="st52" d="M316.6,369.5c0,0,31.6-40,54.1-40c10.4,0,25.4,46.1,25.4,46.1c-2.7,2.3-8.5,2.2-9.8,0l-17.2-29.8
						l-16.3,22.3c-8,10.9-23.8,13.1-33.8,4C318.1,371.3,317.3,370.5,316.6,369.5z"/>
					<path class="st54" d="M342.1,320.3c0,0-0.7,0.8-1.6,2.2c-6.7-4.5-8.5-8.9-8.5-8.9C337.4,318.2,342.1,320.3,342.1,320.3z"/>
					<path class="st56" d="M342.1,320.3c0,0,0.3,6-7.8,9.8c-8.1,3.7-12.5,8.8-11.6,16.8l-7.7,0.8l-1.5-6.8c0,0,5-9.3,12.4-11.3
						C333.3,327.5,340,324.9,342.1,320.3z"/>
					<path class="st51" d="M340,285.3c0,1.6-1.3,2.8-2.8,2.8s-2.8-1.3-2.8-2.8s1.3-2.8,2.8-2.8S340,283.7,340,285.3z"/>
				</g>
				<g>
					<g>
						<path class="st51" d="M189,321.3c-21.1-0.3-39.4-9.8-51.6-16.1c-18.8-7.6-17.7,1.8-9.1,17.6c0.4-0.5,5.1-2.2,5.1-2.2
							c13.2,4.8,56.7,5.3,56.7,5.3L189,321.3z"/>
					</g>
				</g>
				<path class="st51" d="M144.9,285.3l-1.6,2.2c-0.4,0.5-0.6,1.1-0.6,1.8v4.3c0,2.4-2,4.4-4.4,4.4c-1,0-2.1-0.3-2.9-1l-1.4-1.2
					l-8.2-6.9v-12.5h14.9v3.9c0,1.8,1.4,3.2,3.2,3.2h0.2C144.9,283.4,145.5,284.5,144.9,285.3z"/>
				<path class="st56" d="M171.8,397.1h-54.2c0,0-6.1-8.3-10.7-21.5c-1-2.7-1.8-5.6-2.6-8.6c-2.3-9.2-3.4-19.9-1.7-31.3
					c2.1-13,6.3-24.2,14.9-31.3c3.4-2.8,8-3.7,12.3-2.5c2.1,0.6,4.7,1.6,7.7,3.3c-0.8-0.3-7.2-2.3-10.7,2c-1.6,2-2.1,4.9-1,7.3
					c1.2,2.6,3.7,4.1,6.4,5.5c3.8,1.9,6.1,4.3,5.3,8.2c-0.7,3.9-7.6,4.4-7.6,4.4s-3.3,4-1,12.1c0.3,1,0.6,2,1,3
					c0,0,12.2-11.1,26-16.5c0,0,5.8-0.6,6.2,7.2c0.4,7.8-3.1,16.7,1.5,25.9C168.2,373.5,175.1,380.3,171.8,397.1z"/>
				<path class="st40" d="M129.9,347.7c0,0-3.3,17.1-23.1,28c-0.7,0.4-1.4,0.7-2.1,1.1l-3.1-8.4c0,0,1-0.4,2.5-1.3
					c5-2.8,16.3-10.1,24.6-22.4C129.1,345.6,129.4,346.6,129.9,347.7z"/>
				<path class="st57" d="M442.2,323.5c-8.7,0-12.9,6.5-14.6,10.5c-1.1,2.5-2.9,4.7-5.1,6.3c-14.5,10.3-69.4,43.1-185.5,43.1
					S65.9,350.6,51.4,340.3c-2.2-1.6-4-3.7-5.1-6.3c-1.8-4-5.9-10.5-14.6-10.5c-16.1,0-20.9,17.8-9.9,23.6c5.7,3.1,10.1,0.9,13-1.9
					c1.9-1.9,5.2-1.1,6,1.4c14.1,41.5,56.6,90.1,56.6,90.1h139.6h139.6c0,0,42.5-48.6,56.6-90.1c0.9-2.5,4.1-3.3,6-1.4
					c2.9,2.8,7.2,4.9,13,1.9C463.1,341.3,458.3,323.5,442.2,323.5z"/>
				<path class="st57" d="M456.3,330.9c-2.4-4.2-7.2-7.4-14-7.4c-8.7,0-12.9,6.5-14.6,10.5c-1.1,2.5-2.9,4.7-5.1,6.3
					c-14.5,10.3-69.4,43.1-185.5,43.1c-116.1,0-171.1-32.8-185.5-43.1c-2.2-1.6-4-3.7-5.1-6.3c-1.8-4-5.9-10.5-14.6-10.5
					c-6.9,0-11.7,3.2-14.1,7.4c-3.2,5.6-2.2,12.9,4.1,16.2c5.7,3.1,10.1,0.9,13-1.9c0.6-0.5,1.2-0.8,1.9-1c0,0,0,0,0,0
					c1.7-0.3,3.5,0.6,4.1,2.4c0,0,0,0.1,0,0.1c47.6,28.1,117.8,45.8,196.1,45.8c78.3,0,148.5-17.8,196.1-45.8c0,0,0-0.1,0-0.1
					c0.6-1.8,2.5-2.7,4.1-2.4c0.7,0.1,1.3,0.4,1.9,1c2.9,2.8,7.2,4.9,13,1.9C458.4,343.8,459.5,336.5,456.3,330.9z"/>
				<path class="st58" d="M433.1,346.8c-1.6,4.8-3.6,9.7-5.9,14.5c-1.4,3-2.9,5.9-4.4,8.9c-47.2,24.7-113,40.1-185.8,40.1
					c-72.8,0-138.7-15.3-185.8-40.1c-1.5-2.9-3-5.9-4.4-8.9c-2.3-4.9-4.3-9.7-5.9-14.5c47.6,28.1,117.8,45.8,196.1,45.8
					C315.2,392.6,385.5,374.9,433.1,346.8z"/>
				<path class="st59" d="M433.1,346.8c-1.6,4.8-3.6,9.7-5.9,14.5c-49.6,24-116.5,38.8-190.2,38.8c-73.7,0-140.7-14.8-190.2-38.8
					c-2.3-4.9-4.3-9.7-5.9-14.5c47.6,28.1,117.8,45.8,196.1,45.8C315.2,392.6,385.5,374.9,433.1,346.8z"/>
				<path class="st60" d="M422.8,370.2c-2.7,5.1-5.5,10.1-8.5,14.9c-2.1,3.4-4.2,6.8-6.4,10v0c-45.7,20.4-105.4,32.8-170.9,32.8
					c-65.4,0-125.2-12.4-170.9-32.8c-2.2-3.3-4.3-6.6-6.4-10.1c-3-4.9-5.9-9.9-8.5-14.9c47.2,24.7,113,40.1,185.8,40.1
					C309.8,410.3,375.6,394.9,422.8,370.2z"/>
				<path class="st57" d="M422.8,370.2c-2.7,5.1-5.5,10.1-8.5,14.9C366.4,406,304.6,418.5,237,418.5c-67.6,0-129.5-12.5-177.3-33.3
					c-3-4.9-5.9-9.9-8.5-14.9c47.2,24.7,113,40.1,185.8,40.1C309.8,410.3,375.6,394.9,422.8,370.2z"/>
				<path class="st59" d="M407.8,395.2c-3,4.5-6,8.9-8.9,12.9c-3.2,4.5-6.3,8.6-9.1,12.2c-17.9,6.7-37.4,12.2-58.3,16.4H142.4
					c-20.9-4.2-40.5-9.7-58.3-16.4c-2.8-3.6-5.9-7.7-9.1-12.2c-2.9-4.1-5.9-8.4-8.9-12.9c45.7,20.4,105.4,32.8,170.9,32.8
					C302.4,428.1,362.2,415.7,407.8,395.2z"/>
				<path class="st58" d="M75,408.2c39.3,16.1,88,26.4,141.2,28.6h-73.8c-20.9-4.2-40.5-9.7-58.3-16.4
					C81.3,416.7,78.2,412.6,75,408.2z"/>
				<path class="st58" d="M398.9,408.2c-3.2,4.5-6.3,8.6-9.1,12.2c-17.9,6.7-37.4,12.2-58.3,16.4h-73.8
					C310.9,434.6,359.6,424.3,398.9,408.2z"/>
				<g>
					<path class="st61" d="M291.1,444.3c-0.5,0-1-0.2-1.4-0.6c-0.8-0.8-0.9-2.1-0.1-2.9l112-117.3c0.8-0.8,2.1-0.8,2.9-0.1
						c0.8,0.8,0.9,2.1,0.1,2.9l-112,117.3C292.2,444.1,291.6,444.3,291.1,444.3z"/>
				</g>
				<path class="st51" d="M394.4,323.5c0,0,2.1,6.5,7.9,3.4l0.3,1.3c0.3,1.1,1.6,1.6,2.6,1l2.4-1.5c1-0.6,1.3-2,0.7-3l-1.6-2.3
					c-0.4-0.6-1.1-0.9-1.8-0.9h-10.5V323.5z"/>
				<rect x="391.8" y="320.7" class="st54" width="3.3" height="5.9"/>
				<path class="st52" d="M394,324.9c0,0.4-0.3,0.8-0.8,0.8s-0.8-0.3-0.8-0.8s0.3-0.8,0.8-0.8S394,324.5,394,324.9z"/>
				<g>
					<path class="st61" d="M187.5,460.1c-0.5,0-1-0.2-1.4-0.6c-0.8-0.8-0.9-2.1-0.1-2.9l112-117.3c0.8-0.8,2.1-0.8,2.9-0.1
						c0.8,0.8,0.9,2.1,0.1,2.9l-112,117.3C188.5,459.9,188,460.1,187.5,460.1z"/>
				</g>
				<path class="st51" d="M291.1,339.4c0,0,2.1,6.5,7.9,3.4l0.3,1.3c0.3,1.1,1.6,1.6,2.6,1l2.4-1.5c1-0.6,1.3-2,0.7-3l-1.6-2.3
					c-0.4-0.6-1.1-0.9-1.8-0.9h-10.5V339.4z"/>
				<g>
					<path class="st61" d="M85.1,444.3c-0.5,0-1-0.2-1.4-0.6c-0.8-0.8-0.9-2.1-0.1-2.9l112-117.3c0.8-0.8,2.1-0.8,2.9-0.1
						c0.8,0.8,0.9,2.1,0.1,2.9l-112,117.3C86.1,444.1,85.6,444.3,85.1,444.3z"/>
				</g>
				<path class="st51" d="M187.3,323.4c0,0,2.2,6.5,8.1,3.3l0.4,1.3c0.3,1.1,1.6,1.6,2.7,1l2.5-1.5c1.1-0.6,1.4-2,0.6-3l-1.7-2.3
					c-0.4-0.6-1.1-0.9-1.8-0.9l-10.8,0.1L187.3,323.4z"/>
				<path class="st52" d="M95,291.4c0,0,8.1,1.5,18.2-8.4c10.1-9.9,25.8-17.8,30-11.2c3,5.4-2.1,9.5-9.8,8.6c0,0-7.8,2.8-5.1,10.7
					c0,0,2.2,11.9-8.9,16c-6.6,2.6,2,29.2-20.6,31.6c-3.9,0.6-4.6,1.6-7.7,4.3c-3.1,2.7-13.7,6.5-20.9-1.9
					c-7.2-8.4-5.3-18.8-2.1-22.7c3.2-3.9,9.2-6,10.4-13.3C79.9,297.7,83.5,291.4,95,291.4z"/>
			</g>
			<path class="st62" d="M448.8,333.5c-2.5-2.1-3.6-4.8-2.5-6.1c1.1-1.3,4-0.7,6.5,1.4s3.6,4.8,2.5,6.1
				C454.2,336.2,451.3,335.6,448.8,333.5z"/>
			<g>
				<g>
					<g>
						<path class="st63" d="M571.2,322.8c2.4,1.1,4,3.7,6,5.7c3.8,4,9.4,5.7,14.5,4.5c3.9-1,7.3-3.5,10.7-5.9c2-1.4,4.1-2.7,6.3-3.7
							c-4.5-13.5-9.7-25.4-15.4-33.4c-4.8-6.8-14-6.8-18.8,0c-6.1,8.5-11.7,21.7-16.4,36.3c1.9-1.2,3.9-2.2,5.9-3
							C566.3,322.4,568.9,321.8,571.2,322.8z"/>
						<path class="st5" d="M625.6,407.2c-0.6-17.8-7.1-54.4-17-83.8c-2.2,0.9-4.3,2.3-6.3,3.7c-3.4,2.4-6.8,4.9-10.7,5.9
							c-5.1,1.3-10.7-0.4-14.5-4.5c-1.9-2-3.5-4.6-6-5.7c-2.3-1-4.9-0.4-7.2,0.5c-2.1,0.8-4,1.8-5.9,3c-9.3,28.9-15.4,63.7-16,80.9
							H625.6z"/>
					</g>
					<g>
						<path class="st64" d="M608.7,323.4c-2.2,1-4.3,2.3-6.3,3.7c-2.3,1.5-4.5,3.2-6.9,4.4c-0.8-2.7-1.7-5.4-2.6-8.1
							c-4.5-13.4-9.7-25.4-15.4-33.4c-0.5-0.7-1-1.3-1.5-1.8c5.1-4.9,12.9-4.3,17.3,1.8C598.9,298,604.1,309.9,608.7,323.4z"/>
						<path class="st49" d="M625.6,407.2h-15.7c-0.6-16.2-6-48-14.4-75.7c2.4-1.2,4.6-2.8,6.9-4.4c2-1.4,4.1-2.7,6.3-3.7
							C618.5,352.8,625,389.4,625.6,407.2z"/>
					</g>
				</g>
			</g>
			<g>
				<g>
					<g>
						<path class="st63" d="M499.3,293.1c3.3,1.4,5.5,5,8.1,7.7c5.2,5.4,12.7,7.7,19.6,6c5.3-1.3,9.9-4.7,14.5-7.9
							c2.7-1.9,5.5-3.7,8.5-5c-6.1-18.2-13.1-34.4-20.9-45.1c-6.5-9.2-18.9-9.2-25.4,0c-8.2,11.5-15.8,29.3-22.1,49
							c2.6-1.6,5.2-3,8-4.1C492.7,292.6,496.2,291.8,499.3,293.1z"/>
						<path class="st5" d="M572.8,407.2c-0.9-24.1-9.6-73.5-22.9-113.3c-3,1.3-5.8,3.1-8.5,5c-4.6,3.2-9.2,6.6-14.5,7.9
							c-6.9,1.7-14.4-0.6-19.6-6c-2.6-2.7-4.8-6.2-8.1-7.7c-3.1-1.4-6.6-0.6-9.8,0.6c-2.8,1.1-5.5,2.4-8,4.1
							c-12.6,39-20.8,86-21.6,109.4H572.8z"/>
					</g>
					<g>
						<path class="st64" d="M549.9,293.9c-3,1.3-5.8,3.1-8.5,5c-3,2.1-6.1,4.3-9.3,5.9c-1.1-3.7-2.3-7.4-3.5-10.9
							c-6.1-18.2-13.1-34.3-20.8-45.1c-0.6-0.9-1.3-1.7-2.1-2.4c6.8-6.7,17.5-5.9,23.4,2.4C536.8,259.6,543.8,275.7,549.9,293.9z"/>
						<path class="st49" d="M572.8,407.2h-21.3c-0.8-21.9-8.1-64.8-19.4-102.3c3.2-1.6,6.3-3.8,9.3-5.9c2.7-1.9,5.5-3.7,8.5-5
							C563.2,333.7,571.9,383.1,572.8,407.2z"/>
					</g>
				</g>
				<path class="st49" d="M540.7,316.1c0.1,2.5-0.1,5.4-2,7c-1.8,1.5-4.3,1.4-6.6,1.4c-11.1-0.2-22.2,1.7-32.6,5.6
					c-0.9,0.4-1.9,0.8-2.4,1.7c-0.7,1.3,0.2,3.1,1.5,3.8c1.3,0.7,2.9,0.7,4.5,0.7c6.7,0.1,13.3,0.9,19.8,2.3
					c1.8,0.4,3.6,0.9,4.8,2.2c1.6,1.7,1.6,4.3,2.4,6.5c2.3,6.3,10,8.3,16.6,8.8c1.2,0.1,2.6,0.1,3.6-0.5c1.5-0.9,1.8-2.9,1.9-4.6
					c0.4-8.8-3.3-17.2-6.9-25.2L540.7,316.1z"/>
				<path class="st64" d="M518.3,267.5c-2.1-0.4-3.7-2.3-5.8-2.7c-4.1-0.8-7,4-10.9,5.4c-1.9,0.7-4,0.5-6.1,0.8
					c-2,0.3-4.2,1.5-4.5,3.5c-0.3,1.7,0.8,3.3,2.3,4.1c1.5,0.8,3.3,0.8,4.9,0.5c2.4-0.4,4.7-1.5,7.2-1.7c2.5-0.2,5.3,0.6,6.3,2.9
					c0.5,1.1,0.5,2.3,0.8,3.5c0.7,2.6,3,4.5,5.4,5.9c2.4,1.5,5.2,2.8,8,2.8c3,0,5.9-1.5,7.7-3.9c1.8-2.4,2.3-5.6,1.4-8.5
					c-1.9-5.9-9.1-9.2-10.2-15.3C522.9,266.3,520.7,267.9,518.3,267.5z"/>
			</g>
			<path class="st5" d="M654.6,448.8H430.5c1.5-39.4,51.1-71,112-71c26.7,0,51.1,6,70.4,16.2h0c19.8,10.4,34,25.1,39.4,41.9
				C653.7,440,654.4,444.4,654.6,448.8z"/>
			<path class="st7" d="M652.3,435.8c-1,0-2,0-3-0.1c-14.8-0.7-29.5-1.4-44.3-2.1c-3.5-0.2-7.1-0.4-10.3-1.8
				c-7.4-3.5-10.5-12.9-17.9-16.6c-3.9-2-8.4-2-12.7-2c-29.6,0.3-59.2,3.3-88.2,9.1c-5.1,1-11.5,1.5-14.2-2.9
				c-0.6-1-0.9-2.3-0.4-3.3c0.5-1.2,1.9-1.7,3.1-2.1c32.5-10.5,67.1-12.1,100.8-17.4c2.6-0.4,5.3-0.9,7.3-2.6c2-1.6,3.1-4.3,5.2-5.7
				c2-1.4,4.7-1.5,7.1-1.4c9.7,0.4,18.8,3.7,28,7h0C632.8,404.3,647,419,652.3,435.8z"/>
			<g>
				<path class="st65" d="M661.6,448.1c0,0.1,0,0.2-0.1,0.3c-0.5,2.3-1.9,4.6-4,6.8c-25,26.1-158.3,46.1-319.1,46.1
					c-147.1,0-271.2-16.7-310.4-39.6c-3-1.8-5.6-3.6-7.6-5.4c5-0.6,9.8-1.9,14.6-3.6c24.9-8.9,48-29.4,82.5-29.3
					c33.3,0,36.5,12.9,79.3,14.3c42.8,1.4,77.2-26.3,135.8-26.3s79.8,31.3,128.9,31.3c30.6,0,53.4-27.2,100.4-24
					c36.9,1.7,41.6,25.9,83.7,29.3c3.2,0.3,6.6,0.4,10.2,0.4l2.5-0.1L661.6,448.1z"/>
				<path class="st66" d="M657.6,455.2c-25,26.1-158.3,46.1-319.1,46.1c-147.1,0-271.2-16.7-310.4-39.6c2.4-0.6,4.7-1.4,7-2.2
					c24.9-8.9,48-29.4,82.5-29.3c33.3,0,36.5,12.9,79.3,14.3c42.8,1.4,77.2-26.3,135.8-26.3s79.8,31.3,128.9,31.3
					c30.6,0,53.4-27.2,100.4-24c36.9,1.7,41.6,25.9,83.7,29.3c3.2,0.3,6.6,0.4,10.2,0.4L657.6,455.2z"/>
				<path class="st67" d="M661.6,448.4c-1.3,5.9-8.2,11.6-19.7,17c-45.6,21-164.2,36-303.3,36c-134.2,0-249.3-13.9-298.2-33.7
					c-8.9-3.6-15.6-7.4-19.8-11.3c5-0.6,9.8-1.9,14.6-3.6c30.1,2.4,42,9.6,93.5,10.5c62,1.1,111.8-20.7,196.6-20.7
					c84.8,0,115.6,24.8,186.7,24.8c41.8,0,73.4-19,133.8-19.1c3.8,0,7.6,0.1,11.6,0.2c0.3,0,0.7,0,1,0
					C659.5,448.3,660.6,448.4,661.6,448.4z"/>
				<path class="st68" d="M641.9,465.4c-45.6,21-164.2,36-303.3,36c-134.2,0-249.3-13.9-298.2-33.7c0.7-0.1,1.3-0.3,2-0.5
					c31.4,1.8,43.8,7,97.4,7.7c64.5,0.8,116.4-15.1,204.7-15.1c88.3,0,120.3,18.1,194.4,18.1C573.2,477.7,600.9,469.1,641.9,465.4z"
					/>
			</g>
			<path class="st7" d="M530.6,389.1c0,1.2-3.3,2.1-7.5,2.1c-4.1,0-7.5-1-7.5-2.1c0-1.2,3.3-2.1,7.5-2.1
				C527.3,386.9,530.6,387.9,530.6,389.1z"/>
			<path class="st7" d="M470.6,430.2c0,1.2-3.3,2.1-7.5,2.1s-7.5-1-7.5-2.1c0-1.2,3.3-2.1,7.5-2.1S470.6,429,470.6,430.2z"/>
			<path class="st7" d="M495,400.5c0,0.7-1.9,1.2-4.3,1.2c-2.4,0-4.3-0.6-4.3-1.2s1.9-1.2,4.3-1.2C493.1,399.3,495,399.8,495,400.5z
				"/>
			<path class="st7" d="M566.9,387.8c0,0.8-2.3,1.5-5.2,1.5c-2.9,0-5.2-0.7-5.2-1.5c0-0.8,2.3-1.5,5.2-1.5
				C564.6,386.3,566.9,387,566.9,387.8z"/>
			<path class="st64" d="M584.6,294.6c1.6,3.6,0.8,8.2-2,11c-1.5,1.5-3.3,2.4-5,3.7c-1.6,1.3-3.1,3.1-3,5.1c0,0.6,0.1,1.3-0.2,1.8
				c-0.6,1.1-2.5,1.1-2.6,2.4c-0.1,0.7,0.6,1.2,1.2,1.5c2,1,4.4,0.9,6.5,1.8c3.1,1.4,5,5.2,8.3,5.8c2.4,0.5,4.7-0.8,6.8-2.1
				c2-1.2,4.2-2.6,5-4.9c0.8-2.2-0.1-4.7-1.1-6.8C596,308.5,589.1,298.7,584.6,294.6z"/>
			<path class="st49" d="M600.2,381c3.8,1.2,5.3,6.9,9.3,7.1c0.5,0,1,0,1.4-0.2c1.5-0.5,2.5-1.7,3.3-3.1c5.1-8.5,2.7-19.4-1.2-28.5
				c-2.8-6.6-6.4-12.9-10.6-18.8c-3.8,1.2-6.8,4.8-7.1,8.8c-0.2,2.7,0.6,5.7-0.6,8.2c-2.5,4.7-11.1,4.3-12.2,9.5
				c-0.6,2.6,1.3,5.1,3.1,7c2.6,2.7,5.3,5.3,8.2,7.7c0.8,0.7,1.7,1.4,2.7,1.7C597.8,380.8,599.1,380.7,600.2,381z"/>
		</g>
		<path class="st62" d="M26.4,333.2c-2.1,2.5-4.8,3.6-6.1,2.5c-1.3-1.1-0.7-4,1.4-6.5c2.1-2.5,4.8-3.6,6.1-2.5
			C29.1,327.8,28.5,330.7,26.4,333.2z"/>
	</g>
	<path class="st7" d="M222.8,188.9c-5.3-5.2-17.2-5.7-17.2-5.7c16.2,3.5,17.2,10.7,17.2,10.7s1-7.1,17.2-10.7
		C240,183.2,228.1,183.7,222.8,188.9z"/>
	<path class="st7" d="M348.7,112.7c-7.2-1.9-17.8,3.6-17.8,3.6c15.8-4.9,20.2,0.8,20.2,0.8s-2.6-6.7,9.7-17.8
		C360.9,99.3,350.8,105.6,348.7,112.7z"/>
	<path class="st7" d="M503.8,202c-3.1-6.7-14.1-11.4-14.1-11.4c13.9,9.1,12.3,16.1,12.3,16.1s3.5-6.3,19.9-3.8
		C521.9,202.8,510.7,199,503.8,202z"/>
</g>
</svg>
