<?xml version="1.0" encoding="utf-8"?>
<!-- Generator: Adobe Illustrator 22.1.0, SVG Export Plug-In . SVG Version: 6.00 Build 0)  -->
<svg version="1.1" id="Layer_1" xmlns="http://www.w3.org/2000/svg" xmlns:xlink="http://www.w3.org/1999/xlink" x="0px" y="0px"
	 viewBox="0 0 731 141.1" style="enable-background:new 0 0 731 141.1;" xml:space="preserve">
<style type="text/css">
	.st0{display:none;}
	.st1{enable-background:new    ;}
	.st2{fill:#ff7911;}
</style>
<g id="Layer_1_1_" class="st0">
</g>
<g id="Layer_2_1_">
</g>
<g>
	<g id="XMLID_9_">
		<g id="XMLID_23_" class="st1">
			<path class="st2" d="M207.1,36.2c5.3,2.3,9.3,5.7,12.1,10c2.8,4.4,4.2,9.5,4.2,15.5c0,5.9-1.4,11.1-4.2,15.5
				c-2.8,4.4-6.8,7.8-12.1,10.1c-5.3,2.3-11.4,3.5-18.5,3.5h-18.4v23.6H155V32.7h33.6C195.7,32.7,201.8,33.8,207.1,36.2z M203,73.7
				c3.4-2.8,5.1-6.8,5.1-12c0-5.2-1.7-9.2-5.1-12c-3.4-2.8-8.4-4.2-15.1-4.2h-17.7v32.4h17.7C194.5,77.9,199.5,76.5,203,73.7z"/>
			<path class="st2" d="M273.8,85.5v28.8h-15.2V85.8l-32.1-53.1h16.2l23.9,39.8l24.2-39.8h14.9L273.8,85.5z"/>
			<path class="st2" d="M314.5,32.7h35.7c8.7,0,16.5,1.7,23.2,5.1c6.8,3.4,12,8.2,15.8,14.4c3.7,6.2,5.6,13.3,5.6,21.4
				c0,8.1-1.9,15.2-5.6,21.4c-3.7,6.2-9,11-15.8,14.4c-6.8,3.4-14.5,5.1-23.2,5.1h-35.7V32.7z M349.5,101.5c6,0,11.3-1.1,15.8-3.4
				c4.6-2.3,8.1-5.6,10.5-9.8c2.4-4.2,3.7-9.2,3.7-14.8c0-5.6-1.2-10.5-3.7-14.8c-2.5-4.2-6-7.5-10.5-9.8c-4.6-2.3-9.8-3.4-15.8-3.4
				h-19.8v56H349.5z"/>
			<path class="st2" d="M464.3,114.4l-16.7-23.9c-0.7,0.1-1.7,0.1-3.2,0.1H426v23.8h-15.2V32.7h33.6c7.1,0,13.2,1.2,18.5,3.5
				c5.3,2.3,9.3,5.7,12.1,10c2.8,4.4,4.2,9.5,4.2,15.5c0,6.1-1.5,11.4-4.5,15.9c-3,4.4-7.3,7.7-12.9,9.9l18.8,26.8H464.3z
				 M458.8,49.7c-3.4-2.8-8.4-4.2-15.1-4.2H426v32.6h17.7c6.6,0,11.6-1.4,15.1-4.3c3.4-2.8,5.1-6.9,5.1-12.1
				C464,56.5,462.2,52.5,458.8,49.7z"/>
			<path class="st2" d="M511.8,110.1c-6.7-3.6-11.9-8.6-15.8-15.1c-3.8-6.4-5.7-13.6-5.7-21.5c0-7.9,1.9-15.1,5.7-21.5
				c3.8-6.4,9.1-11.4,15.8-15.1c6.7-3.6,14.2-5.4,22.5-5.4c8.3,0,15.8,1.8,22.5,5.4c6.7,3.6,11.9,8.6,15.8,15
				c3.8,6.4,5.7,13.6,5.7,21.6c0,8-1.9,15.2-5.7,21.6c-3.8,6.4-9.1,11.4-15.8,15c-6.7,3.6-14.2,5.4-22.5,5.4
				C526,115.5,518.5,113.7,511.8,110.1z M549,98.5c4.4-2.5,7.8-5.9,10.3-10.3c2.5-4.4,3.7-9.3,3.7-14.8c0-5.4-1.2-10.4-3.7-14.8
				c-2.5-4.4-5.9-7.8-10.3-10.3c-4.4-2.5-9.3-3.7-14.7-3.7c-5.4,0-10.3,1.2-14.7,3.7c-4.4,2.5-7.8,5.9-10.3,10.3
				c-2.5,4.4-3.7,9.3-3.7,14.8c0,5.4,1.2,10.4,3.7,14.8c2.5,4.4,5.9,7.8,10.3,10.3c4.4,2.4,9.3,3.7,14.7,3.7
				C539.8,102.2,544.7,101,549,98.5z"/>
			<path class="st2" d="M594.4,32.7h15.2v81.7h-15.2V32.7z"/>
			<path class="st2" d="M631.6,32.7h35.7c8.7,0,16.5,1.7,23.2,5.1c6.8,3.4,12,8.2,15.8,14.4c3.7,6.2,5.6,13.3,5.6,21.4
				c0,8.1-1.9,15.2-5.6,21.4c-3.7,6.2-9,11-15.8,14.4c-6.8,3.4-14.5,5.1-23.2,5.1h-35.7V32.7z M666.6,101.5c6,0,11.3-1.1,15.8-3.4
				c4.6-2.3,8.1-5.6,10.5-9.8c2.4-4.2,3.7-9.2,3.7-14.8c0-5.6-1.2-10.5-3.7-14.8c-2.5-4.2-6-7.5-10.5-9.8c-4.6-2.3-9.8-3.4-15.8-3.4
				h-19.8v56H666.6z"/>
		</g>
	</g>
	<g id="XMLID_2_">
		<path id="XMLID_5_" class="st2" d="M27.4,68.8h86.6c1.1,0,2.1-1,2.1-2.1c-0.2-6.9-2.2-13.3-5.9-19.2c-3.7-5.9-8.7-10.7-14.8-14.4
			c-1-0.6-1.2-1.7-0.7-2.7l6.2-11c0.5-0.7,0.4-1.3-0.2-1.8c-0.1-0.1-0.2-0.2-0.5-0.2c-0.7-0.2-1.3,0-1.7,0.6L92,29.3
			c-0.5,0.8-1.6,1.2-2.5,0.8c-5.7-2.4-11.7-3.6-18-3.7c-6.3-0.1-12.4,1-18.1,3.1c-1,0.4-1.9,0-2.4-1l-6-11.5c-0.4-0.7-1-1-1.7-0.7
			c-0.1,0-0.4,0.1-0.5,0.2c-0.6,0.5-0.7,1.1-0.2,1.8l5.8,11.2c0.5,1,0.1,2.2-0.8,2.7c-6.3,3.4-11.5,8.1-15.3,13.9s-6,13.4-6.5,20.3
			C25.4,67.8,26.3,68.8,27.4,68.8z M89.2,45.5c0.7-0.7,1.7-1.1,2.7-1.1c1.1,0,1.9,0.4,2.7,1.2c0.7,0.7,1.1,1.7,1.1,2.7
			c0,1.1-0.4,1.9-1.1,2.7c-0.7,0.7-1.6,1.1-2.7,1.1c-1.1,0-1.9-0.4-2.7-1.2c-0.7-0.7-1.1-1.7-1.1-2.7C88,47.2,88.4,46.2,89.2,45.5z
			 M47.8,44.9c0.7-0.7,1.6-1.1,2.7-1.1c1.1,0,1.9,0.4,2.7,1.2c0.7,0.7,1.1,1.7,1.1,2.7c0,1.1-0.4,1.9-1.2,2.7
			c-0.7,0.7-1.7,1.1-2.7,1.1c-1.1,0-1.9-0.4-2.7-1.2c-0.7-0.7-1.1-1.7-1.1-2.7C46.7,46.6,47.1,45.6,47.8,44.9z"/>
		<path id="XMLID_4_" class="st2" d="M55.1,96.4L82,96.3h0.1c0.8-0.1,9.8,0.5,11-10v-0.1V75.8c0-0.7-0.6-1.2-1.2-1.2H30.9
			c0,0-10.4,0.4-11.8,23.8c0,0,0,0,0,0.1c0,1.1-0.1,25.2,12.9,26.3h0.1h7.4c0.7,0,1.2-0.6,1.2-1.2V113v-0.1
			c0.1-1,1.6-14.4,14.2-16.2C54.9,96.4,55.1,96.4,55.1,96.4z"/>
		<path id="XMLID_3_" class="st2" d="M108.4,74.5L108.4,74.5h-7.2c-0.7,0-1.2,0.6-1.2,1.2v10.6v0.1c-0.1,1-1.6,14.4-14.2,16.2h-0.1
			l-27.1,0.1h-0.1c-0.8,0.1-9.8-0.5-11,10v0.1v10.4c0,0.7,0.6,1.2,1.2,1.2h60.9c0,0,10.4-0.4,11.8-23.6c0,0,0,0,0-0.1
			C121.4,99.7,121.5,75.4,108.4,74.5z"/>
	</g>
</g>
</svg>
